{
.appVersion = "3414";
.formatVersion = 3;
DisplayStrings = (
"̛
OƠỚỢỜỞỠoơớợờởỡ
UƯỨỰỪỬỮuưứựừửữ
Uu
MUT MOT
MỨT MỚT

trường
thương
tương
trước
sương
chương
phương hướng
xương sường
tưởng/nbspace tượng

dấu sắc
dấu huyền",
"měšťáčtější nejjidášštější
pfählen
fühlen
föhnen

iıíĭîȉï/idotaccent ịìỉȋ

HíHĭHîHȉHïH/idotaccent HìHỉHȋH
VíVĭVîVȉVïV/idotaccent VìVỉVȋV
TíTĭTîTȉTïT/idotaccent TìTỉTȋT
ABCDEFGH

Obračunavanje",
A,
THANKYA
);
classes = (
{
automatic = 1;

glyphs = (
{
color = 5;
glyphname = A;
kernLeft = KO_A;
kernRight = KO_a;
lastChange = "2022-02-17 05:02:28 +0000";
layers = (
{
anchors = (
{
name = bottom;
pos = (195,0);
},
{
name = ogonek;
pos = (368,0);
},
{
name = top;
pos = (420,617);
}
);
background = {
shapes = (
{
closed = 0;
nodes = (
(255,19,l,{
"Letterink-NibData" = {
AngleInDegrees = 5;
MainAxisWidth = -1;
MinorAxisWidth = 10;
ValidForParentMainAxisWidth = 120;
ValidForParentMinorAxisWidth = 35;
};
}),
(424,636,l,{
"Letterink-NibData" = {
AngleInDegrees = 5;
MainAxisWidth = -1;
MinorAxisWidth = 14.85056;
ValidForParentMainAxisWidth = 120;
ValidForParentMinorAxisWidth = 35;
};
})
);
},
{
closed = 0;
nodes = (
(492,163,l,{
"Letterink-NibData" = {
AngleInDegrees = 5;
MainAxisWidth = -30;
ValidForParentMainAxisWidth = 120;
};
}),
(219,163,l,{
"Letterink-NibData" = {
AngleInDegrees = 5;
MainAxisWidth = -30;
ValidForParentMainAxisWidth = 120;
};
})
);
},
{
closed = 0;
nodes = (
(592,24,l,{
"Letterink-NibData" = {
AngleInDegrees = "5";
MainAxisWidth = "-1";
MinorAxisWidth = "10";
ValidForParentMainAxisWidth = "120";
ValidForParentMinorAxisWidth = "35";
};
}),
(432,631,l)
);
}
);
};
layerId = "2C7DDEC5-850F-4F82-8636-E075FE6DB186";
shapes = (
{
closed = 1;
nodes = (
(-30,8,o),
(39,-54,o),
(54,-30,cs),
(459,606,ls),
(473,628,o),
(404,690,o),
(389,666,cs),
(-16,30,ls)
);
},
{
closed = 1;
nodes = (
(382,128,o),
(331,198,o),
(295,198,cs),
(22,198,ls),
(-17,198,o),
(39,128,o),
(71,128,cs),
(344,128,ls)
);
},
{
closed = 1;
nodes = (
(329,-5,o),
(402,-60,o),
(406,-24,cs),
(464,610,ls),
(467,638,o),
(394,693,o),
(390,658,cs),
(331,24,ls)
);
}
);
width = 515;
}
);
unicode = 65;
userData = {
KernOnName = A;
};
},
{
color = 5;
glyphname = AE;
kernLeft = KO_A.ss01;
kernRight = KO_E;
lastChange = "2022-01-26 22:19:59 +0000";
layers = (
{
anchors = (
{
name = top;
pos = (556,617);
}
);
layerId = "2C7DDEC5-850F-4F82-8636-E075FE6DB186";
shapes = (
{
closed = 1;
nodes = (
(-66,10,o),
(4,-52,o),
(21,-31,cs),
(531,586,l),
(528,585,o),
(524,584,o),
(521,582,c),
(807,582,ls),
(845,582,o),
(794,652,o),
(758,652,cs),
(472,652,ls),
(469,652,o),
(463,650,o),
(462,648,cs),
(-48,31,ls)
);
},
{
closed = 1;
nodes = (
(449,128,o),
(399,198,o),
(363,198,cs),
(147,198,ls),
(108,198,o),
(163,128,o),
(195,128,cs),
(411,128,ls)
);
},
{
closed = 1;
nodes = (
(615,610,o),
(544,669,o),
(534,640,cs),
(313,33,ls),
(303,7,o),
(374,-52,o),
(384,-23,cs),
(605,584,ls)
);
},
{
closed = 1;
nodes = (
(661,-35,o),
(611,35,o),
(575,35,cs),
(332,35,ls),
(293,35,o),
(348,-35,o),
(380,-35,cs),
(623,-35,ls)
);
},
{
closed = 1;
nodes = (
(676,278,o),
(625,348,o),
(589,348,cs),
(463,348,ls),
(424,348,o),
(480,278,o),
(512,278,cs),
(638,278,ls)
);
}
);
width = 746;
}
);
metricRight = E;
unicode = 198;
},
{
color = 5;
glyphname = B;
kernLeft = KO_i;
kernRight = KO_B;
lastChange = "2022-01-26 22:19:59 +0000";
layers = (
{
layerId = "2C7DDEC5-850F-4F82-8636-E075FE6DB186";
shapes = (
{
closed = 1;
nodes = (
(177,652,o),
(233,582,o),
(265,582,cs),
(386,582,ls),
(478,582,o),
(488,563,o),
(469,513,cs),
(444,442,o),
(326,378,o),
(205,378,cs),
(166,378,o),
(222,308,o),
(254,308,cs),
(399,308,o),
(499,370,o),
(527,447,cs),
(582,597,o),
(400,652,o),
(337,652,cs),
(216,652,ls)
);
},
{
closed = 1;
nodes = (
(150,378,o),
(206,308,o),
(238,308,cs),
(385,308,o),
(406,268,o),
(387,216,cs),
(322,37,o),
(119,35,o),
(-12,35,cs),
(-51,35,o),
(5,-35,o),
(37,-35,cs),
(180,-35,o),
(377,-37,o),
(445,150,cs),
(507,320,o),
(297,378,o),
(189,378,cs)
);
},
{
closed = 1;
nodes = (
(-10,65,o),
(61,6,o),
(71,35,cs),
(272,587,ls),
(282,613,o),
(211,672,o),
(201,643,cs),
(0,91,ls)
);
}
);
width = 500;
}
);
unicode = 66;
},
{
color = 5;
glyphname = C;
kernLeft = KO_C;
kernRight = KO_C;
lastChange = "2022-01-26 22:33:06 +0000";
layers = (
{
anchors = (
{
name = bottom;
pos = (213,0);
},
{
name = top;
pos = (437,617);
}
);
layerId = "2C7DDEC5-850F-4F82-8636-E075FE6DB186";
shapes = (
{
closed = 1;
nodes = (
(509,169,o),
(395,148,o),
(376,122,cs),
(306,29,o),
(258,24,o),
(235,24,cs),
(162,24,o),
(84,125,o),
(156,323,cs),
(238,548,o),
(365,592,o),
(401,592,cs),
(479,592,o),
(529,480,o),
(483,352,cs),
(472,323,o),
(575,374,o),
(584,400,cs),
(644,564,o),
(576,662,o),
(500,662,cs),
(268,662,o),
(112,444,o),
(61,303,cs),
(-4,125,o),
(3,-44,o),
(183,-44,cs),
(329,-44,o),
(430,64,o),
(489,142,cs)
);
}
);
width = 538;
}
);
unicode = 67;
userData = {
KernOnName = C;
};
},
{
color = 5;
glyphname = D;
kernLeft = KO_h;
kernRight = KO_O;
lastChange = "2022-01-26 22:27:00 +0000";
layers = (
{
anchors = (
{
name = top;
pos = (389,617);
}
);
layerId = "2C7DDEC5-850F-4F82-8636-E075FE6DB186";
shapes = (
{
closed = 1;
nodes = (
(170,652,o),
(226,582,o),
(258,582,cs),
(364,582,ls),
(471,582,o),
(502,504,o),
(452,365,cs),
(359,111,o),
(118,35,o),
(-16,35,cs),
(-55,35,o),
(1,-35,o),
(33,-35,cs),
(173,-35,o),
(407,17,o),
(510,299,cs),
(577,484,o),
(556,652,o),
(315,652,cs),
(209,652,ls)
);
},
{
closed = 1;
nodes = (
(-38,3,o),
(32,-56,o),
(43,-27,cs),
(266,586,ls),
(275,612,o),
(205,671,o),
(194,642,cs),
(-29,29,ls)
);
}
);
width = 511;
}
);
unicode = 68;
userData = {
KernOnName = D;
};
},
{
color = 5;
glyphname = Eth;
kernLeft = KO_i;
kernRight = KO_O;
lastChange = "2022-01-26 22:19:59 +0000";
layers = (
{
layerId = "2C7DDEC5-850F-4F82-8636-E075FE6DB186";
shapes = (
{
closed = 1;
nodes = (
(28,371,o),
(75,307,o),
(107,307,cs),
(318,307,ls),
(356,307,o),
(313,371,o),
(278,371,cs),
(67,371,ls)
);
},
{
closed = 1;
nodes = (
(175,652,o),
(231,582,o),
(263,582,cs),
(369,582,ls),
(476,582,o),
(507,504,o),
(457,365,cs),
(364,111,o),
(123,35,o),
(-11,35,cs),
(-50,35,o),
(6,-35,o),
(38,-35,cs),
(178,-35,o),
(412,17,o),
(515,299,cs),
(583,488,o),
(559,652,o),
(320,652,cs),
(214,652,ls)
);
},
{
closed = 1;
nodes = (
(-33,3,o),
(37,-56,o),
(48,-27,cs),
(271,586,ls),
(280,612,o),
(210,671,o),
(199,642,cs),
(-24,29,ls)
);
}
);
width = 516;
}
);
metricRight = D;
unicode = 208;
},
{
color = 5;
glyphname = E;
kernLeft = KO_E;
kernRight = KO_E;
lastChange = "2022-01-26 22:31:31 +0000";
layers = (
{
anchors = (
{
name = bottom;
pos = (135,0);
},
{
name = ogonek;
pos = (277,0);
},
{
name = top;
pos = (359,617);
}
);
layerId = "2C7DDEC5-850F-4F82-8636-E075FE6DB186";
shapes = (
{
closed = 1;
nodes = (
(291,610,o),
(220,669,o),
(210,640,cs),
(-11,35,ls),
(-20,9,o),
(51,-50,o),
(61,-21,cs),
(281,584,ls)
);
},
{
closed = 1;
nodes = (
(538,582,o),
(487,652,o),
(451,652,cs),
(188,652,ls),
(149,652,o),
(205,582,o),
(237,582,cs),
(500,582,ls)
);
},
{
closed = 1;
nodes = (
(354,278,o),
(303,348,o),
(267,348,cs),
(159,348,ls),
(120,348,o),
(176,278,o),
(208,278,cs),
(316,278,ls)
);
},
{
closed = 1;
nodes = (
(-31,35,o),
(25,-35,o),
(57,-35,cs),
(301,-35,ls),
(339,-35,o),
(288,35,o),
(252,35,cs),
(8,35,ls)
);
}
);
width = 424;
}
);
unicode = 69;
userData = {
KernOnName = E;
};
},
{
color = 5;
glyphname = Schwa;
kernRight = KO_O;
lastChange = "2022-01-26 22:19:59 +0000";
layers = (
{
layerId = "2C7DDEC5-850F-4F82-8636-E075FE6DB186";
shapes = (
{
closed = 1;
nodes = (
(536,381,o),
(477,449,o),
(446,444,cs),
(199,402,o),
(56,289,o),
(15,177,cs),
(-35,40,o),
(76,-39,o),
(180,-39,cs),
(337,-39,o),
(502,112,o),
(566,288,cs),
(630,465,o),
(612,666,o),
(411,666,cs),
(324,666,o),
(244,621,o),
(157,549,cs),
(137,532,o),
(202,467,o),
(223,485,cs),
(306,554,o),
(384,588,o),
(438,588,cs),
(509,588,o),
(574,564,o),
(494,344,cs),
(428,163,o),
(262,39,o),
(154,39,cs),
(67,39,o),
(54,79,o),
(65,111,cs),
(100,207,o),
(252,333,o),
(501,375,cs)
);
}
);
width = 571;
}
);
unicode = 399;
},
{
color = 5;
glyphname = F;
kernLeft = KO_F;
kernRight = KO_F;
lastChange = "2022-01-26 22:38:07 +0000";
layers = (
{
layerId = "2C7DDEC5-850F-4F82-8636-E075FE6DB186";
shapes = (
{
closed = 1;
nodes = (
(300,610,o),
(229,669,o),
(219,640,cs),
(-4,28,ls),
(-13,2,o),
(57,-57,o),
(68,-28,cs),
(290,584,ls)
);
},
{
closed = 1;
nodes = (
(423,278,o),
(373,348,o),
(337,348,cs),
(151,348,ls),
(112,348,o),
(167,278,o),
(199,278,cs),
(385,278,ls)
);
},
{
closed = 1;
nodes = (
(591,582,o),
(540,652,o),
(504,652,cs),
(188,652,ls),
(149,652,o),
(205,582,o),
(237,582,cs),
(553,582,ls)
);
}
);
width = 451;
}
);
unicode = 70;
userData = {
KernOnName = F;
};
},
{
color = 5;
glyphname = G;
kernLeft = KO_C;
kernRight = KO_c;
lastChange = "2022-01-26 22:36:00 +0000";
layers = (
{
anchors = (
{
name = bottom;
pos = (223,0);
},
{
name = top;
pos = (447,617);
}
);
layerId = "2C7DDEC5-850F-4F82-8636-E075FE6DB186";
shapes = (
{
closed = 1;
nodes = (
(504,413,o),
(607,467,o),
(610,490,cs),
(624,589,o),
(596,660,o),
(500,660,cs),
(271,660,o),
(111,440,o),
(61,303,cs),
(-4,125,o),
(-10,-42,o),
(170,-42,cs),
(373,-42,o),
(528,143,o),
(585,301,cs),
(595,329,o),
(483,273,o),
(473,245,cs),
(405,59,o),
(292,26,o),
(223,26,cs),
(153,26,o),
(79,110,o),
(156,323,cs),
(238,548,o),
(364,590,o),
(400,590,cs),
(458,590,o),
(520,529,o),
(507,438,cs)
);
},
{
closed = 1;
nodes = (
(331,320,o),
(225,250,o),
(264,250,cs),
(484,250,l),
(482,253,o),
(479,255,o),
(477,257,c),
(373,-28,ls),
(363,-57,o),
(476,1,o),
(486,28,cs),
(589,313,ls),
(591,316,o),
(588,320,o),
(583,320,cs),
(363,320,ls)
);
}
);
width = 596;
}
);
unicode = 71;
userData = {
KernOnName = G;
};
},
{
color = 5;
glyphname = H;
kernLeft = KO_h;
kernRight = KO_l;
lastChange = "2022-01-26 22:34:27 +0000";
layers = (
{
anchors = (
{
name = top;
pos = (392,617);
}
);
layerId = "2C7DDEC5-850F-4F82-8636-E075FE6DB186";
shapes = (
{
closed = 1;
nodes = (
(277,615,o),
(206,674,o),
(195,645,cs),
(-29,28,ls),
(-39,2,o),
(32,-57,o),
(43,-28,cs),
(267,589,ls)
);
},
{
closed = 1;
nodes = (
(273,2,o),
(344,-57,o),
(355,-28,cs),
(579,589,ls),
(589,615,o),
(518,674,o),
(507,645,cs),
(283,28,ls)
);
},
{
closed = 1;
nodes = (
(136,350,o),
(192,280,o),
(224,280,cs),
(430,280,ls),
(468,280,o),
(417,350,o),
(381,350,cs),
(175,350,ls)
);
}
);
width = 485;
}
);
unicode = 72;
userData = {
KernOnName = H;
};
},
{
color = 5;
glyphname = Hbar;
kernLeft = KO_h;
lastChange = "2022-01-26 22:19:59 +0000";
layers = (
{
layerId = "2C7DDEC5-850F-4F82-8636-E075FE6DB186";
shapes = (
{
closed = 1;
nodes = (
(279,615,o),
(208,674,o),
(197,645,cs),
(-27,28,ls),
(-37,2,o),
(34,-57,o),
(45,-28,cs),
(269,589,ls)
);
},
{
closed = 1;
nodes = (
(275,2,o),
(346,-57,o),
(357,-28,cs),
(581,589,ls),
(591,615,o),
(520,674,o),
(509,645,cs),
(285,28,ls)
);
},
{
closed = 1;
nodes = (
(141,358,o),
(197,288,o),
(229,288,cs),
(435,288,ls),
(473,288,o),
(422,358,o),
(386,358,cs),
(180,358,ls)
);
},
{
closed = 1;
nodes = (
(608,445,o),
(564,509,o),
(529,509,cs),
(107,509,ls),
(68,509,o),
(116,445,o),
(148,445,cs),
(570,445,ls)
);
}
);
width = 489;
}
);
unicode = 294;
},
{
color = 5;
glyphname = I;
kernLeft = KO_I;
kernRight = KO_I;
lastChange = "2022-01-26 22:27:00 +0000";
layers = (
{
anchors = (
{
name = bottom;
pos = (126,0);
},
{
name = ogonek;
pos = (272,0);
},
{
name = top;
pos = (350,617);
}
);
layerId = "2C7DDEC5-850F-4F82-8636-E075FE6DB186";
shapes = (
{
closed = 1;
nodes = (
(378,566,o),
(307,625,o),
(297,596,cs),
(92,33,ls),
(82,7,o),
(153,-52,o),
(163,-23,cs),
(368,540,ls)
);
},
{
closed = 1;
nodes = (
(560,582,o),
(509,652,o),
(473,652,cs),
(179,652,ls),
(140,652,o),
(196,582,o),
(228,582,cs),
(522,582,ls)
);
},
{
closed = 1;
nodes = (
(334,-35,o),
(283,35,o),
(247,35,cs),
(-47,35,ls),
(-86,35,o),
(-30,-35,o),
(2,-35,cs),
(296,-35,ls)
);
}
);
width = 410;
}
);
unicode = 73;
userData = {
KernOnName = I;
};
},
{
color = 5;
glyphname = IJ;
kernLeft = KO_V;
kernRight = KO_U;
lastChange = "2022-01-26 22:19:59 +0000";
layers = (
{
layerId = "2C7DDEC5-850F-4F82-8636-E075FE6DB186";
shapes = (
{
closed = 1;
nodes = (
(281,615,o),
(211,674,o),
(200,645,cs),
(87,333,ls),
(77,307,o),
(148,248,o),
(158,277,cs),
(272,589,ls)
);
},
{
closed = 1;
nodes = (
(186,149,o),
(115,208,o),
(105,179,cs),
(70,85,o),
(84,-45,o),
(219,-45,cs),
(360,-45,o),
(462,68,o),
(527,246,cs),
(651,586,ls),
(660,612,o),
(590,671,o),
(579,642,cs),
(455,302,ls),
(378,89,o),
(261,5,o),
(207,5,cs),
(203,5,o),
(140,23,o),
(176,123,cs)
);
},
{
closed = 1;
nodes = (
(677,582,o),
(627,652,o),
(591,652,cs),
(390,652,ls),
(351,652,o),
(406,582,o),
(438,582,cs),
(639,582,ls)
);
}
);
width = 562;
}
);
unicode = 306;
},
{
color = 5;
glyphname = J;
kernLeft = KO_J;
kernRight = KO_U;
lastChange = "2022-01-26 22:27:00 +0000";
layers = (
{
anchors = (
{
name = top;
pos = (408,617);
}
);
layerId = "2C7DDEC5-850F-4F82-8636-E075FE6DB186";
shapes = (
{
closed = 1;
nodes = (
(86,149,o),
(15,208,o),
(5,179,cs),
(-30,85,o),
(-16,-45,o),
(119,-45,cs),
(260,-45,o),
(362,68,o),
(427,246,cs),
(551,586,ls),
(560,612,o),
(490,671,o),
(479,642,cs),
(355,302,ls),
(278,89,o),
(161,5,o),
(107,5,cs),
(103,5,o),
(40,23,o),
(76,123,cs)
);
},
{
closed = 1;
nodes = (
(577,582,o),
(527,652,o),
(491,652,cs),
(290,652,ls),
(251,652,o),
(306,582,o),
(338,582,cs),
(539,582,ls)
);
}
);
width = 462;
}
);
unicode = 74;
userData = {
KernOnName = J;
};
},
{
color = 5;
glyphname = K;
kernLeft = KO_i;
kernRight = KO_K;
lastChange = "2022-01-26 22:27:00 +0000";
layers = (
{
anchors = (
{
name = bottom;
pos = (162,0);
}
);
layerId = "2C7DDEC5-850F-4F82-8636-E075FE6DB186";
shapes = (
{
closed = 1;
nodes = (
(282,615,o),
(211,674,o),
(200,645,cs),
(-24,28,ls),
(-34,2,o),
(37,-57,o),
(48,-28,cs),
(272,589,ls)
);
},
{
closed = 1;
nodes = (
(589,607,o),
(520,669,o),
(503,648,cs),
(365,478,o),
(227,361,o),
(98,290,cs),
(72,276,o),
(137,211,o),
(160,224,cs),
(292,297,o),
(432,416,o),
(572,586,cs)
);
},
{
closed = 1;
nodes = (
(326,361,o),
(252,409,o),
(257,371,cs),
(297,21,ls),
(301,-13,o),
(375,-59,o),
(370,-21,cs),
(329,329,ls)
);
}
);
width = 480;
}
);
unicode = 75;
userData = {
KernOnName = K;
};
},
{
color = 5;
glyphname = L;
kernLeft = KO_h;
kernRight = KO_L;
lastChange = "2022-02-17 05:02:23 +0000";
layers = (
{
anchors = (
{
name = bottom;
pos = (148,0);
},
{
name = caron;
pos = (343,452);
},
{
name = dot_center;
pos = (247,368);
},
{
name = top;
pos = (231,617);
}
);
layerId = "2C7DDEC5-850F-4F82-8636-E075FE6DB186";
shapes = (
{
closed = 1;
nodes = (
(276,615,o),
(206,674,o),
(195,645,cs),
(-28,31,ls),
(-38,5,o),
(33,-54,o),
(43,-25,cs),
(267,589,ls)
);
},
{
closed = 1;
nodes = (
(-55,35,o),
(1,-35,o),
(33,-35,cs),
(284,-35,ls),
(322,-35,o),
(271,35,o),
(235,35,cs),
(-16,35,ls)
);
}
);
width = 407;
}
);
unicode = 76;
userData = {
KernOnName = L;
};
},
{
color = 5;
glyphname = Lslash;
kernRight = KO_L;
lastChange = "2022-01-26 22:19:59 +0000";
layers = (
{
layerId = "2C7DDEC5-850F-4F82-8636-E075FE6DB186";
shapes = (
{
closed = 1;
nodes = (
(314,615,o),
(244,674,o),
(233,645,cs),
(11,33,ls),
(1,7,o),
(72,-52,o),
(82,-23,cs),
(305,589,ls)
);
},
{
closed = 1;
nodes = (
(361,-35,o),
(310,35,o),
(274,35,cs),
(29,35,ls),
(-10,35,o),
(46,-35,o),
(78,-35,cs),
(323,-35,ls)
);
},
{
closed = 1;
nodes = (
(5,304,o),
(60,242,o),
(87,251,cs),
(282,313,ls),
(313,322,o),
(258,384,o),
(231,375,cs),
(35,313,ls)
);
}
);
width = 446;
}
);
metricRight = L;
unicode = 321;
},
{
color = 5;
glyphname = M;
kernLeft = KO_M;
kernRight = KO_M;
lastChange = "2022-01-26 22:32:14 +0000";
layers = (
{
layerId = "2C7DDEC5-850F-4F82-8636-E075FE6DB186";
shapes = (
{
closed = 1;
nodes = (
(349,611,o),
(280,672,o),
(267,646,cs),
(-49,29,ls),
(-60,6,o),
(9,-55,o),
(22,-29,cs),
(338,588,ls)
);
},
{
closed = 1;
nodes = (
(696,603,o),
(639,670,o),
(631,632,cs),
(509,30,ls),
(503,-2,o),
(561,-67,o),
(569,-30,cs),
(691,572,ls)
);
},
{
closed = 1;
nodes = (
(348,608,o),
(289,671,o),
(285,630,cs),
(229,64,ls),
(226,28,o),
(285,-33,o),
(289,8,cs),
(345,574,ls)
);
},
{
closed = 1;
nodes = (
(221,31,o),
(289,-31,o),
(305,-7,cs),
(683,587,ls),
(697,609,o),
(629,671,o),
(613,647,cs),
(235,53,ls)
);
}
);
width = 680;
}
);
unicode = 77;
userData = {
KernOnName = M;
};
},
{
color = 5;
glyphname = N;
kernLeft = KO_i;
kernRight = KO_i;
lastChange = "2022-01-26 22:19:59 +0000";
layers = (
{
anchors = (
{
name = bottom;
pos = (187,0);
},
{
name = top;
pos = (413,617);
}
);
layerId = "2C7DDEC5-850F-4F82-8636-E075FE6DB186";
shapes = (
{
closed = 1;
nodes = (
(281,615,o),
(211,674,o),
(200,645,cs),
(-25,28,ls),
(-34,2,o),
(37,-57,o),
(47,-28,cs),
(272,589,ls)
);
},
{
closed = 1;
nodes = (
(624,615,o),
(554,674,o),
(543,645,cs),
(318,28,ls),
(309,2,o),
(380,-57,o),
(390,-28,cs),
(615,589,ls)
);
},
{
closed = 1;
nodes = (
(268,636,o),
(194,679,o),
(202,639,cs),
(316,24,ls),
(323,-13,o),
(396,-54,o),
(388,-14,cs),
(274,601,ls)
);
}
);
width = 525;
}
);
unicode = 78;
},
{
color = 5;
glyphname = Eng;
kernLeft = KO_i;
kernRight = KO_i;
lastChange = "2022-01-26 22:19:59 +0000";
layers = (
{
layerId = "2C7DDEC5-850F-4F82-8636-E075FE6DB186";
shapes = (
{
closed = 1;
nodes = (
(292,615,o),
(222,674,o),
(211,645,cs),
(-25,28,ls),
(-35,2,o),
(34,-57,o),
(45,-28,cs),
(282,589,ls)
);
},
{
closed = 1;
nodes = (
(279,636,o),
(206,679,o),
(213,639,cs),
(315,24,ls),
(321,-13,o),
(393,-54,o),
(386,-14,cs),
(284,601,ls)
);
},
{
closed = 1;
nodes = (
(42,-167,o),
(96,-237,o),
(128,-237,cs),
(235,-237,o),
(337,-162,o),
(388,-28,cs),
(625,589,ls),
(635,615,o),
(565,674,o),
(554,645,cs),
(344,98,ls),
(334,72,o),
(404,13,o),
(415,42,cs),
(548,389,l),
(456,389,l),
(318,28,ls),
(273,-87,o),
(184,-167,o),
(81,-167,cs)
);
}
);
width = 535;
}
);
metricLeft = N;
metricRight = N;
unicode = 330;
},
{
color = 5;
glyphname = O;
kernLeft = KO_O;
kernRight = KO_O;
lastChange = "2022-01-27 22:50:25 +0000";
layers = (
{
anchors = (
{
name = bottom;
pos = (230,0);
},
{
name = ogonek;
pos = (230,0);
},
{
name = top;
pos = (454,617);
},
{
name = topright;
pos = (609,617);
}
);
layerId = "2C7DDEC5-850F-4F82-8636-E075FE6DB186";
shapes = (
{
closed = 1;
nodes = (
(399,-49,o),
(546,99,o),
(614,286,cs),
(695,509,o),
(626,666,o),
(445,666,cs),
(285,666,o),
(141,523,o),
(75,342,cs),
(-10,112,o),
(59,-49,o),
(239,-49,cs)
);
},
{
closed = 1;
nodes = (
(123,29,o),
(93,142,o),
(147,286,cs),
(215,474,o),
(357,588,o),
(471,588,cs),
(561,588,o),
(592,480,o),
(542,342,cs),
(472,148,o),
(327,29,o),
(213,29,cs)
);
}
);
width = 620;
}
);
unicode = 79;
userData = {
KernOnName = O;
};
},
{
color = 5;
glyphname = Oslash;
kernLeft = KO_O;
kernRight = KO_O;
lastChange = "2022-01-26 22:19:59 +0000";
layers = (
{
anchors = (
{
name = top;
pos = (455,617);
}
);
layerId = "2C7DDEC5-850F-4F82-8636-E075FE6DB186";
shapes = (
{
closed = 1;
nodes = (
(-7,5,o),
(54,-52,o),
(73,-32,cs),
(674,595,ls),
(692,613,o),
(632,672,o),
(613,651,cs),
(11,24,ls)
);
},
{
closed = 1;
nodes = (
(389,-43,o),
(540,84,o),
(614,286,cs),
(672,445,o),
(643,660,o),
(434,660,cs),
(297,660,o),
(147,538,o),
(75,342,cs),
(16,180,o),
(40,-43,o),
(252,-43,cs)
);
},
{
closed = 1;
nodes = (
(143,27,o),
(69,71,o),
(147,286,cs),
(209,456,o),
(345,590,o),
(482,590,cs),
(549,590,o),
(618,550,o),
(542,342,cs),
(478,166,o),
(341,27,o),
(204,27,cs)
);
}
);
width = 620;
}
);
metricLeft = O;
metricRight = O;
unicode = 216;
},
{
color = 5;
glyphname = OE;
kernLeft = KO_O;
kernRight = KO_E;
lastChange = "2022-01-26 22:19:59 +0000";
layers = (
{
layerId = "2C7DDEC5-850F-4F82-8636-E075FE6DB186";
shapes = (
{
closed = 1;
nodes = (
(389,-43,o),
(540,84,o),
(614,286,cs),
(672,445,o),
(643,660,o),
(434,660,cs),
(297,660,o),
(147,538,o),
(75,342,cs),
(16,180,o),
(40,-43,o),
(252,-43,cs)
);
},
{
closed = 1;
nodes = (
(143,27,o),
(69,71,o),
(147,286,cs),
(209,456,o),
(345,590,o),
(482,590,cs),
(549,590,o),
(618,550,o),
(542,342,cs),
(478,166,o),
(341,27,o),
(204,27,cs)
);
},
{
closed = 1;
nodes = (
(740,610,o),
(669,669,o),
(659,640,cs),
(436,28,ls),
(424,-4,o),
(454,-35,o),
(496,-35,cs),
(750,-35,ls),
(788,-35,o),
(737,35,o),
(701,35,cs),
(447,35,l),
(508,-28,l),
(730,584,ls)
);
},
{
closed = 1;
nodes = (
(987,582,o),
(936,652,o),
(900,652,cs),
(637,652,ls),
(598,652,o),
(654,582,o),
(686,582,cs),
(949,582,ls)
);
},
{
closed = 1;
nodes = (
(803,278,o),
(752,348,o),
(716,348,cs),
(608,348,ls),
(569,348,o),
(625,278,o),
(657,278,cs),
(765,278,ls)
);
}
);
width = 873;
}
);
metricLeft = O;
metricRight = E;
unicode = 338;
},
{
color = 5;
glyphname = P;
kernLeft = KO_i;
kernRight = KO_P;
lastChange = "2022-01-26 22:34:22 +0000";
layers = (
{
layerId = "2C7DDEC5-850F-4F82-8636-E075FE6DB186";
shapes = (
{
closed = 1;
nodes = (
(-34,2,o),
(36,-57,o),
(47,-28,cs),
(271,589,l),
(268,587,o),
(264,585,o),
(260,582,c),
(387,582,ls),
(475,582,o),
(489,532,o),
(475,492,cs),
(425,355,o),
(235,265,o),
(110,265,cs),
(71,265,o),
(127,195,o),
(159,195,cs),
(300,195,o),
(461,261,o),
(518,418,cs),
(578,583,o),
(412,652,o),
(338,652,cs),
(211,652,ls),
(206,652,o),
(201,648,o),
(200,645,cs),
(-25,28,ls)
);
}
);
width = 476;
}
);
unicode = 80;
userData = {
KernOnName = P;
};
},
{
color = 5;
glyphname = Thorn;
kernLeft = KO_i;
kernRight = KO_v;
lastChange = "2022-01-26 22:19:59 +0000";
layers = (
{
layerId = "2C7DDEC5-850F-4F82-8636-E075FE6DB186";
shapes = (
{
closed = 1;
nodes = (
(-34,2,o),
(37,-57,o),
(48,-28,cs),
(272,589,ls),
(282,615,o),
(211,674,o),
(200,645,cs),
(-24,28,ls)
);
},
{
closed = 1;
nodes = (
(137,540,o),
(193,470,o),
(225,470,cs),
(347,470,ls),
(435,470,o),
(450,420,o),
(435,380,cs),
(385,243,o),
(195,153,o),
(70,153,cs),
(31,153,o),
(87,83,o),
(119,83,cs),
(260,83,o),
(421,149,o),
(478,306,cs),
(538,471,o),
(372,540,o),
(298,540,cs),
(176,540,ls)
);
}
);
width = 476;
}
);
unicode = 222;
},
{
color = 5;
glyphname = Q;
kernLeft = KO_O;
kernRight = KO_O;
lastChange = "2022-01-26 22:19:59 +0000";
layers = (
{
layerId = "2C7DDEC5-850F-4F82-8636-E075FE6DB186";
shapes = (
{
closed = 1;
nodes = (
(399,-49,o),
(546,99,o),
(614,286,cs),
(695,509,o),
(626,666,o),
(445,666,cs),
(285,666,o),
(141,523,o),
(75,342,cs),
(-8,112,o),
(59,-49,o),
(239,-49,cs)
);
},
{
closed = 1;
nodes = (
(123,29,o),
(95,142,o),
(147,286,cs),
(215,474,o),
(357,588,o),
(471,588,cs),
(561,588,o),
(593,480,o),
(542,342,cs),
(472,148,o),
(327,29,o),
(213,29,cs)
);
},
{
closed = 1;
nodes = (
(253,22,o),
(159,-29,o),
(170,-47,cs),
(223,-142,o),
(315,-160,o),
(367,-160,cs),
(399,-160,o),
(480,-100,o),
(443,-100,cs),
(403,-100,o),
(312,-86,o),
(261,7,cs)
);
}
);
width = 620;
}
);
unicode = 81;
},
{
color = 5;
glyphname = R;
kernLeft = KO_i;
kernRight = KO_x;
lastChange = "2022-01-26 22:19:59 +0000";
layers = (
{
anchors = (
{
name = bottom;
pos = (161,0);
},
{
name = top;
pos = (385,617);
}
);
layerId = "2C7DDEC5-850F-4F82-8636-E075FE6DB186";
shapes = (
{
closed = 1;
nodes = (
(-34,2,o),
(36,-57,o),
(47,-28,cs),
(271,589,l),
(268,587,o),
(264,585,o),
(260,582,c),
(387,582,ls),
(475,582,o),
(491,537,o),
(477,497,cs),
(427,360,o),
(239,275,o),
(114,275,cs),
(75,275,o),
(130,205,o),
(162,205,cs),
(303,205,o),
(463,266,o),
(520,423,cs),
(582,593,o),
(412,652,o),
(338,652,cs),
(211,652,ls),
(206,652,o),
(201,648,o),
(200,645,cs),
(-25,28,ls)
);
},
{
closed = 1;
nodes = (
(286,-15,o),
(360,-59,o),
(355,-20,cs),
(319,233,ls),
(314,266,o),
(239,312,o),
(245,273,cs),
(281,20,ls)
);
}
);
width = 476;
}
);
unicode = 82;
},
{
color = 5;
glyphname = S;
kernLeft = KO_S;
kernRight = KO_S;
lastChange = "2022-01-26 22:37:46 +0000";
layers = (
{
anchors = (
{
name = bottom;
pos = (184,0);
},
{
name = top;
pos = (408,617);
}
);
layerId = "2C7DDEC5-850F-4F82-8636-E075FE6DB186";
shapes = (
{
closed = 1;
nodes = (
(403,379,o),
(500,427,o),
(510,453,cs),
(562,597,o),
(521,657,o),
(431,657,cs),
(297,657,o),
(213,566,o),
(187,496,cs),
(109,280,o),
(371,228,o),
(318,83,cs),
(303,41,o),
(258,12,o),
(209,12,cs),
(148,12,o),
(100,84,o),
(94,187,cs),
(91,208,o),
(-6,157,o),
(-5,135,cs),
(2,47,o),
(37,-40,o),
(144,-40,cs),
(286,-40,o),
(383,42,o),
(415,129,cs),
(474,292,o),
(210,340,o),
(284,542,cs),
(297,579,o),
(331,605,o),
(366,605,cs),
(436,605,o),
(455,523,o),
(413,407,cs)
);
}
);
width = 473;
}
);
unicode = 83;
userData = {
KernOnName = S;
};
},
{
color = 5;
glyphname = Germandbls;
kernLeft = KO_F;
kernRight = KO_B;
lastChange = "2022-01-26 22:19:59 +0000";
layers = (
{
layerId = "2C7DDEC5-850F-4F82-8636-E075FE6DB186";
shapes = (
{
closed = 1;
nodes = (
(284,566,o),
(213,625,o),
(203,596,cs),
(-4,28,ls),
(-14,2,o),
(57,-57,o),
(67,-28,cs),
(274,540,ls)
);
},
{
closed = 1;
nodes = (
(629,582,o),
(579,652,o),
(543,652,cs),
(188,652,ls),
(149,652,o),
(204,582,o),
(236,582,cs),
(591,582,ls)
);
},
{
closed = 1;
nodes = (
(98,30,o),
(153,-40,o),
(185,-40,cs),
(313,-40,o),
(438,28,o),
(488,167,cs),
(541,312,o),
(435,402,o),
(301,402,cs),
(262,402,o),
(317,332,o),
(349,332,cs),
(433,332,o),
(448,269,o),
(430,221,cs),
(397,130,o),
(262,30,o),
(137,30,cs)
);
},
{
closed = 1;
nodes = (
(617,600,o),
(550,664,o),
(531,644,cs),
(289,402,ls),
(270,384,o),
(337,320,o),
(356,340,cs),
(598,582,ls)
);
}
);
width = 542;
}
);
unicode = 7838;
},
{
color = 5;
glyphname = T;
kernLeft = KO_T;
kernRight = KO_T;
lastChange = "2022-01-27 22:51:27 +0000";
layers = (
{
anchors = (
{
name = bottom;
pos = (135,0);
},
{
name = top;
pos = (359,617);
}
);
layerId = "2C7DDEC5-850F-4F82-8636-E075FE6DB186";
shapes = (
{
closed = 1;
nodes = (
(387,566,o),
(316,625,o),
(306,596,cs),
(99,28,ls),
(90,2,o),
(160,-57,o),
(171,-28,cs),
(377,540,ls)
);
},
{
closed = 1;
nodes = (
(569,582,o),
(518,652,o),
(482,652,cs),
(188,652,ls),
(149,652,o),
(205,582,o),
(237,582,cs),
(531,582,ls)
);
}
);
width = 429;
}
);
unicode = 84;
userData = {
KernOnName = T;
};
},
{
color = 5;
glyphname = Tbar;
kernLeft = KO_V;
kernRight = KO_f;
lastChange = "2022-01-26 22:19:59 +0000";
layers = (
{
layerId = "2C7DDEC5-850F-4F82-8636-E075FE6DB186";
shapes = (
{
closed = 1;
nodes = (
(387,566,o),
(316,625,o),
(306,596,cs),
(99,28,ls),
(90,2,o),
(160,-57,o),
(171,-28,cs),
(377,540,ls)
);
},
{
closed = 1;
nodes = (
(569,582,o),
(518,652,o),
(482,652,cs),
(188,652,ls),
(149,652,o),
(205,582,o),
(237,582,cs),
(531,582,ls)
);
},
{
closed = 1;
nodes = (
(75,393,o),
(131,323,o),
(162,323,cs),
(418,323,ls),
(456,323,o),
(406,393,o),
(370,393,cs),
(114,393,ls)
);
}
);
width = 429;
}
);
metricLeft = T;
metricRight = T;
unicode = 358;
},
{
color = 5;
glyphname = U;
kernLeft = KO_b;
kernRight = KO_U;
lastChange = "2022-01-26 22:36:17 +0000";
layers = (
{
anchors = (
{
name = bottom;
pos = (197,0);
},
{
name = ogonek;
pos = (197,0);
},
{
name = top;
pos = (422,617);
},
{
name = topright;
pos = (679,617);
}
);
layerId = "2C7DDEC5-850F-4F82-8636-E075FE6DB186";
shapes = (
{
closed = 1;
nodes = (
(653,615,o),
(583,674,o),
(572,645,cs),
(440,282,ls),
(385,132,o),
(275,25,o),
(169,25,cs),
(136,25,o),
(73,42,o),
(140,226,cs),
(272,589,ls),
(281,615,o),
(211,674,o),
(200,645,cs),
(68,282,ls),
(19,146,o),
(35,-45,o),
(218,-45,cs),
(328,-45,o),
(448,52,o),
(512,226,cs),
(644,589,ls)
);
}
);
width = 554;
}
);
unicode = 85;
userData = {
KernOnName = U;
};
},
{
color = 5;
glyphname = V;
kernLeft = KO_V;
kernRight = KO_V;
lastChange = "2022-01-26 22:27:00 +0000";
layers = (
{
layerId = "2C7DDEC5-850F-4F82-8636-E075FE6DB186";
shapes = (
{
closed = 1;
nodes = (
(250,623,o),
(177,676,o),
(174,641,cs),
(134,31,ls),
(132,1,o),
(206,-52,o),
(208,-17,cs),
(248,593,ls)
);
},
{
closed = 1;
nodes = (
(120,13,o),
(187,-51,o),
(206,-31,cs),
(384,151,o),
(535,353,o),
(647,588,cs),
(658,611,o),
(589,673,o),
(576,646,cs),
(465,413,o),
(315,212,o),
(139,31,cs)
);
}
);
width = 533;
}
);
unicode = 86;
userData = {
KernOnName = V;
};
},
{
color = 5;
glyphname = W;
kernLeft = KO_V;
kernRight = KO_W;
lastChange = "2022-01-26 22:19:59 +0000";
layers = (
{
anchors = (
{
name = top;
pos = (519,617);
}
);
layerId = "2C7DDEC5-850F-4F82-8636-E075FE6DB186";
shapes = (
{
closed = 1;
nodes = (
(243,632,o),
(184,696,o),
(180,656,cs),
(107,36,ls),
(103,0,o),
(161,-62,o),
(166,-22,cs),
(239,598,ls)
);
},
{
closed = 1;
nodes = (
(102,12,o),
(155,-63,o),
(172,-36,cs),
(550,581,ls),
(564,605,o),
(511,680,o),
(495,653,cs),
(116,36,ls)
);
},
{
closed = 1;
nodes = (
(377,2,o),
(434,-62,o),
(441,-24,cs),
(553,587,ls),
(559,619,o),
(502,686,o),
(494,647,cs),
(383,36,ls)
);
},
{
closed = 1;
nodes = (
(369,18,o),
(420,-59,o),
(440,-38,cs),
(603,139,o),
(757,331,o),
(786,588,cs),
(790,622,o),
(732,686,o),
(727,646,cs),
(700,405,o),
(550,213,o),
(388,38,cs)
);
}
);
width = 704;
}
);
unicode = 87;
},
{
color = 5;
glyphname = X;
kernLeft = KO_X;
kernRight = KO_K;
lastChange = "2022-01-26 22:32:23 +0000";
layers = (
{
layerId = "2C7DDEC5-850F-4F82-8636-E075FE6DB186";
shapes = (
{
closed = 1;
nodes = (
(678,604,o),
(612,668,o),
(592,649,cs),
(-47,32,ls),
(-66,13,o),
(0,-51,o),
(20,-32,cs),
(659,585,ls)
);
},
{
closed = 1;
nodes = (
(389,-21,o),
(462,-58,o),
(451,-17,cs),
(366,307,ls),
(358,344,o),
(284,383,o),
(295,341,cs),
(379,17,ls)
);
},
{
closed = 1;
nodes = (
(272,286,o),
(345,249,o),
(335,290,cs),
(261,600,ls),
(253,636,o),
(179,676,o),
(189,634,cs),
(264,324,ls)
);
}
);
width = 562;
}
);
unicode = 88;
userData = {
KernOnName = X;
};
},
{
color = 5;
glyphname = Y;
kernLeft = KO_Y;
kernRight = KO_Y;
lastChange = "2022-02-17 05:02:50 +0000";
layers = (
{
anchors = (
{
name = bottom;
pos = (181,0);
},
{
name = top;
pos = (405,617);
}
);
layerId = "2C7DDEC5-850F-4F82-8636-E075FE6DB186";
shapes = (
{
closed = 1;
nodes = (
(245,628,o),
(171,676,o),
(175,638,cs),
(214,212,ls),
(214,214,o),
(213,216,o),
(215,219,cs),
(145,28,ls),
(136,2,o),
(206,-57,o),
(217,-28,cs),
(286,163,ls),
(287,165,o),
(287,168,o),
(287,170,cs),
(248,596,ls)
);
},
{
closed = 1;
nodes = (
(197,196,o),
(264,133,o),
(283,154,cs),
(646,586,ls),
(662,606,o),
(595,669,o),
(577,648,cs),
(213,216,ls)
);
}
);
width = 533;
}
);
unicode = 89;
userData = {
KernOnName = Y;
};
},
{
color = 5;
glyphname = Z;
kernLeft = KO_X;
kernRight = KO_Z;
lastChange = "2022-01-26 22:27:00 +0000";
layers = (
{
anchors = (
{
name = top;
pos = (368,617);
}
);
layerId = "2C7DDEC5-850F-4F82-8636-E075FE6DB186";
shapes = (
{
closed = 1;
nodes = (
(582,582,o),
(531,652,o),
(495,652,cs),
(196,652,ls),
(157,652,o),
(213,582,o),
(245,582,cs),
(544,582,ls)
);
},
{
closed = 1;
nodes = (
(357,-35,o),
(306,35,o),
(270,35,cs),
(-30,35,ls),
(-69,35,o),
(-13,-35,o),
(19,-35,cs),
(319,-35,ls)
);
},
{
closed = 1;
nodes = (
(-63,18,o),
(5,-45,o),
(24,-24,cs),
(555,584,ls),
(573,604,o),
(504,667,o),
(486,646,cs),
(-45,38,ls)
);
}
);
width = 443;
}
);
unicode = 90;
userData = {
KernOnName = Z;
};
},
{
color = 9;
glyphname = A.ss01;
kernLeft = KO_A.ss01;
kernRight = KO_a;
lastChange = "2022-01-26 21:02:12 +0000";
layers = (
{
layerId = "2C7DDEC5-850F-4F82-8636-E075FE6DB186";
shapes = (
{
closed = 1;
nodes = (
(474,631,o),
(405,693,o),
(390,668,cs),
(-76,-79,ls),
(-90,-101,o),
(-21,-163,o),
(-6,-138,cs),
(460,609,ls)
);
},
{
closed = 1;
nodes = (
(353,143,ls),
(387,149,o),
(330,217,o),
(298,212,cs),
(7,164,ls),
(-28,158,o),
(33,90,o),
(62,95,cs)
);
},
{
closed = 1;
nodes = (
(468,644,o),
(394,697,o),
(391,661,cs),
(348,81,ls),
(346,51,o),
(420,-2,o),
(423,33,cs),
(466,614,ls)
);
}
);
width = 511;
}
);
},
{
color = 9;
glyphname = B.ss01;
kernLeft = KO_E;
kernRight = KO_B;
lastChange = "2022-01-26 21:02:12 +0000";
layers = (
{
layerId = "2C7DDEC5-850F-4F82-8636-E075FE6DB186";
shapes = (
{
closed = 1;
nodes = (
(146,363,o),
(207,295,o),
(236,300,cs),
(397,327,o),
(401,296,o),
(383,249,cs),
(316,64,o),
(106,1,o),
(-1,21,cs),
(-43,29,o),
(-3,-40,o),
(38,-48,cs),
(173,-73,o),
(370,-18,o),
(446,189,cs),
(518,389,o),
(279,385,o),
(181,369,cs)
);
},
{
closed = 1;
nodes = (
(273,559,o),
(203,618,o),
(192,589,cs),
(17,107,ls),
(7,81,o),
(78,22,o),
(89,52,cs),
(264,534,ls)
);
},
{
closed = 1;
nodes = (
(143,626,o),
(204,559,o),
(233,564,cs),
(338,581,ls),
(508,609,o),
(474,552,o),
(473,549,cs),
(452,492,o),
(335,394,o),
(177,369,cs),
(142,363,o),
(203,295,o),
(232,300,cs),
(361,321,o),
(483,391,o),
(517,484,cs),
(587,677,o),
(400,669,o),
(283,650,cs),
(178,632,ls)
);
}
);
width = 487;
}
);
},
{
color = 9;
glyphname = C.ss01;
kernLeft = KO_C;
lastChange = "2022-01-26 21:02:12 +0000";
layers = (
{
layerId = "2C7DDEC5-850F-4F82-8636-E075FE6DB186";
shapes = (
{
closed = 1;
nodes = (
(472,134,o),
(404,126,o),
(349,70,cs),
(323,44,o),
(274,20,o),
(238,14,cs),
(185,5,o),
(79,99,o),
(156,312,cs),
(231,517,o),
(319,581,o),
(364,595,cs),
(429,616,o),
(512,558,o),
(483,416,cs),
(478,390,o),
(591,450,o),
(596,474,cs),
(625,614,o),
(558,698,o),
(431,658,cs),
(181,579,o),
(104,422,o),
(44,257,cs),
(-21,79,o),
(11,-67,o),
(210,-34,cs),
(284,-22,o),
(359,20,o),
(419,80,cs)
);
}
);
width = 523;
}
);
},
{
color = 9;
glyphname = D.ss01;
kernLeft = KO_h;
kernRight = KO_O;
lastChange = "2022-01-26 21:02:12 +0000";
layers = (
{
layerId = "2C7DDEC5-850F-4F82-8636-E075FE6DB186";
shapes = (
{
closed = 1;
nodes = (
(153,608,o),
(214,553,o),
(249,559,cs),
(361,577,ls),
(475,596,o),
(511,529,o),
(460,390,cs),
(368,136,o),
(113,21,o),
(-30,-2,cs),
(-71,-9,o),
(-10,-64,o),
(24,-58,cs),
(173,-34,o),
(420,55,o),
(523,338,cs),
(592,527,o),
(562,676,o),
(307,633,cs),
(195,615,ls)
);
},
{
closed = 1;
nodes = (
(-27,36,o),
(50,-7,o),
(60,22,cs),
(257,564,ls),
(266,589,o),
(190,632,o),
(180,603,cs),
(-18,61,ls)
);
}
);
width = 510;
}
);
},
{
color = 9;
glyphname = E.ss01;
kernLeft = KO_E;
kernRight = KO_E;
lastChange = "2022-01-26 21:02:12 +0000";
layers = (
{
layerId = "2C7DDEC5-850F-4F82-8636-E075FE6DB186";
shapes = (
{
closed = 1;
nodes = (
(284,591,o),
(213,650,o),
(203,621,cs),
(-20,9,ls),
(-34,-30,o),
(-3,-61,o),
(43,-53,cs),
(313,-9,ls),
(347,-4,o),
(290,65,o),
(258,59,cs),
(-12,15,l),
(10,-5,o),
(31,-26,o),
(51,-47,c),
(274,565,ls)
);
},
{
closed = 1;
nodes = (
(544,609,o),
(487,678,o),
(455,672,cs),
(175,626,ls),
(141,621,o),
(202,553,o),
(231,558,cs),
(510,604,ls)
);
},
{
closed = 1;
nodes = (
(356,292,o),
(299,361,o),
(267,355,cs),
(152,336,ls),
(117,331,o),
(178,263,o),
(207,268,cs),
(322,287,ls)
);
}
);
width = 423;
}
);
},
{
color = 9;
glyphname = F.ss01;
kernLeft = KO_E;
kernRight = KO_F;
lastChange = "2022-01-26 21:02:12 +0000";
layers = (
{
layerId = "2C7DDEC5-850F-4F82-8636-E075FE6DB186";
shapes = (
{
closed = 1;
nodes = (
(265,559,o),
(200,611,o),
(190,583,cs),
(-19,8,ls),
(-29,-17,o),
(36,-70,o),
(47,-41,cs),
(256,534,ls)
);
},
{
closed = 1;
nodes = (
(532,614,o),
(482,677,o),
(451,672,cs),
(176,626,ls),
(141,620,o),
(197,558,o),
(223,562,cs),
(498,608,ls)
);
},
{
closed = 1;
nodes = (
(361,300,o),
(311,363,o),
(280,358,cs),
(147,336,ls),
(112,330,o),
(167,268,o),
(194,272,cs),
(327,294,ls)
);
}
);
width = 384;
}
);
},
{
color = 9;
glyphname = G.ss01;
kernLeft = KO_C;
lastChange = "2022-01-26 21:02:12 +0000";
layers = (
{
layerId = "2C7DDEC5-850F-4F82-8636-E075FE6DB186";
shapes = (
{
closed = 1;
nodes = (
(520,463,o),
(639,540,o),
(642,562,cs),
(655,657,o),
(613,714,o),
(516,698,cs),
(293,661,o),
(106,426,o),
(48,269,cs),
(-20,80,o),
(12,-45,o),
(157,-21,cs),
(373,15,o),
(562,231,o),
(615,377,cs),
(625,405,o),
(507,333,o),
(496,305,cs),
(428,118,o),
(344,75,o),
(261,61,cs),
(139,41,o),
(99,154,o),
(167,341,cs),
(242,549,o),
(349,606,o),
(412,616,cs),
(478,627,o),
(535,577,o),
(523,488,cs)
);
},
{
closed = 1;
nodes = (
(344,350,o),
(232,266,o),
(274,273,cs),
(508,312,l),
(501,317,l),
(456,194,o),
(413,61,o),
(394,-78,cs),
(392,-101,o),
(511,-24,o),
(514,-2,cs),
(531,133,o),
(575,268,o),
(619,389,cs),
(620,392,o),
(617,395,o),
(612,394,cs),
(378,355,ls)
);
}
);
width = 605;
}
);
},
{
color = 9;
glyphname = H.ss01;
kernLeft = KO_h;
kernRight = KO_l;
lastChange = "2022-01-26 21:02:12 +0000";
layers = (
{
layerId = "2C7DDEC5-850F-4F82-8636-E075FE6DB186";
shapes = (
{
closed = 1;
nodes = (
(266,587,o),
(196,646,o),
(185,617,cs),
(-39,0,ls),
(-48,-25,o),
(22,-84,o),
(33,-55,cs),
(257,562,ls)
);
},
{
closed = 1;
nodes = (
(284,30,o),
(354,-29,o),
(365,0,cs),
(589,617,ls),
(598,642,o),
(528,701,o),
(517,672,cs),
(293,55,ls)
);
},
{
closed = 1;
nodes = (
(132,330,o),
(193,262,o),
(222,267,cs),
(441,303,ls),
(475,309,o),
(418,377,o),
(386,372,cs),
(167,336,ls)
);
}
);
width = 485;
}
);
},
{
color = 9;
glyphname = I.ss01;
kernLeft = KO_z.ss02;
kernRight = KO_T;
lastChange = "2022-01-26 21:02:12 +0000";
layers = (
{
layerId = "2C7DDEC5-850F-4F82-8636-E075FE6DB186";
shapes = (
{
closed = 1;
nodes = (
(369,594,o),
(304,646,o),
(293,617,cs),
(99,82,ls),
(89,57,o),
(155,5,o),
(165,34,cs),
(360,569,ls)
);
},
{
closed = 1;
nodes = (
(569,617,o),
(519,680,o),
(488,675,cs),
(213,629,ls),
(177,623,o),
(233,561,o),
(261,566,cs),
(535,611,ls)
);
},
{
closed = 1;
nodes = (
(300,-7,o),
(250,56,o),
(219,51,cs),
(-50,6,ls),
(-85,0,o),
(-30,-62,o),
(-3,-58,cs),
(267,-13,ls)
);
}
);
width = 420;
}
);
},
{
color = 9;
glyphname = J.ss01;
kernLeft = KO_J.ss01;
kernRight = KO_U;
lastChange = "2022-01-26 21:02:12 +0000";
layers = (
{
layerId = "2C7DDEC5-850F-4F82-8636-E075FE6DB186";
shapes = (
{
closed = 1;
nodes = (
(-109,-19,o),
(-69,-61,o),
(-18,-61,cs),
(123,-61,o),
(212,42,o),
(279,226,cs),
(411,589,ls),
(420,615,o),
(350,674,o),
(339,645,cs),
(207,282,ls),
(136,86,o),
(18,-19,o),
(-53,-19,cs)
);
}
);
width = 321;
}
);
},
{
color = 9;
glyphname = K.ss01;
kernLeft = KO_i;
kernRight = KO_K.ss01;
lastChange = "2022-01-26 21:02:12 +0000";
layers = (
{
layerId = "2C7DDEC5-850F-4F82-8636-E075FE6DB186";
shapes = (
{
closed = 1;
nodes = (
(251,533,o),
(181,592,o),
(170,563,cs),
(-35,0,ls),
(-44,-26,o),
(26,-85,o),
(37,-56,cs),
(242,507,ls)
);
},
{
closed = 1;
nodes = (
(634,678,o),
(567,741,o),
(549,718,cs),
(406,535,o),
(223,355,o),
(88,266,cs),
(64,250,o),
(129,185,o),
(152,200,cs),
(290,291,o),
(474,473,o),
(619,658,cs)
);
},
{
closed = 1;
nodes = (
(323,363,o),
(249,408,o),
(255,368,cs),
(302,74,ls),
(308,39,o),
(382,-4,o),
(376,36,cs),
(329,330,ls)
);
}
);
width = 470;
}
);
},
{
color = 9;
glyphname = L.ss01;
kernLeft = KO_i;
kernRight = KO_L.ss02;
lastChange = "2022-01-26 21:02:12 +0000";
layers = (
{
layerId = "2C7DDEC5-850F-4F82-8636-E075FE6DB186";
shapes = (
{
closed = 1;
nodes = (
(273,593,o),
(203,652,o),
(192,623,cs),
(-31,11,ls),
(-40,-15,o),
(30,-74,o),
(41,-45,cs),
(264,567,ls)
);
},
{
closed = 1;
nodes = (
(335,-7,o),
(278,62,o),
(246,56,cs),
(-15,13,ls),
(-50,8,o),
(11,-60,o),
(40,-55,cs),
(301,-12,ls)
);
}
);
width = 412;
}
);
},
{
color = 9;
glyphname = M.ss01;
kernLeft = KO_s.ss02;
kernRight = KO_c;
lastChange = "2022-01-26 21:02:12 +0000";
layers = (
{
layerId = "2C7DDEC5-850F-4F82-8636-E075FE6DB186";
shapes = (
{
closed = 1;
nodes = (
(348,579,o),
(279,640,o),
(266,614,cs),
(-57,-20,ls),
(-68,-43,o),
(0,-104,o),
(14,-78,cs),
(337,556,ls)
);
},
{
closed = 1;
nodes = (
(749,652,o),
(677,710,o),
(669,678,cs),
(530,75,ls),
(523,49,o),
(595,-9,o),
(603,23,cs),
(742,626,ls)
);
},
{
closed = 1;
nodes = (
(342,584,o),
(269,637,o),
(266,602,cs),
(234,54,ls),
(233,24,o),
(306,-29,o),
(309,6,cs),
(341,554,ls)
);
},
{
closed = 1;
nodes = (
(232,31,o),
(300,-31,o),
(316,-7,cs),
(728,627,ls),
(742,649,o),
(673,711,o),
(657,687,cs),
(246,53,ls)
);
}
);
width = 704;
}
);
},
{
color = 9;
glyphname = N.ss01;
kernLeft = KO_i;
kernRight = KO_i.ss01;
lastChange = "2022-01-26 21:02:12 +0000";
layers = (
{
layerId = "2C7DDEC5-850F-4F82-8636-E075FE6DB186";
shapes = (
{
closed = 1;
nodes = (
(271,585,o),
(200,644,o),
(190,615,cs),
(-35,-2,ls),
(-44,-28,o),
(26,-87,o),
(37,-58,cs),
(261,559,ls)
);
},
{
closed = 1;
nodes = (
(635,645,o),
(565,704,o),
(554,675,cs),
(330,58,ls),
(320,32,o),
(391,-27,o),
(401,2,cs),
(626,619,ls)
);
},
{
closed = 1;
nodes = (
(255,609,o),
(181,649,o),
(192,607,cs),
(328,52,ls),
(336,15,o),
(409,-23,o),
(399,18,cs),
(263,573,ls)
);
}
);
width = 525;
}
);
},
{
color = 9;
glyphname = O.ss01;
kernLeft = KO_O;
kernRight = KO_O;
lastChange = "2022-01-26 21:02:12 +0000";
layers = (
{
layerId = "2C7DDEC5-850F-4F82-8636-E075FE6DB186";
shapes = (
{
closed = 1;
nodes = (
(514,592,o),
(464,662,o),
(428,662,cs),
(294,662,o),
(145,535,o),
(71,331,cs),
(9,159,o),
(40,-45,o),
(244,-45,cs),
(376,-45,o),
(518,64,o),
(595,276,cs),
(629,368,o),
(638,446,o),
(620,512,cs),
(610,548,o),
(537,587,o),
(548,545,cs),
(561,497,o),
(556,420,o),
(523,331,cs),
(457,149,o),
(328,25,o),
(196,25,cs),
(130,25,o),
(62,53,o),
(143,276,cs),
(207,451,o),
(342,592,o),
(476,592,cs)
);
}
);
width = 604;
}
);
},
{
color = 9;
glyphname = P.ss01;
kernRight = KO_r.ss02;
lastChange = "2022-01-26 21:02:12 +0000";
layers = (
{
layerId = "2C7DDEC5-850F-4F82-8636-E075FE6DB186";
shapes = (
{
closed = 1;
nodes = (
(117,613,o),
(178,546,o),
(206,551,cs),
(389,581,ls),
(483,596,o),
(493,561,o),
(477,517,cs),
(427,380,o),
(248,272,o),
(100,247,cs),
(65,241,o),
(127,174,o),
(155,178,cs),
(291,201,o),
(482,300,o),
(539,457,cs),
(596,615,o),
(405,661,o),
(334,649,cs),
(153,619,ls)
);
},
{
closed = 1;
nodes = (
(-44,-22,o),
(27,-81,o),
(38,-52,cs),
(248,525,ls),
(257,551,o),
(186,609,o),
(176,580,cs),
(-34,3,ls)
);
}
);
width = 482;
}
);
},
{
color = 9;
glyphname = Q.ss01;
kernLeft = KO_O;
kernRight = KO_O;
lastChange = "2022-01-26 21:02:12 +0000";
layers = (
{
layerId = "2C7DDEC5-850F-4F82-8636-E075FE6DB186";
shapes = (
{
closed = 1;
nodes = (
(273,28,o),
(159,-35,o),
(172,-51,cs),
(229,-132,o),
(330,-133,o),
(386,-123,cs),
(429,-116,o),
(524,-47,o),
(475,-55,cs),
(434,-61,o),
(340,-64,o),
(283,13,cs)
);
},
{
closed = 1;
nodes = (
(379,-43,o),
(540,86,o),
(613,286,cs),
(668,436,o),
(637,660,o),
(433,660,cs),
(299,660,o),
(143,529,o),
(75,342,cs),
(16,182,o),
(38,-43,o),
(251,-43,cs)
);
},
{
closed = 1;
nodes = (
(146,27,o),
(69,74,o),
(146,286,cs),
(205,449,o),
(348,590,o),
(482,590,cs),
(535,590,o),
(614,541,o),
(542,342,cs),
(479,170,o),
(331,27,o),
(203,27,cs)
);
}
);
width = 620;
}
);
},
{
color = 9;
glyphname = R.ss01;
kernLeft = KO_F;
kernRight = KO_R.ss02;
lastChange = "2022-01-26 21:02:12 +0000";
layers = (
{
layerId = "2C7DDEC5-850F-4F82-8636-E075FE6DB186";
shapes = (
{
closed = 1;
nodes = (
(-2,2,o),
(68,-57,o),
(79,-28,cs),
(278,520,ls),
(288,546,o),
(217,605,o),
(206,575,cs),
(7,28,ls)
);
},
{
closed = 1;
nodes = (
(200,279,o),
(262,212,o),
(290,222,cs),
(428,269,o),
(518,323,o),
(563,445,cs),
(616,590,o),
(486,669,o),
(365,649,cs),
(301,639,o),
(237,628,o),
(173,618,cs),
(138,612,o),
(199,544,o),
(228,549,cs),
(420,581,ls),
(529,599,o),
(524,552,o),
(505,499,cs),
(474,415,o),
(378,340,o),
(230,290,cs)
);
},
{
closed = 1;
nodes = (
(317,-85,o),
(431,-20,o),
(412,-7,cs),
(356,37,o),
(326,190,o),
(370,312,cs),
(381,341,o),
(269,285,o),
(258,257,cs),
(210,125,o),
(242,-25,o),
(302,-73,cs)
);
}
);
width = 508;
}
);
},
{
color = 9;
glyphname = S.ss01;
kernLeft = KO_S.ss01;
lastChange = "2022-01-26 21:02:12 +0000";
layers = (
{
layerId = "2C7DDEC5-850F-4F82-8636-E075FE6DB186";
shapes = (
{
closed = 1;
nodes = (
(543,640,o),
(486,708,o),
(454,703,cs),
(301,678,o),
(165,617,o),
(130,521,cs),
(55,316,o),
(290,248,o),
(250,139,cs),
(221,59,o),
(163,15,o),
(-24,-12,cs),
(-64,-18,o),
(3,-73,o),
(40,-68,cs),
(227,-40,o),
(304,11,o),
(336,98,cs),
(394,256,o),
(151,322,o),
(203,466,cs),
(226,529,o),
(362,610,o),
(509,634,cs)
);
}
);
width = 400;
}
);
},
{
color = 9;
glyphname = T.ss01;
kernLeft = KO_Y;
kernRight = KO_T;
lastChange = "2022-01-26 21:02:12 +0000";
layers = (
{
layerId = "2C7DDEC5-850F-4F82-8636-E075FE6DB186";
shapes = (
{
closed = 1;
nodes = (
(376,562,o),
(305,621,o),
(295,592,cs),
(86,18,ls),
(77,-8,o),
(147,-67,o),
(158,-38,cs),
(367,536,ls)
);
},
{
closed = 1;
nodes = (
(557,612,o),
(500,681,o),
(468,675,cs),
(176,627,ls),
(141,622,o),
(202,554,o),
(231,559,cs),
(523,607,ls)
);
}
);
width = 409;
}
);
},
{
color = 9;
glyphname = U.ss01;
kernLeft = KO_b;
kernRight = KO_U;
lastChange = "2022-01-26 21:02:12 +0000";
layers = (
{
layerId = "2C7DDEC5-850F-4F82-8636-E075FE6DB186";
shapes = (
{
closed = 1;
nodes = (
(666,648,o),
(595,707,o),
(584,677,cs),
(441,283,ls),
(382,121,o),
(262,4,o),
(150,-14,cs),
(122,-19,o),
(48,-26,o),
(116,161,cs),
(260,557,ls),
(270,582,o),
(199,641,o),
(188,612,cs),
(45,217,ls),
(-6,78,o),
(14,-103,o),
(215,-70,cs),
(333,-50,o),
(453,65,o),
(512,227,cs),
(656,622,ls)
);
}
);
width = 554;
}
);
},
{
color = 9;
glyphname = V.ss01;
kernLeft = KO_V;
kernRight = KO_f;
lastChange = "2022-01-26 21:02:12 +0000";
layers = (
{
layerId = "2C7DDEC5-850F-4F82-8636-E075FE6DB186";
shapes = (
{
closed = 1;
nodes = (
(250,623,o),
(177,676,o),
(174,641,cs),
(134,31,ls),
(132,1,o),
(206,-52,o),
(208,-17,cs),
(248,593,ls)
);
},
{
closed = 1;
nodes = (
(123,9,o),
(191,-53,o),
(208,-30,cs),
(646,587,ls),
(661,608,o),
(592,670,o),
(576,647,cs),
(138,30,ls)
);
}
);
width = 532;
}
);
},
{
color = 9;
glyphname = W.ss01;
kernLeft = KO_V;
kernRight = KO_V;
lastChange = "2022-01-26 21:02:12 +0000";
layers = (
{
layerId = "2C7DDEC5-850F-4F82-8636-E075FE6DB186";
shapes = (
{
closed = 1;
nodes = (
(245,620,o),
(180,681,o),
(175,644,cs),
(86,-61,ls),
(81,-93,o),
(148,-152,o),
(152,-115,cs),
(242,590,ls)
);
},
{
closed = 1;
nodes = (
(77,-87,o),
(145,-149,o),
(160,-123,cs),
(522,550,ls),
(534,572,o),
(466,634,o),
(452,608,cs),
(89,-65,ls)
);
},
{
closed = 1;
nodes = (
(402,23,o),
(467,-36,o),
(471,1,cs),
(523,549,ls),
(526,580,o),
(460,640,o),
(457,603,cs),
(404,55,ls)
);
},
{
closed = 1;
nodes = (
(393,30,o),
(463,-32,o),
(476,-6,cs),
(821,635,ls),
(833,657,o),
(764,719,o),
(750,693,cs),
(405,52,ls)
);
}
);
width = 690;
}
);
},
{
color = 9;
glyphname = X.ss01;
kernRight = KO_K.ss01;
lastChange = "2022-01-26 21:02:12 +0000";
layers = (
{
layerId = "2C7DDEC5-850F-4F82-8636-E075FE6DB186";
shapes = (
{
closed = 1;
nodes = (
(197,580,o),
(130,600,o),
(154,554,cs),
(265,340,ls),
(287,298,o),
(354,278,o),
(329,324,cs),
(218,538,ls)
);
},
{
closed = 1;
nodes = (
(-67,-64,o),
(1,-127,o),
(19,-106,cs),
(687,652,ls),
(705,672,o),
(637,735,o),
(619,714,cs),
(-49,-44,ls)
);
},
{
closed = 1;
nodes = (
(355,332,o),
(287,353,o),
(310,307,cs),
(419,93,ls),
(440,52,o),
(509,31,o),
(485,77,cs),
(376,291,ls)
);
}
);
width = 568;
}
);
},
{
color = 9;
glyphname = Y.ss01;
kernLeft = KO_V;
kernRight = KO_Y;
lastChange = "2022-01-26 21:31:51 +0000";
layers = (
{
layerId = "2C7DDEC5-850F-4F82-8636-E075FE6DB186";
shapes = (
{
closed = 1;
nodes = (
(220,563,o),
(146,610,o),
(151,571,cs),
(199,210,l),
(200,218,l),
(127,18,ls),
(117,-8,o),
(188,-67,o),
(199,-38,cs),
(271,162,ls),
(272,164,o),
(273,168,o),
(272,170,cs),
(225,531,ls)
);
},
{
closed = 1;
nodes = (
(182,194,o),
(250,132,o),
(268,154,cs),
(645,622,ls),
(661,642,o),
(593,704,o),
(575,682,cs),
(198,214,ls)
);
}
);
width = 519;
}
);
},
{
color = 9;
glyphname = Z.ss01;
kernLeft = KO_X;
kernRight = KO_Z;
lastChange = "2022-01-26 21:02:12 +0000";
layers = (
{
layerId = "2C7DDEC5-850F-4F82-8636-E075FE6DB186";
shapes = (
{
closed = 1;
nodes = (
(-72,-11,o),
(-5,-74,o),
(13,-53,cs),
(564,608,ls),
(580,628,o),
(513,691,o),
(494,670,cs),
(-56,9,ls)
);
},
{
closed = 1;
nodes = (
(367,-2,o),
(310,67,o),
(278,61,cs),
(-42,8,ls),
(-76,3,o),
(-15,-65,o),
(14,-60,cs),
(333,-7,ls)
);
},
{
closed = 1;
nodes = (
(591,615,o),
(534,684,o),
(502,678,cs),
(195,627,ls),
(160,622,o),
(221,554,o),
(250,559,cs),
(558,610,ls)
);
}
);
width = 443;
}
);
},
{
color = 8;
glyphname = A.ss02;
kernLeft = KO_A;
kernRight = KO_a;
lastChange = "2022-01-26 21:02:12 +0000";
layers = (
{
layerId = "2C7DDEC5-850F-4F82-8636-E075FE6DB186";
shapes = (
{
closed = 1;
nodes = (
(478,633,o),
(414,689,o),
(399,664,cs),
(-2,30,ls),
(-16,8,o),
(54,-54,o),
(69,-29,cs),
(464,611,ls)
);
},
{
closed = 1;
nodes = (
(309,148,ls),
(352,155,o),
(434,219,o),
(386,211,cs),
(68,158,ls),
(26,151,o),
(-57,87,o),
(-9,95,cs)
);
},
{
closed = 1;
nodes = (
(345,-40,o),
(419,-92,o),
(422,-57,cs),
(468,615,ls),
(470,645,o),
(403,691,o),
(400,657,cs),
(347,-10,ls)
);
}
);
width = 543;
}
);
},
{
color = 8;
glyphname = B.ss02;
kernLeft = KO_F;
kernRight = KO_B;
lastChange = "2022-01-26 21:02:12 +0000";
layers = (
{
layerId = "2C7DDEC5-850F-4F82-8636-E075FE6DB186";
shapes = (
{
closed = 1;
nodes = (
(138,612,o),
(199,544,o),
(228,549,cs),
(410,579,ls),
(525,598,o),
(511,549,o),
(510,546,cs),
(486,479,o),
(380,404,o),
(225,378,cs),
(190,372,o),
(251,305,o),
(280,309,cs),
(407,330,o),
(523,389,o),
(553,472,cs),
(628,677,o),
(398,655,o),
(355,648,cs),
(173,618,ls)
);
},
{
closed = 1;
nodes = (
(173,369,o),
(234,302,o),
(263,306,cs),
(425,333,o),
(434,287,o),
(418,243,cs),
(382,145,o),
(232,38,o),
(128,21,cs),
(93,15,o),
(154,-53,o),
(183,-48,cs),
(285,-31,o),
(438,61,o),
(485,191,cs),
(553,378,o),
(320,394,o),
(208,375,cs)
);
},
{
closed = 1;
nodes = (
(-19,-23,o),
(52,-82,o),
(62,-53,cs),
(277,537,ls),
(286,562,o),
(215,621,o),
(205,592,cs),
(-10,2,ls)
);
}
);
width = 525;
}
);
},
{
color = 8;
glyphname = C.ss02;
kernLeft = KO_o.ss02;
kernRight = KO_I;
lastChange = "2022-01-26 21:02:12 +0000";
layers = (
{
layerId = "2C7DDEC5-850F-4F82-8636-E075FE6DB186";
shapes = (
{
closed = 1;
nodes = (
(444,51,o),
(361,85,o),
(314,58,cs),
(142,-40,o),
(42,1,o),
(110,187,cs),
(176,369,o),
(320,532,o),
(623,620,cs),
(655,629,o),
(593,696,o),
(565,688,cs),
(256,598,o),
(107,431,o),
(38,242,cs),
(-32,50,o),
(107,-142,o),
(393,22,cs)
);
}
);
width = 503;
}
);
},
{
color = 8;
glyphname = D.ss02;
kernRight = KO_O;
lastChange = "2022-01-26 21:02:12 +0000";
layers = (
{
layerId = "2C7DDEC5-850F-4F82-8636-E075FE6DB186";
shapes = (
{
closed = 1;
nodes = (
(116,611,o),
(178,543,o),
(206,548,cs),
(362,574,ls),
(479,593,o),
(512,535,o),
(463,400,cs),
(367,136,o),
(123,32,o),
(-30,7,cs),
(-66,1,o),
(-4,-67,o),
(24,-62,cs),
(163,-39,o),
(421,61,o),
(520,333,cs),
(606,569,o),
(530,680,o),
(307,643,cs),
(152,617,ls)
);
},
{
closed = 1;
nodes = (
(-11,82,o),
(59,23,o),
(70,52,cs),
(244,529,ls),
(253,554,o),
(182,613,o),
(172,584,cs),
(-2,107,ls)
);
}
);
width = 509;
}
);
},
{
color = 8;
glyphname = E.ss02;
kernLeft = KO_F;
kernRight = KO_a;
lastChange = "2022-01-26 21:02:12 +0000";
layers = (
{
layerId = "2C7DDEC5-850F-4F82-8636-E075FE6DB186";
shapes = (
{
closed = 1;
nodes = (
(310,612,o),
(239,671,o),
(229,642,cs),
(-6,-3,ls),
(-16,-29,o),
(55,-88,o),
(65,-59,cs),
(300,586,ls)
);
},
{
closed = 1;
nodes = (
(342,-27,o),
(285,42,o),
(253,36,cs),
(9,-4,ls),
(-25,-9,o),
(36,-77,o),
(65,-72,cs),
(308,-32,ls)
);
},
{
closed = 1;
nodes = (
(538,625,o),
(481,694,o),
(449,688,cs),
(182,643,ls),
(147,637,o),
(208,570,o),
(237,575,cs),
(505,620,ls)
);
},
{
closed = 1;
nodes = (
(372,294,o),
(314,362,o),
(282,356,cs),
(84,320,ls),
(49,314,o),
(112,247,o),
(140,252,cs),
(338,288,ls)
);
}
);
width = 427;
}
);
},
{
color = 8;
glyphname = F.ss02;
kernLeft = KO_i;
kernRight = KO_T;
lastChange = "2022-01-26 21:02:12 +0000";
layers = (
{
layerId = "2C7DDEC5-850F-4F82-8636-E075FE6DB186";
shapes = (
{
closed = 1;
nodes = (
(264,559,o),
(199,611,o),
(189,582,cs),
(-29,-16,ls),
(-38,-41,o),
(27,-93,o),
(38,-64,cs),
(255,534,ls)
);
},
{
closed = 1;
nodes = (
(531,614,o),
(481,677,o),
(450,672,cs),
(176,626,ls),
(141,620,o),
(196,558,o),
(222,562,cs),
(497,608,ls)
);
},
{
closed = 1;
nodes = (
(307,291,o),
(257,354,o),
(226,349,cs),
(66,323,ls),
(31,317,o),
(86,254,o),
(114,259,cs),
(274,285,ls)
);
}
);
width = 383;
}
);
},
{
color = 8;
glyphname = G.ss02;
kernLeft = KO_o.ss02;
kernRight = KO_v;
lastChange = "2022-01-26 21:02:12 +0000";
layers = (
{
layerId = "2C7DDEC5-850F-4F82-8636-E075FE6DB186";
shapes = (
{
closed = 1;
nodes = (
(508,431,o),
(627,508,o),
(630,530,cs),
(642,624,o),
(604,682,o),
(503,665,cs),
(281,628,o),
(93,393,o),
(36,236,cs),
(-33,46,o),
(24,-75,o),
(169,-51,cs),
(376,-17,o),
(529,196,o),
(570,310,cs),
(581,339,o),
(462,267,o),
(452,239,cs),
(390,69,o),
(316,39,o),
(273,32,cs),
(152,12,o),
(86,120,o),
(154,307,cs),
(230,516,o),
(336,572,o),
(399,582,cs),
(463,593,o),
(523,543,o),
(511,455,cs)
);
},
{
closed = 1;
nodes = (
(332,317,o),
(220,233,o),
(262,240,cs),
(534,285,ls),
(568,291,o),
(679,375,o),
(638,368,cs),
(366,323,ls)
);
}
);
width = 594;
}
);
},
{
color = 8;
glyphname = H.ss02;
kernLeft = KO_h;
kernRight = KO_l;
lastChange = "2022-01-26 21:02:12 +0000";
layers = (
{
layerId = "2C7DDEC5-850F-4F82-8636-E075FE6DB186";
shapes = (
{
closed = 1;
nodes = (
(266,587,o),
(195,646,o),
(185,617,cs),
(-47,-20,ls),
(-56,-46,o),
(14,-105,o),
(25,-76,cs),
(257,561,ls)
);
},
{
closed = 1;
nodes = (
(276,10,o),
(347,-49,o),
(357,-20,cs),
(589,617,ls),
(598,643,o),
(528,702,o),
(517,673,cs),
(285,36,ls)
);
},
{
closed = 1;
nodes = (
(21,302,o),
(88,238,o),
(111,249,cs),
(182,283,o),
(313,313,o),
(402,298,cs),
(443,290,o),
(402,359,o),
(362,366,cs),
(253,384,o),
(125,352,o),
(49,315,cs)
);
}
);
width = 484;
}
);
},
{
color = 8;
glyphname = I.ss02;
kernLeft = KO_z.ss02;
kernRight = KO_I;
lastChange = "2022-01-26 21:02:12 +0000";
layers = (
{
layerId = "2C7DDEC5-850F-4F82-8636-E075FE6DB186";
shapes = (
{
closed = 1;
nodes = (
(408,570,o),
(343,623,o),
(332,594,cs),
(136,55,ls),
(127,30,o),
(192,-22,o),
(203,7,cs),
(399,545,ls)
);
},
{
closed = 1;
nodes = (
(549,615,o),
(499,678,o),
(468,673,cs),
(226,633,ls),
(191,627,o),
(246,565,o),
(273,569,cs),
(515,609,ls)
);
},
{
closed = 1;
nodes = (
(326,3,o),
(276,66,o),
(245,61,cs),
(-58,11,ls),
(-93,5,o),
(-38,-57,o),
(-11,-53,cs),
(292,-3,ls)
);
}
);
width = 401;
}
);
},
{
color = 8;
glyphname = J.ss02;
kernRight = KO_U;
lastChange = "2022-01-26 21:02:12 +0000";
layers = (
{
layerId = "2C7DDEC5-850F-4F82-8636-E075FE6DB186";
shapes = (
{
closed = 1;
nodes = (
(-119,-49,o),
(-57,-89,o),
(-14,-83,cs),
(105,-63,o),
(213,44,o),
(282,234,cs),
(420,613,ls),
(429,639,o),
(359,698,o),
(348,669,cs),
(210,290,ls),
(143,104,o),
(9,-29,o),
(-71,-41,cs)
);
},
{
closed = 1;
nodes = (
(446,615,o),
(389,684,o),
(357,678,cs),
(196,651,ls),
(161,645,o),
(222,578,o),
(251,583,cs),
(412,610,ls)
);
}
);
width = 322;
}
);
},
{
color = 8;
glyphname = K.ss02;
kernLeft = KO_i;
kernRight = KO_E;
lastChange = "2022-01-26 21:02:12 +0000";
layers = (
{
layerId = "2C7DDEC5-850F-4F82-8636-E075FE6DB186";
shapes = (
{
closed = 1;
nodes = (
(271,587,o),
(200,646,o),
(190,617,cs),
(-35,0,ls),
(-44,-26,o),
(26,-85,o),
(37,-56,cs),
(261,561,ls)
);
},
{
closed = 1;
nodes = (
(624,701,o),
(516,653,o),
(492,619,cs),
(352,421,o),
(196,283,o),
(90,213,cs),
(21,168,o),
(66,161,o),
(133,205,cs),
(300,315,o),
(454,459,o),
(599,665,cs)
);
},
{
closed = 1;
nodes = (
(349,402,o),
(236,342,o),
(235,319,cs),
(227,147,o),
(233,-13,o),
(283,-136,cs),
(291,-154,o),
(404,-91,o),
(397,-72,cs),
(348,49,o),
(342,209,o),
(349,379,cs)
);
}
);
width = 514;
}
);
},
{
color = 8;
glyphname = L.ss02;
kernLeft = KO_i;
kernRight = KO_L.ss02;
lastChange = "2022-01-26 21:02:12 +0000";
layers = (
{
layerId = "2C7DDEC5-850F-4F82-8636-E075FE6DB186";
shapes = (
{
closed = 1;
nodes = (
(285,625,o),
(214,684,o),
(204,655,cs),
(-31,11,ls),
(-40,-15,o),
(30,-74,o),
(41,-45,cs),
(275,599,ls)
);
},
{
closed = 1;
nodes = (
(297,-13,o),
(239,55,o),
(208,50,cs),
(-15,13,ls),
(-50,8,o),
(12,-60,o),
(40,-55,cs),
(263,-19,ls)
);
}
);
width = 377;
}
);
},
{
color = 8;
glyphname = M.ss02;
kernLeft = KO_s.ss02;
kernRight = KO_a.ss01;
lastChange = "2022-01-26 21:02:12 +0000";
layers = (
{
layerId = "2C7DDEC5-850F-4F82-8636-E075FE6DB186";
shapes = (
{
closed = 1;
nodes = (
(332,544,o),
(263,606,o),
(250,580,cs),
(-103,-118,ls),
(-114,-140,o),
(-45,-202,o),
(-32,-176,cs),
(321,522,ls)
);
},
{
closed = 1;
nodes = (
(757,685,o),
(685,743,o),
(677,711,cs),
(537,96,ls),
(530,70,o),
(602,12,o),
(610,44,cs),
(750,658,ls)
);
},
{
closed = 1;
nodes = (
(326,553,o),
(252,604,o),
(251,568,cs),
(243,87,ls),
(242,56,o),
(317,5,o),
(317,41,cs),
(325,522,ls)
);
},
{
closed = 1;
nodes = (
(241,68,o),
(310,5,o),
(325,29,cs),
(735,657,ls),
(749,679,o),
(680,741,o),
(665,717,cs),
(255,89,ls)
);
}
);
width = 694;
}
);
},
{
color = 8;
glyphname = N.ss02;
kernLeft = KO_b;
kernRight = KO_i;
lastChange = "2022-01-26 21:02:12 +0000";
layers = (
{
layerId = "2C7DDEC5-850F-4F82-8636-E075FE6DB186";
shapes = (
{
closed = 1;
nodes = (
(281,615,o),
(211,674,o),
(200,645,cs),
(9,120,ls),
(0,94,o),
(70,35,o),
(81,64,cs),
(272,589,ls)
);
},
{
closed = 1;
nodes = (
(624,615,o),
(554,674,o),
(543,645,cs),
(303,-15,ls),
(294,-41,o),
(364,-100,o),
(375,-71,cs),
(615,589,ls)
);
},
{
closed = 1;
nodes = (
(269,623,o),
(195,669,o),
(201,630,cs),
(299,-15,ls),
(304,-50,o),
(378,-94,o),
(373,-55,cs),
(274,590,ls)
);
}
);
width = 526;
}
);
},
{
color = 8;
glyphname = O.ss02;
kernLeft = KO_O;
kernRight = KO_O;
lastChange = "2022-01-26 21:02:12 +0000";
layers = (
{
layerId = "2C7DDEC5-850F-4F82-8636-E075FE6DB186";
shapes = (
{
closed = 1;
nodes = (
(281,488,o),
(214,552,o),
(195,532,cs),
(143,478,o),
(99,408,o),
(70,328,cs),
(15,177,o),
(48,-48,o),
(257,-48,cs),
(389,-48,o),
(550,85,o),
(619,272,cs),
(660,387,o),
(678,655,o),
(451,655,cs),
(319,655,o),
(251,525,o),
(235,372,cs),
(232,343,o),
(305,288,o),
(309,324,cs),
(325,476,o),
(391,585,o),
(499,585,cs),
(536,585,o),
(616,517,o),
(547,328,cs),
(488,165,o),
(341,22,o),
(209,22,cs),
(146,22,o),
(69,73,o),
(142,272,cs),
(170,350,o),
(213,418,o),
(263,470,cs)
);
}
);
width = 630;
}
);
},
{
color = 8;
glyphname = P.ss02;
kernLeft = KO_h;
kernRight = KO_P;
lastChange = "2022-01-26 21:02:12 +0000";
layers = (
{
layerId = "2C7DDEC5-850F-4F82-8636-E075FE6DB186";
shapes = (
{
closed = 1;
nodes = (
(-54,-36,o),
(17,-95,o),
(28,-66,cs),
(256,562,l),
(253,559,o),
(250,557,o),
(247,555,c),
(383,577,ls),
(477,593,o),
(486,557,o),
(470,513,cs),
(433,410,o),
(309,319,o),
(190,274,cs),
(161,262,o),
(230,190,o),
(258,201,cs),
(373,245,o),
(488,330,o),
(532,453,cs),
(590,611,o),
(399,657,o),
(328,646,cs),
(193,623,ls),
(189,622,o),
(185,619,o),
(184,616,cs),
(-44,-11,ls)
);
}
);
width = 477;
}
);
},
{
color = 8;
glyphname = Q.ss02;
kernLeft = KO_O;
lastChange = "2022-01-26 21:02:12 +0000";
layers = (
{
layerId = "2C7DDEC5-850F-4F82-8636-E075FE6DB186";
shapes = (
{
closed = 1;
nodes = (
(275,28,o),
(161,-34,o),
(171,-52,cs),
(223,-147,o),
(325,-247,o),
(487,-247,cs),
(519,-247,o),
(624,-177,o),
(586,-177,cs),
(440,-177,o),
(335,-81,o),
(284,12,cs)
);
},
{
closed = 1;
nodes = (
(380,-43,o),
(541,86,o),
(614,286,cs),
(669,436,o),
(638,660,o),
(434,660,cs),
(300,660,o),
(143,529,o),
(75,342,cs),
(17,182,o),
(39,-43,o),
(252,-43,cs)
);
},
{
closed = 1;
nodes = (
(147,27,o),
(70,74,o),
(147,286,cs),
(206,449,o),
(349,590,o),
(483,590,cs),
(536,590,o),
(615,541,o),
(542,342,cs),
(480,170,o),
(332,27,o),
(204,27,cs)
);
}
);
width = 635;
}
);
},
{
color = 8;
glyphname = R.ss02;
kernLeft = KO_F;
kernRight = KO_R.ss02;
lastChange = "2022-01-26 21:02:12 +0000";
layers = (
{
layerId = "2C7DDEC5-850F-4F82-8636-E075FE6DB186";
shapes = (
{
closed = 1;
nodes = (
(-16,-22,o),
(55,-81,o),
(65,-52,cs),
(272,515,ls),
(281,540,o),
(210,599,o),
(200,570,cs),
(-6,4,ls)
);
},
{
closed = 1;
nodes = (
(326,12,o),
(401,-28,o),
(392,11,cs),
(344,255,ls),
(338,290,o),
(263,333,o),
(272,293,cs),
(320,49,ls)
);
},
{
closed = 1;
nodes = (
(138,612,o),
(199,545,o),
(228,550,cs),
(417,581,ls),
(525,599,o),
(520,540,o),
(516,530,cs),
(465,390,o),
(288,296,o),
(131,257,cs),
(98,249,o),
(159,182,o),
(188,189,cs),
(323,222,o),
(503,302,o),
(559,456,cs),
(629,648,o),
(426,661,o),
(362,650,cs),
(173,618,ls)
);
}
);
width = 503;
}
);
},
{
color = 8;
glyphname = S.ss02;
kernLeft = KO_z;
kernRight = KO_q;
lastChange = "2022-01-26 21:02:12 +0000";
layers = (
{
layerId = "2C7DDEC5-850F-4F82-8636-E075FE6DB186";
shapes = (
{
closed = 1;
nodes = (
(534,634,o),
(464,665,o),
(410,652,cs),
(228,611,o),
(123,469,o),
(176,364,cs),
(231,254,o),
(257,187,o),
(262,144,cs),
(271,74,o),
(243,24,o),
(195,24,cs),
(140,24,o),
(108,60,o),
(88,141,cs),
(84,160,o),
(-30,98,o),
(-25,78,cs),
(-6,-5,o),
(9,-44,o),
(105,-44,cs),
(272,-44,o),
(391,66,o),
(375,205,cs),
(370,251,o),
(344,317,o),
(289,428,cs),
(249,509,o),
(337,590,o),
(477,622,cs)
);
}
);
width = 424;
}
);
},
{
color = 8;
glyphname = T.ss02;
kernLeft = KO_Y;
kernRight = KO_T;
lastChange = "2022-01-26 21:02:12 +0000";
layers = (
{
layerId = "2C7DDEC5-850F-4F82-8636-E075FE6DB186";
shapes = (
{
closed = 1;
nodes = (
(356,562,o),
(286,621,o),
(275,592,cs),
(56,-12,ls),
(46,-38,o),
(117,-97,o),
(127,-68,cs),
(347,536,ls)
);
},
{
closed = 1;
nodes = (
(558,612,o),
(501,681,o),
(469,675,cs),
(176,627,ls),
(141,622,o),
(203,554,o),
(231,559,cs),
(524,607,ls)
);
}
);
width = 410;
}
);
},
{
color = 8;
glyphname = U.ss02;
kernLeft = KO_b;
kernRight = KO_U;
lastChange = "2022-01-26 21:02:12 +0000";
layers = (
{
layerId = "2C7DDEC5-850F-4F82-8636-E075FE6DB186";
shapes = (
{
closed = 1;
nodes = (
(665,648,o),
(595,707,o),
(584,678,cs),
(440,283,ls),
(381,121,o),
(262,4,o),
(149,-14,cs),
(121,-19,o),
(48,-26,o),
(116,161,cs),
(300,668,ls),
(310,694,o),
(239,753,o),
(229,724,cs),
(44,217,ls),
(-6,78,o),
(14,-103,o),
(215,-70,cs),
(332,-50,o),
(453,65,o),
(512,227,cs),
(656,622,ls)
);
}
);
width = 554;
}
);
},
{
color = 8;
glyphname = V.ss02;
kernLeft = KO_V;
kernRight = KO_f;
lastChange = "2022-01-26 21:02:12 +0000";
layers = (
{
layerId = "2C7DDEC5-850F-4F82-8636-E075FE6DB186";
shapes = (
{
closed = 1;
nodes = (
(222,553,o),
(149,605,o),
(148,569,cs),
(133,-9,ls),
(133,-39,o),
(206,-91,o),
(207,-55,cs),
(221,523,ls)
);
},
{
closed = 1;
nodes = (
(123,-30,o),
(191,-92,o),
(207,-68,cs),
(671,658,ls),
(685,680,o),
(617,742,o),
(601,718,cs),
(137,-8,ls)
);
}
);
width = 532;
}
);
},
{
color = 8;
glyphname = W.ss02;
kernLeft = KO_V;
kernRight = KO_V;
lastChange = "2022-01-26 21:02:12 +0000";
layers = (
{
layerId = "2C7DDEC5-850F-4F82-8636-E075FE6DB186";
shapes = (
{
closed = 1;
nodes = (
(225,569,o),
(159,628,o),
(156,590,cs),
(111,-9,ls),
(108,-41,o),
(175,-99,o),
(178,-61,cs),
(223,538,ls)
);
},
{
closed = 1;
nodes = (
(103,-35,o),
(173,-96,o),
(187,-70,cs),
(512,537,ls),
(524,560,o),
(454,621,o),
(441,595,cs),
(116,-12,ls)
);
},
{
closed = 1;
nodes = (
(385,-25,o),
(452,-84,o),
(455,-47,cs),
(514,535,ls),
(517,566,o),
(451,626,o),
(448,589,cs),
(389,7,ls)
);
},
{
closed = 1;
nodes = (
(378,-15,o),
(448,-76,o),
(461,-50,cs),
(871,736,ls),
(883,759,o),
(814,820,o),
(800,794,cs),
(390,8,ls)
);
}
);
width = 703;
}
);
},
{
color = 8;
glyphname = X.ss02;
kernLeft = KO_J.ss01;
kernRight = KO_K.ss01;
lastChange = "2022-01-26 21:02:12 +0000";
layers = (
{
layerId = "2C7DDEC5-850F-4F82-8636-E075FE6DB186";
shapes = (
{
closed = 1;
nodes = (
(264,562,o),
(193,592,o),
(211,547,cs),
(290,349,ls),
(306,310,o),
(377,280,o),
(360,325,cs),
(280,523,ls)
);
},
{
closed = 1;
nodes = (
(-115,-121,o),
(-46,-183,o),
(-28,-163,cs),
(718,637,ls),
(738,657,o),
(669,719,o),
(651,699,cs),
(-95,-101,ls)
);
},
{
closed = 1;
nodes = (
(386,321,o),
(315,351,o),
(333,306,cs),
(422,80,ls),
(437,41,o),
(508,11,o),
(491,56,cs),
(402,282,ls)
);
}
);
width = 587;
}
);
},
{
color = 8;
glyphname = Y.ss02;
kernLeft = KO_V;
kernRight = KO_f;
lastChange = "2022-01-26 21:02:12 +0000";
layers = (
{
layerId = "2C7DDEC5-850F-4F82-8636-E075FE6DB186";
shapes = (
{
closed = 1;
nodes = (
(237,596,o),
(163,647,o),
(164,610,cs),
(166,177,ls),
(166,145,o),
(240,95,o),
(240,131,cs),
(238,565,ls)
);
},
{
closed = 1;
nodes = (
(66,-23,o),
(135,-86,o),
(151,-62,cs),
(626,624,ls),
(641,645,o),
(572,707,o),
(556,684,cs),
(81,-2,ls)
);
}
);
width = 499;
}
);
},
{
color = 8;
glyphname = Z.ss02;
kernRight = KO_Z;
lastChange = "2022-01-26 21:02:12 +0000";
layers = (
{
layerId = "2C7DDEC5-850F-4F82-8636-E075FE6DB186";
shapes = (
{
closed = 1;
nodes = (
(-115,-73,o),
(-52,-129,o),
(-34,-108,cs),
(530,575,ls),
(548,595,o),
(485,652,o),
(467,630,cs),
(-98,-52,ls)
);
},
{
closed = 1;
nodes = (
(365,5,o),
(310,67,o),
(283,58,cs),
(-84,-53,ls),
(-115,-62,o),
(-60,-124,o),
(-33,-115,cs),
(335,-4,ls)
);
},
{
closed = 1;
nodes = (
(591,618,o),
(541,681,o),
(510,676,cs),
(202,625,ls),
(167,619,o),
(223,557,o),
(249,561,cs),
(557,612,ls)
);
}
);
width = 442;
}
);
},
{
color = 5;
glyphname = a;
kernLeft = KO_a;
kernRight = KO_a;
lastChange = "2022-01-27 23:01:51 +0000";
layers = (
{
anchors = (
{
name = bottom;
pos = (166,0);
},
{
name = ogonek;
pos = (354,0);
},
{
name = top;
pos = (325,438);
}
);
layerId = "2C7DDEC5-850F-4F82-8636-E075FE6DB186";
shapes = (
{
closed = 1;
nodes = (
(398,403,o),
(347,473,o),
(311,473,cs),
(196,473,o),
(74,338,o),
(30,218,cs),
(0,135,o),
(-10,-39,o),
(138,-39,cs),
(268,-39,o),
(339,155,o),
(406,339,c),
(371,339,l),
(350,280,o),
(191,39,o),
(112,39,cs),
(109,39,o),
(56,35,o),
(102,162,cs),
(138,262,o),
(243,403,o),
(360,403,cs)
);
},
{
closed = 1;
nodes = (
(499,436,o),
(428,495,o),
(417,466,cs),
(327,218,ls),
(300,144,o),
(297,76,o),
(319,13,cs),
(333,-26,o),
(405,-57,o),
(389,-13,cs),
(373,28,o),
(374,94,o),
(399,162,cs),
(489,410,ls)
);
}
);
width = 491;
}
);
unicode = 97;
userData = {
KernOnName = a;
};
},
{
color = 5;
glyphname = ae;
kernLeft = KO_a;
kernRight = KO_e;
lastChange = "2022-01-26 22:20:03 +0000";
layers = (
{
anchors = (
{
name = top;
pos = (464,438);
}
);
layerId = "2C7DDEC5-850F-4F82-8636-E075FE6DB186";
shapes = (
{
closed = 1;
nodes = (
(344,177,o),
(407,110,o),
(434,115,cs),
(610,145,o),
(700,224,o),
(733,314,cs),
(772,422,o),
(675,478,o),
(601,478,cs),
(508,478,o),
(383,386,o),
(332,247,cs),
(292,137,o),
(289,-40,o),
(466,-40,cs),
(523,-40,o),
(579,-11,o),
(641,41,cs),
(662,58,o),
(596,123,o),
(575,105,cs),
(516,57,o),
(460,30,o),
(417,30,cs),
(398,30,o),
(344,26,o),
(404,191,cs),
(445,304,o),
(557,408,o),
(650,408,cs),
(706,408,o),
(701,375,o),
(698,368,cs),
(677,311,o),
(556,214,o),
(379,183,cs)
);
},
{
closed = 1;
nodes = (
(398,403,o),
(347,473,o),
(311,473,cs),
(197,473,o),
(74,338,o),
(30,218,cs),
(0,135,o),
(-9,-39,o),
(138,-39,cs),
(268,-39,o),
(389,156,o),
(431,272,cs),
(440,297,o),
(378,345,o),
(368,316,cs),
(322,190,o),
(191,39,o),
(112,39,cs),
(109,39,o),
(56,35,o),
(103,162,cs),
(139,262,o),
(243,403,o),
(360,403,cs)
);
}
);
width = 732;
}
);
metricLeft = a;
metricRight = e;
unicode = 230;
},
{
color = 5;
glyphname = b;
kernLeft = KO_b;
kernRight = KO_p;
lastChange = "2022-01-26 22:31:49 +0000";
layers = (
{
layerId = "2C7DDEC5-850F-4F82-8636-E075FE6DB186";
shapes = (
{
closed = 1;
nodes = (
(114,155,l),
(173,318,o),
(252,378,o),
(306,378,cs),
(352,378,o),
(379,333,o),
(357,273,cs),
(294,100,o),
(161,25,o),
(17,25,cs),
(11,25,o),
(6,22,o),
(4,18,cs),
(-2,1,o),
(40,-45,o),
(66,-45,cs),
(217,-45,o),
(360,29,o),
(429,217,cs),
(485,373,o),
(437,479,o),
(352,479,cs),
(273,479,o),
(163,387,o),
(79,155,c)
);
},
{
closed = 1;
nodes = (
(305,681,o),
(261,723,o),
(238,723,cs),
(232,723,o),
(228,721,o),
(226,716,cs),
(15,135,ls),
(7,114,o),
(52,72,o),
(75,72,cs),
(81,72,o),
(85,74,o),
(86,79,cs),
(298,660,ls)
);
}
);
width = 460;
}
);
unicode = 98;
userData = {
KernOnName = b;
};
},
{
color = 5;
glyphname = c;
kernLeft = KO_c;
kernRight = KO_c;
lastChange = "2022-01-27 19:16:12 +0000";
layers = (
{
anchors = (
{
name = bottom;
pos = (148,0);
},
{
name = top;
pos = (307,438);
}
);
layerId = "2C7DDEC5-850F-4F82-8636-E075FE6DB186";
shapes = (
{
closed = 1;
nodes = (
(372,126,o),
(266,104,o),
(252,81,cs),
(215,20,o),
(177,18,o),
(154,18,cs),
(120,18,o),
(69,83,o),
(121,227,cs),
(187,406,o),
(245,406,o),
(267,406,cs),
(325,406,o),
(358,349,o),
(331,275,cs),
(320,246,o),
(423,297,o),
(432,323,cs),
(462,404,o),
(431,470,o),
(354,470,cs),
(172,470,o),
(65,314,o),
(26,207,cs),
(-14,96,o),
(-12,-40,o),
(133,-40,cs),
(236,-40,o),
(314,30,o),
(355,99,cs)
);
}
);
width = 419;
}
);
unicode = 99;
userData = {
KernOnName = c;
};
},
{
color = 5;
glyphname = d;
kernLeft = KO_e;
kernRight = KO_d;
lastChange = "2022-01-26 22:27:00 +0000";
layers = (
{
anchors = (
{
name = caron;
pos = (578,511);
},
{
name = top;
pos = (544,688);
}
);
layerId = "2C7DDEC5-850F-4F82-8636-E075FE6DB186";
shapes = (
{
closed = 1;
nodes = (
(588,681,o),
(543,723,o),
(520,723,cs),
(514,723,o),
(510,721,o),
(508,716,cs),
(327,218,ls),
(300,144,o),
(297,76,o),
(319,13,cs),
(329,-12,o),
(363,-35,o),
(380,-35,cs),
(385,-35,o),
(389,-33,o),
(390,-29,cs),
(392,-25,o),
(392,-20,o),
(389,-13,cs),
(373,28,o),
(374,94,o),
(399,162,cs),
(580,660,ls)
);
},
{
closed = 1;
nodes = (
(369,413,o),
(373,416,o),
(375,420,cs),
(381,437,o),
(343,483,o),
(314,483,cs),
(199,483,o),
(77,348,o),
(33,228,cs),
(-30,54,o),
(8,-41,o),
(86,-41,cs),
(174,-41,o),
(312,80,o),
(410,349,c),
(375,349,l),
(300,144,o),
(197,59,o),
(139,59,cs),
(98,59,o),
(79,101,o),
(104,172,cs),
(141,272,o),
(245,413,o),
(362,413,cs)
);
}
);
width = 490;
}
);
unicode = 100;
userData = {
KernOnName = d;
};
},
{
color = 5;
glyphname = eth;
kernLeft = KO_a;
kernRight = KO_eth;
lastChange = "2022-01-26 22:20:03 +0000";
layers = (
{
layerId = "2C7DDEC5-850F-4F82-8636-E075FE6DB186";
shapes = (
{
closed = 1;
nodes = (
(436,403,o),
(385,473,o),
(349,473,cs),
(212,473,o),
(86,370,o),
(37,237,cs),
(-5,122,o),
(-25,-36,o),
(177,-36,cs),
(299,-36,o),
(429,87,o),
(493,261,cs),
(557,438,o),
(573,623,o),
(460,721,cs),
(448,733,o),
(334,669,o),
(350,655,cs),
(422,593,o),
(473,459,o),
(421,316,cs),
(355,134,o),
(227,16,o),
(148,16,cs),
(132,16,o),
(57,38,o),
(109,181,cs),
(152,300,o),
(265,403,o),
(398,403,cs)
);
},
{
closed = 1;
nodes = (
(638,543,o),
(603,616,o),
(564,610,cs),
(277,572,ls),
(238,567,o),
(273,495,o),
(311,500,cs),
(599,538,ls)
);
}
);
width = 504;
}
);
unicode = 240;
},
{
color = 5;
glyphname = dcroat;
kernLeft = KO_e;
kernRight = KO_d;
lastChange = "2022-01-26 22:20:03 +0000";
layers = (
{
layerId = "2C7DDEC5-850F-4F82-8636-E075FE6DB186";
shapes = (
{
closed = 1;
nodes = (
(622,530,o),
(588,602,o),
(551,602,cs),
(286,602,ls),
(243,602,o),
(277,530,o),
(314,530,cs),
(579,530,ls)
);
},
{
closed = 1;
nodes = (
(590,686,o),
(519,745,o),
(508,716,cs),
(258,28,ls),
(249,3,o),
(319,-56,o),
(330,-27,cs),
(580,660,ls)
);
},
{
closed = 1;
nodes = (
(400,413,o),
(350,483,o),
(314,483,cs),
(199,483,o),
(76,348,o),
(33,228,cs),
(-101,-141,o),
(225,-159,o),
(410,349,c),
(375,349,l),
(248,1,o),
(41,-1,o),
(104,172,cs),
(141,272,o),
(245,413,o),
(362,413,cs)
);
}
);
width = 491;
}
);
metricLeft = d;
metricRight = d;
unicode = 273;
},
{
color = 5;
glyphname = e;
kernLeft = KO_e;
kernRight = KO_e;
lastChange = "2022-01-26 22:28:08 +0000";
layers = (
{
anchors = (
{
name = bottom;
pos = (133,0);
},
{
name = ogonek;
pos = (133,0);
},
{
name = top;
pos = (301,438);
}
);
layerId = "2C7DDEC5-850F-4F82-8636-E075FE6DB186";
shapes = (
{
closed = 1;
nodes = (
(45,177,o),
(107,110,o),
(134,115,cs),
(311,145,o),
(402,224,o),
(436,314,cs),
(478,422,o),
(382,478,o),
(308,478,cs),
(215,478,o),
(88,386,o),
(35,247,cs),
(-7,137,o),
(-14,-40,o),
(163,-40,cs),
(221,-40,o),
(277,-11,o),
(340,41,cs),
(361,58,o),
(296,123,o),
(275,105,cs),
(216,57,o),
(158,30,o),
(115,30,cs),
(97,30,o),
(42,26,o),
(105,191,cs),
(149,304,o),
(264,408,o),
(356,408,cs),
(412,408,o),
(406,375,o),
(403,368,cs),
(381,311,o),
(258,214,o),
(80,183,cs)
);
}
);
width = 431;
}
);
unicode = 101;
userData = {
KernOnName = e;
};
},
{
color = 5;
glyphname = schwa;
kernLeft = KO_r;
kernRight = KO_o;
lastChange = "2022-01-26 22:28:18 +0000";
layers = (
{
layerId = "2C7DDEC5-850F-4F82-8636-E075FE6DB186";
shapes = (
{
closed = 1;
nodes = (
(385,260,o),
(328,329,o),
(297,323,cs),
(120,293,o),
(29,214,o),
(-5,124,cs),
(-47,16,o),
(49,-40,o),
(123,-40,cs),
(216,-40,o),
(343,52,o),
(396,191,cs),
(438,301,o),
(445,478,o),
(268,478,cs),
(211,478,o),
(155,449,o),
(91,397,cs),
(71,380,o),
(135,315,o),
(157,333,cs),
(215,381,o),
(273,408,o),
(316,408,cs),
(335,408,o),
(389,412,o),
(326,247,cs),
(282,134,o),
(168,30,o),
(75,30,cs),
(19,30,o),
(25,63,o),
(28,70,cs),
(50,127,o),
(173,224,o),
(351,255,cs)
);
}
);
width = 431;
}
);
unicode = 601;
},
{
color = 5;
glyphname = f;
kernLeft = KO_f;
kernRight = KO_f;
lastChange = "2022-01-26 22:31:02 +0000";
layers = (
{
layerId = "2C7DDEC5-850F-4F82-8636-E075FE6DB186";
shapes = (
{
closed = 1;
nodes = (
(406,403,o),
(355,473,o),
(319,473,cs),
(138,473,ls),
(99,473,o),
(155,403,o),
(187,403,cs),
(368,403,ls)
);
},
{
closed = 1;
nodes = (
(31,2,o),
(101,-57,o),
(112,-28,cs),
(307,509,ls),
(331,574,o),
(385,653,o),
(478,653,cs),
(516,653,o),
(465,723,o),
(429,723,cs),
(330,723,o),
(264,642,o),
(236,565,cs),
(40,28,ls)
);
}
);
width = 350;
}
);
unicode = 102;
userData = {
KernOnName = f;
};
},
{
color = 5;
glyphname = g;
kernLeft = KO_e;
kernRight = KO_u;
lastChange = "2022-01-26 22:27:00 +0000";
layers = (
{
anchors = (
{
name = top;
pos = (328,438);
}
);
layerId = "2C7DDEC5-850F-4F82-8636-E075FE6DB186";
shapes = (
{
closed = 1;
nodes = (
(411,439,l),
(368,464,o),
(327,474,o),
(290,474,cs),
(148,474,o),
(66,317,o),
(35,233,cs),
(9,161,o),
(-60,-34,o),
(124,-34,cs),
(247,-34,o),
(320,75,o),
(393,275,c),
(343,275,l),
(264,59,o),
(148,26,o),
(108,26,cs),
(77,26,o),
(76,92,o),
(107,177,cs),
(147,287,o),
(233,405,o),
(338,405,cs),
(363,405,o),
(390,398,o),
(417,383,c)
);
},
{
closed = 1;
nodes = (
(492,431,o),
(447,474,o),
(424,474,cs),
(418,474,o),
(414,471,o),
(412,466,cs),
(243,2,ls),
(212,-85,o),
(163,-133,o),
(110,-133,cs),
(88,-133,o),
(66,-124,o),
(42,-106,cs),
(30,-96,o),
(-31,-155,o),
(-40,-181,cs),
(-42,-186,o),
(-41,-190,o),
(-39,-192,cs),
(-2,-222,o),
(42,-236,o),
(85,-236,cs),
(178,-236,o),
(272,-171,o),
(315,-54,cs),
(484,410,ls)
);
}
);
width = 454;
}
);
unicode = 103;
userData = {
KernOnName = g;
};
},
{
color = 5;
glyphname = h;
kernLeft = KO_h;
kernRight = KO_n;
lastChange = "2022-01-26 22:29:38 +0000";
layers = (
{
anchors = (
{
name = top;
pos = (257,688);
}
);
layerId = "2C7DDEC5-850F-4F82-8636-E075FE6DB186";
shapes = (
{
closed = 1;
nodes = (
(95,117,l),
(163,302,o),
(259,377,o),
(315,377,cs),
(352,377,o),
(371,343,o),
(350,284,cs),
(257,29,ls),
(250,8,o),
(294,-35,o),
(317,-35,cs),
(323,-35,o),
(327,-32,o),
(329,-27,cs),
(442,284,ls),
(486,404,o),
(457,479,o),
(368,479,cs),
(283,479,o),
(150,365,o),
(60,117,c)
);
},
{
closed = 1;
nodes = (
(-36,8,o),
(8,-35,o),
(31,-35,cs),
(37,-35,o),
(41,-32,o),
(43,-27,cs),
(293,660,ls),
(300,681,o),
(256,724,o),
(233,724,cs),
(227,724,o),
(223,721,o),
(221,716,cs),
(-29,29,ls)
);
}
);
width = 454;
}
);
unicode = 104;
userData = {
KernOnName = h;
};
},
{
color = 5;
glyphname = hbar;
kernRight = KO_n;
lastChange = "2022-01-26 22:25:36 +0000";
layers = (
{
layerId = "2C7DDEC5-850F-4F82-8636-E075FE6DB186";
shapes = (
{
closed = 1;
nodes = (
(94,128,l),
(162,315,o),
(259,384,o),
(317,384,cs),
(358,384,o),
(380,351,o),
(361,300,cs),
(264,33,ls),
(255,10,o),
(292,-42,o),
(312,-42,cs),
(316,-42,o),
(320,-39,o),
(322,-33,cs),
(443,300,ls),
(486,419,o),
(458,493,o),
(370,493,cs),
(284,493,o),
(149,375,o),
(59,128,c)
);
},
{
closed = 1;
nodes = (
(294,677,o),
(258,730,o),
(238,730,cs),
(234,730,o),
(230,727,o),
(228,721,cs),
(-22,33,ls),
(-31,10,o),
(6,-42,o),
(26,-42,cs),
(30,-42,o),
(34,-39,o),
(36,-33,cs),
(286,655,ls)
);
},
{
closed = 1;
nodes = (
(85,614,o),
(141,544,o),
(173,544,cs),
(429,544,ls),
(467,544,o),
(416,614,o),
(380,614,cs),
(124,614,ls)
);
}
);
width = 449;
}
);
metricRight = h;
unicode = 295;
},
{
color = 5;
glyphname = i;
kernLeft = KO_i;
kernRight = KO_i;
lastChange = "2022-01-26 22:33:41 +0000";
layers = (
{
layerId = "2C7DDEC5-850F-4F82-8636-E075FE6DB186";
shapes = (
{
closed = 1;
nodes = (
(-32,2,o),
(38,-57,o),
(49,-28,cs),
(208,410,ls),
(218,436,o),
(147,495,o),
(137,466,cs),
(-23,28,ls)
);
},
{
closed = 1;
nodes = (
(173,569,o),
(244,510,o),
(254,539,cs),
(276,599,ls),
(285,625,o),
(215,684,o),
(204,655,cs),
(182,595,ls)
);
}
);
width = 184;
}
);
unicode = 105;
userData = {
KernOnName = i;
};
},
{
color = 5;
glyphname = idotless;
kernLeft = KO_r;
kernRight = KO_c;
lastChange = "2022-01-26 22:20:03 +0000";
layers = (
{
anchors = (
{
name = ogonek;
pos = (11,0);
},
{
name = top;
pos = (171,438);
}
);
layerId = "2C7DDEC5-850F-4F82-8636-E075FE6DB186";
shapes = (
{
closed = 1;
nodes = (
(-34,2,o),
(37,-57,o),
(47,-28,cs),
(207,410,ls),
(216,436,o),
(145,495,o),
(135,466,cs),
(-25,28,ls)
);
}
);
width = 182;
}
);
unicode = 305;
},
{
color = 5;
glyphname = ij;
kernLeft = KO_i;
kernRight = KO_i;
lastChange = "2022-01-26 22:20:03 +0000";
layers = (
{
layerId = "2C7DDEC5-850F-4F82-8636-E075FE6DB186";
shapes = (
{
closed = 1;
nodes = (
(-4,82,o),
(66,23,o),
(77,52,cs),
(207,410,ls),
(216,436,o),
(146,495,o),
(135,466,cs),
(5,108,ls)
);
},
{
closed = 1;
nodes = (
(173,569,o),
(243,510,o),
(254,539,cs),
(276,599,ls),
(285,625,o),
(215,684,o),
(204,655,cs),
(182,595,ls)
);
},
{
closed = 1;
nodes = (
(425,436,o),
(355,495,o),
(344,466,cs),
(149,-72,ls),
(96,-216,o),
(-3,-201,o),
(23,-128,cs),
(33,-102,o),
(-38,-43,o),
(-48,-72,cs),
(-131,-299,o),
(163,-284,o),
(220,-128,cs),
(416,410,ls)
);
},
{
closed = 1;
nodes = (
(382,569,o),
(452,510,o),
(463,539,cs),
(485,599,ls),
(494,625,o),
(424,684,o),
(413,655,cs),
(391,595,ls)
);
}
);
width = 392;
}
);
unicode = 307;
},
{
color = 5;
glyphname = j;
kernLeft = KO_j;
kernRight = KO_j;
lastChange = "2022-01-26 22:31:17 +0000";
layers = (
{
layerId = "2C7DDEC5-850F-4F82-8636-E075FE6DB186";
shapes = (
{
closed = 1;
nodes = (
(212,436,o),
(141,495,o),
(131,466,cs),
(-71,-90,ls),
(-82,-118,o),
(-97,-158,o),
(-150,-178,cs),
(-180,-189,o),
(-118,-256,o),
(-91,-246,cs),
(-28,-222,o),
(-11,-176,o),
(0,-146,cs),
(203,410,ls)
);
},
{
closed = 1;
nodes = (
(166,569,o),
(237,510,o),
(248,539,cs),
(269,599,ls),
(279,625,o),
(208,684,o),
(198,655,cs),
(176,595,ls)
);
}
);
width = 168;
}
);
unicode = 106;
userData = {
KernOnName = j;
};
},
{
color = 5;
glyphname = jdotless;
lastChange = "2022-01-26 22:20:03 +0000";
layers = (
{
anchors = (
{
name = top;
pos = (167,438);
}
);
layerId = "2C7DDEC5-850F-4F82-8636-E075FE6DB186";
shapes = (
{
closed = 1;
nodes = (
(212,436,o),
(142,495,o),
(131,466,cs),
(-71,-90,ls),
(-81,-118,o),
(-97,-158,o),
(-150,-178,cs),
(-180,-189,o),
(-117,-256,o),
(-91,-246,cs),
(-28,-222,o),
(-10,-176,o),
(1,-146,cs),
(203,410,ls)
);
}
);
width = 169;
}
);
unicode = 567;
},
{
color = 5;
glyphname = k;
kernLeft = KO_h;
kernRight = KO_k;
lastChange = "2022-01-26 22:27:00 +0000";
layers = (
{
anchors = (
{
name = bottom;
pos = (132,0);
}
);
layerId = "2C7DDEC5-850F-4F82-8636-E075FE6DB186";
shapes = (
{
closed = 1;
nodes = (
(302,686,o),
(232,745,o),
(221,716,cs),
(-29,28,ls),
(-38,2,o),
(32,-57,o),
(43,-28,cs),
(293,660,ls)
);
},
{
closed = 1;
nodes = (
(447,432,o),
(378,494,o),
(365,467,cs),
(325,386,o),
(239,291,o),
(92,265,cs),
(57,259,o),
(120,192,o),
(147,197,cs),
(309,225,o),
(395,324,o),
(436,409,cs)
);
},
{
closed = 1;
nodes = (
(239,270,o),
(165,312,o),
(173,272,cs),
(219,19,ls),
(225,-18,o),
(298,-59,o),
(291,-19,cs),
(245,234,ls)
);
}
);
width = 401;
}
);
unicode = 107;
userData = {
KernOnName = k;
};
},
{
color = 5;
glyphname = kgreenlandic;
kernLeft = KO_n;
kernRight = KO_k.ss02;
lastChange = "2022-01-26 22:24:38 +0000";
layers = (
{
layerId = "2C7DDEC5-850F-4F82-8636-E075FE6DB186";
shapes = (
{
closed = 1;
nodes = (
(211,436,o),
(140,495,o),
(130,466,cs),
(-30,28,ls),
(-39,2,o),
(32,-57,o),
(42,-28,cs),
(202,410,ls)
);
},
{
closed = 1;
nodes = (
(493,426,o),
(425,489,o),
(407,469,cs),
(293,349,o),
(176,267,o),
(64,215,cs),
(36,203,o),
(99,137,o),
(126,149,cs),
(240,201,o),
(359,285,o),
(474,407,cs)
);
},
{
closed = 1;
nodes = (
(264,268,o),
(191,307,o),
(202,265,cs),
(264,17,ls),
(275,-21,o),
(347,-58,o),
(336,-17,cs),
(273,231,ls)
);
}
);
width = 457;
}
);
unicode = 312;
},
{
color = 5;
glyphname = l;
kernLeft = KO_l;
kernRight = KO_l;
lastChange = "2022-01-26 22:27:00 +0000";
layers = (
{
anchors = (
{
name = bottom;
pos = (5,0);
},
{
name = caron;
pos = (302,500);
},
{
name = dot_center;
pos = (177,342);
},
{
name = top;
pos = (254,688);
}
);
layerId = "2C7DDEC5-850F-4F82-8636-E075FE6DB186";
shapes = (
{
closed = 1;
nodes = (
(301,681,o),
(256,723,o),
(233,723,cs),
(227,723,o),
(223,721,o),
(221,716,cs),
(18,156,ls),
(-23,44,o),
(-5,-35,o),
(62,-35,cs),
(67,-35,o),
(71,-33,o),
(72,-29,cs),
(73,-26,o),
(58,13,o),
(91,104,cs),
(293,660,ls)
);
}
);
width = 177;
}
);
unicode = 108;
userData = {
KernOnName = l;
};
},
{
color = 5;
glyphname = lslash;
lastChange = "2022-01-26 22:20:03 +0000";
layers = (
{
layerId = "2C7DDEC5-850F-4F82-8636-E075FE6DB186";
shapes = (
{
closed = 1;
nodes = (
(28,379,o),
(77,323,o),
(103,331,cs),
(236,373,ls),
(266,383,o),
(220,440,o),
(192,431,cs),
(58,389,ls)
);
},
{
closed = 1;
nodes = (
(304,686,o),
(234,745,o),
(223,716,cs),
(21,160,ls),
(14,142,o),
(-10,78,o),
(2,19,cs),
(8,-18,o),
(83,-58,o),
(74,-19,cs),
(66,22,o),
(87,90,o),
(92,104,cs),
(295,660,ls)
);
}
);
width = 176;
}
);
unicode = 322;
},
{
color = 5;
glyphname = m;
kernLeft = KO_n;
kernRight = KO_n;
lastChange = "2022-01-26 22:33:12 +0000";
layers = (
{
layerId = "2C7DDEC5-850F-4F82-8636-E075FE6DB186";
shapes = (
{
closed = 1;
nodes = (
(96,119,l),
(163,304,o),
(248,381,o),
(293,381,cs),
(324,381,o),
(336,346,o),
(314,286,cs),
(221,28,ls),
(213,7,o),
(257,-36,o),
(280,-36,cs),
(286,-36,o),
(290,-33,o),
(292,-28,cs),
(386,230,ls),
(444,390,o),
(414,479,o),
(348,479,cs),
(273,479,o),
(152,367,o),
(62,119,c)
);
},
{
closed = 1;
nodes = (
(209,431,o),
(165,474,o),
(142,474,cs),
(136,474,o),
(132,471,o),
(130,466,cs),
(-29,28,ls),
(-37,7,o),
(7,-36,o),
(30,-36,cs),
(36,-36,o),
(40,-33,o),
(42,-28,cs),
(202,410,ls)
);
},
{
closed = 1;
nodes = (
(346,119,l),
(413,304,o),
(497,381,o),
(543,381,cs),
(573,381,o),
(585,346,o),
(563,286,cs),
(470,28,ls),
(462,7,o),
(506,-36,o),
(529,-36,cs),
(535,-36,o),
(539,-33,o),
(541,-28,cs),
(635,230,ls),
(693,390,o),
(663,479,o),
(597,479,cs),
(522,479,o),
(401,367,o),
(311,119,c)
);
}
);
width = 666;
}
);
unicode = 109;
userData = {
KernOnName = m;
};
},
{
color = 5;
glyphname = n;
kernLeft = KO_n;
kernRight = KO_n;
lastChange = "2022-01-26 22:34:40 +0000";
layers = (
{
anchors = (
{
name = bottom;
pos = (161,0);
},
{
name = top;
pos = (321,438);
}
);
layerId = "2C7DDEC5-850F-4F82-8636-E075FE6DB186";
shapes = (
{
closed = 1;
nodes = (
(95,117,l),
(162,302,o),
(258,377,o),
(314,377,cs),
(351,377,o),
(371,343,o),
(350,284,cs),
(257,29,ls),
(249,8,o),
(293,-35,o),
(316,-35,cs),
(322,-35,o),
(327,-32,o),
(328,-27,cs),
(442,284,ls),
(485,404,o),
(457,479,o),
(368,479,cs),
(283,479,o),
(150,365,o),
(60,117,c)
);
},
{
closed = 1;
nodes = (
(-37,8,o),
(7,-35,o),
(30,-35,cs),
(36,-35,o),
(41,-32,o),
(42,-27,cs),
(202,411,ls),
(209,432,o),
(165,475,o),
(142,475,cs),
(136,475,o),
(132,472,o),
(130,467,cs),
(-29,29,ls)
);
}
);
width = 453;
}
);
unicode = 110;
userData = {
KernOnName = n;
};
},
{
color = 5;
glyphname = eng;
kernLeft = KO_r;
kernRight = KO_n;
lastChange = "2022-01-26 22:24:57 +0000";
layers = (
{
layerId = "2C7DDEC5-850F-4F82-8636-E075FE6DB186";
shapes = (
{
closed = 1;
nodes = (
(96,117,l),
(167,302,o),
(265,377,o),
(321,377,cs),
(358,377,o),
(377,343,o),
(355,284,cs),
(211,-90,ls),
(200,-118,o),
(184,-158,o),
(130,-178,cs),
(127,-179,o),
(124,-182,o),
(122,-185,cs),
(115,-205,o),
(165,-255,o),
(188,-246,cs),
(251,-222,o),
(270,-176,o),
(281,-146,cs),
(425,228,ls),
(487,390,o),
(451,479,o),
(376,479,cs),
(292,479,o),
(158,365,o),
(62,117,c)
);
},
{
closed = 1;
nodes = (
(217,431,o),
(173,474,o),
(150,474,cs),
(144,474,o),
(140,471,o),
(138,466,cs),
(-30,28,ls),
(-38,7,o),
(6,-36,o),
(29,-36,cs),
(35,-36,o),
(39,-33,o),
(41,-28,cs),
(209,410,ls)
);
}
);
width = 457;
}
);
metricLeft = n;
metricRight = j;
unicode = 331;
},
{
color = 5;
glyphname = o;
kernLeft = KO_o;
kernRight = KO_o;
lastChange = "2022-01-27 22:50:14 +0000";
layers = (
{
anchors = (
{
name = bottom;
pos = (161,0);
},
{
name = ogonek;
pos = (161,0);
},
{
name = top;
pos = (321,438);
},
{
name = topright;
pos = (460,428);
}
);
layerId = "2C7DDEC5-850F-4F82-8636-E075FE6DB186";
shapes = (
{
closed = 1;
nodes = (
(302,-40,o),
(395,48,o),
(447,191,cs),
(491,312,o),
(466,479,o),
(298,479,cs),
(180,479,o),
(87,390,o),
(35,247,cs),
(-9,126,o),
(16,-40,o),
(184,-40,cs)
);
},
{
closed = 1;
nodes = (
(82,30,o),
(71,92,o),
(107,191,cs),
(155,325,o),
(248,409,o),
(347,409,cs),
(400,409,o),
(411,347,o),
(375,247,cs),
(327,114,o),
(234,30,o),
(135,30,cs)
);
}
);
width = 482;
}
);
unicode = 111;
userData = {
KernOnName = o;
};
},
{
color = 5;
glyphname = oslash;
kernLeft = KO_o;
kernRight = KO_a.ss01;
lastChange = "2022-01-26 22:27:56 +0000";
layers = (
{
anchors = (
{
name = top;
pos = (324,444);
}
);
layerId = "2C7DDEC5-850F-4F82-8636-E075FE6DB186";
shapes = (
{
closed = 1;
nodes = (
(-51,8,o),
(4,-43,o),
(24,-26,cs),
(513,411,ls),
(533,429,o),
(480,482,o),
(459,464,cs),
(-30,27,ls)
);
},
{
closed = 1;
nodes = (
(289,-40,o),
(392,38,o),
(448,191,cs),
(492,312,o),
(467,479,o),
(298,479,cs),
(194,479,o),
(91,400,o),
(35,247,cs),
(-9,126,o),
(18,-40,o),
(185,-40,cs)
);
},
{
closed = 1;
nodes = (
(94,30,o),
(49,31,o),
(108,191,cs),
(155,320,o),
(244,409,o),
(348,409,cs),
(387,409,o),
(433,407,o),
(375,247,cs),
(328,118,o),
(239,30,o),
(135,30,cs)
);
}
);
width = 483;
}
);
metricLeft = o;
metricRight = o;
unicode = 248;
},
{
color = 5;
glyphname = oe;
kernLeft = KO_o;
kernRight = KO_e;
lastChange = "2022-01-26 22:27:58 +0000";
layers = (
{
layerId = "2C7DDEC5-850F-4F82-8636-E075FE6DB186";
shapes = (
{
closed = 1;
nodes = (
(289,-40,o),
(391,38,o),
(447,191,cs),
(491,312,o),
(466,479,o),
(298,479,cs),
(193,479,o),
(91,400,o),
(35,247,cs),
(-9,126,o),
(17,-40,o),
(184,-40,cs)
);
},
{
closed = 1;
nodes = (
(94,30,o),
(48,31,o),
(107,191,cs),
(154,320,o),
(244,409,o),
(347,409,cs),
(386,409,o),
(433,407,o),
(375,247,cs),
(328,118,o),
(238,30,o),
(135,30,cs)
);
},
{
closed = 1;
nodes = (
(388,177,o),
(450,110,o),
(478,115,cs),
(654,145,o),
(744,224,o),
(776,314,cs),
(816,422,o),
(719,478,o),
(645,478,cs),
(552,478,o),
(427,386,o),
(376,247,cs),
(336,137,o),
(333,-40,o),
(510,-40,cs),
(567,-40,o),
(622,-11,o),
(685,41,cs),
(705,58,o),
(640,123,o),
(618,105,cs),
(561,57,o),
(504,30,o),
(461,30,cs),
(442,30,o),
(388,26,o),
(448,191,cs),
(489,304,o),
(601,408,o),
(694,408,cs),
(750,408,o),
(745,375,o),
(742,368,cs),
(721,311,o),
(600,214,o),
(423,183,cs)
);
}
);
width = 776;
}
);
metricLeft = o;
metricRight = e;
unicode = 339;
},
{
color = 5;
glyphname = p;
kernLeft = KO_p;
kernRight = KO_p;
lastChange = "2022-01-26 22:30:54 +0000";
layers = (
{
layerId = "2C7DDEC5-850F-4F82-8636-E075FE6DB186";
shapes = (
{
closed = 1;
nodes = (
(95,25,o),
(90,22,o),
(88,18,cs),
(82,1,o),
(124,-45,o),
(150,-45,cs),
(265,-45,o),
(388,90,o),
(431,210,cs),
(495,384,o),
(456,479,o),
(378,479,cs),
(257,479,o),
(150,350,o),
(55,89,c),
(90,89,l),
(165,294,o),
(266,379,o),
(325,379,cs),
(366,379,o),
(385,337,o),
(360,266,cs),
(323,166,o),
(219,25,o),
(102,25,cs)
);
},
{
closed = 1;
nodes = (
(215,431,o),
(170,473,o),
(147,473,cs),
(141,473,o),
(137,471,o),
(135,466,cs),
(-101,-184,ls),
(-109,-205,o),
(-64,-247,o),
(-41,-247,cs),
(-35,-247,o),
(-31,-245,o),
(-30,-240,cs),
(207,410,ls)
);
}
);
width = 464;
}
);
unicode = 112;
userData = {
KernOnName = p;
};
},
{
color = 5;
glyphname = thorn;
kernRight = KO_p;
lastChange = "2022-01-26 22:20:03 +0000";
layers = (
{
layerId = "2C7DDEC5-850F-4F82-8636-E075FE6DB186";
shapes = (
{
closed = 1;
nodes = (
(94,25,o),
(89,22,o),
(88,18,cs),
(82,1,o),
(124,-45,o),
(150,-45,cs),
(265,-45,o),
(387,90,o),
(431,210,cs),
(494,384,o),
(456,479,o),
(378,479,cs),
(257,479,o),
(150,350,o),
(55,89,c,{
"Letterink-NibData" = {
AngleInDegrees = "-55";
MainAxisWidth = "-50";
ValidForParentMainAxisWidth = "120";
};
}),
(90,89,l),
(164,294,o),
(266,379,o),
(324,379,cs),
(365,379,o),
(385,337,o),
(359,266,cs),
(323,166,o),
(218,25,o),
(101,25,cs)
);
},
{
closed = 1;
nodes = (
(305,681,o),
(261,723,o),
(238,723,cs),
(232,723,o),
(228,721,o),
(226,716,cs),
(-102,-184,ls),
(-109,-205,o),
(-65,-247,o),
(-42,-247,cs),
(-36,-247,o),
(-32,-245,o),
(-30,-240,cs),
(298,660,ls)
);
}
);
width = 464;
}
);
metricLeft = p;
metricRight = p;
unicode = 254;
},
{
color = 5;
glyphname = q;
kernLeft = KO_e;
kernRight = KO_q;
lastChange = "2022-01-26 22:20:03 +0000";
layers = (
{
layerId = "2C7DDEC5-850F-4F82-8636-E075FE6DB186";
shapes = (
{
closed = 1;
nodes = (
(344,279,l),
(285,116,o),
(205,56,o),
(151,56,cs),
(105,56,o),
(79,101,o),
(100,161,cs),
(163,334,o),
(297,409,o),
(441,409,cs),
(447,409,o),
(451,412,o),
(452,416,cs),
(458,433,o),
(420,479,o),
(391,479,cs),
(240,479,o),
(97,405,o),
(29,217,cs),
(-28,61,o),
(20,-45,o),
(105,-45,cs),
(184,-45,o),
(295,47,o),
(379,279,c)
);
},
{
closed = 1;
nodes = (
(450,320,o),
(406,362,o),
(383,362,cs),
(377,362,o),
(373,360,o),
(371,355,cs),
(175,-184,ls),
(167,-205,o),
(212,-247,o),
(235,-247,cs),
(241,-247,o),
(245,-245,o),
(246,-240,cs),
(443,299,ls)
);
}
);
width = 459;
}
);
unicode = 113;
},
{
color = 5;
glyphname = r;
kernLeft = KO_r;
kernRight = KO_r;
lastChange = "2022-01-26 22:34:33 +0000";
layers = (
{
anchors = (
{
name = bottom;
pos = (116,0);
},
{
name = top;
pos = (276,438);
}
);
layerId = "2C7DDEC5-850F-4F82-8636-E075FE6DB186";
shapes = (
{
closed = 1;
nodes = (
(216,436,o),
(145,495,o),
(135,466,cs),
(-25,28,ls),
(-34,2,o),
(37,-57,o),
(47,-28,cs),
(207,410,ls)
);
},
{
closed = 1;
nodes = (
(436,422,o),
(378,482,o),
(354,468,cs),
(213,391,o),
(84,166,o),
(23,0,c),
(57,0,l),
(116,161,o),
(271,331,o),
(410,408,cs)
);
}
);
width = 365;
}
);
unicode = 114;
userData = {
KernOnName = r;
};
},
{
color = 5;
glyphname = s;
kernLeft = KO_s;
kernRight = KO_s;
lastChange = "2022-01-26 22:27:00 +0000";
layers = (
{
anchors = (
{
name = bottom;
pos = (133,0);
},
{
name = top;
pos = (292,438);
}
);
layerId = "2C7DDEC5-850F-4F82-8636-E075FE6DB186";
shapes = (
{
closed = 1;
nodes = (
(306,277,o),
(400,325,o),
(401,348,cs),
(406,415,o),
(381,462,o),
(296,462,cs),
(208,462,o),
(133,385,o),
(111,326,cs),
(60,185,o),
(265,153,o),
(232,61,cs),
(219,26,o),
(191,20,o),
(169,20,cs),
(136,20,o),
(92,60,o),
(75,137,cs),
(72,157,o),
(-22,106,o),
(-17,87,cs),
(1,2,o),
(35,-20,o),
(122,-20,cs),
(212,-20,o),
(298,34,o),
(323,103,cs),
(364,215,o),
(158,245,o),
(203,368,cs),
(220,415,o),
(251,414,o),
(256,414,cs),
(273,414,o),
(312,376,o),
(308,300,cs)
);
}
);
width = 395;
}
);
unicode = 115;
userData = {
KernOnName = s;
};
},
{
color = 5;
glyphname = germandbls;
kernLeft = KO_f;
kernRight = KO_c;
lastChange = "2022-01-26 22:20:03 +0000";
layers = (
{
layerId = "2C7DDEC5-850F-4F82-8636-E075FE6DB186";
shapes = (
{
closed = 1;
nodes = (
(36,2,o),
(107,-57,o),
(117,-28,cs),
(313,509,ls),
(342,589,o),
(411,654,o),
(482,654,cs),
(516,654,o),
(537,632,o),
(508,551,cs),
(474,457,o),
(380,402,o),
(313,402,cs),
(274,402,o),
(329,332,o),
(361,332,cs),
(462,332,o),
(529,395,o),
(566,497,cs),
(603,598,o),
(564,724,o),
(434,724,cs),
(357,724,o),
(277,663,o),
(241,565,cs),
(46,28,ls)
);
},
{
closed = 1;
nodes = (
(99,473,o),
(154,403,o),
(186,403,cs),
(256,403,ls),
(294,403,o),
(244,473,o),
(208,473,cs),
(138,473,ls)
);
},
{
closed = 1;
nodes = (
(263,402,o),
(318,332,o),
(350,332,cs),
(441,332,o),
(451,277,o),
(431,221,cs),
(397,127,o),
(282,25,o),
(196,25,cs),
(157,25,o),
(212,-45,o),
(244,-45,cs),
(339,-45,o),
(440,33,o),
(489,167,cs),
(538,300,o),
(429,402,o),
(302,402,cs)
);
}
);
width = 538;
}
);
metricLeft = f;
unicode = 223;
},
{
color = 5;
glyphname = t;
kernLeft = KO_t;
kernRight = KO_t;
lastChange = "2022-01-26 22:33:20 +0000";
layers = (
{
anchors = (
{
name = bottom;
pos = (92,0);
},
{
name = caron;
pos = (359,438);
},
{
name = top;
pos = (279,594);
}
);
layerId = "2C7DDEC5-850F-4F82-8636-E075FE6DB186";
shapes = (
{
closed = 1;
nodes = (
(324,592,o),
(254,651,o),
(243,622,cs),
(75,160,ls),
(68,142,o),
(44,78,o),
(56,19,cs),
(62,-18,o),
(137,-58,o),
(128,-19,cs),
(120,22,o),
(142,90,o),
(147,104,cs),
(315,566,ls)
);
},
{
closed = 1;
nodes = (
(94,473,o),
(149,403,o),
(181,403,cs),
(374,403,ls),
(412,403,o),
(362,473,o),
(326,473,cs),
(133,473,ls)
);
}
);
width = 332;
}
);
unicode = 116;
userData = {
KernOnName = t;
};
},
{
color = 5;
glyphname = tbar;
kernLeft = KO_F;
kernRight = KO_O;
lastChange = "2022-01-26 22:20:03 +0000";
layers = (
{
layerId = "2C7DDEC5-850F-4F82-8636-E075FE6DB186";
shapes = (
{
closed = 1;
nodes = (
(324,592,o),
(254,651,o),
(243,622,cs),
(75,160,ls),
(68,142,o),
(44,78,o),
(56,19,cs),
(62,-18,o),
(137,-58,o),
(128,-19,cs),
(120,22,o),
(142,90,o),
(147,104,cs),
(315,566,ls)
);
},
{
closed = 1;
nodes = (
(94,473,o),
(149,403,o),
(181,403,cs),
(374,403,ls),
(412,403,o),
(362,473,o),
(326,473,cs),
(133,473,ls)
);
},
{
closed = 1;
nodes = (
(25,283,o),
(80,213,o),
(112,213,cs),
(305,213,ls),
(343,213,o),
(293,283,o),
(257,283,cs),
(64,283,ls)
);
}
);
width = 333;
}
);
metricLeft = t;
metricRight = t;
unicode = 359;
},
{
color = 5;
glyphname = u;
kernLeft = KO_u;
kernRight = KO_u;
lastChange = "2022-01-27 22:51:12 +0000";
layers = (
{
anchors = (
{
name = bottom;
pos = (144,0);
},
{
name = ogonek;
pos = (288,0);
},
{
name = top;
pos = (303,438);
},
{
name = topright;
pos = (520,438);
}
);
layerId = "2C7DDEC5-850F-4F82-8636-E075FE6DB186";
shapes = (
{
closed = 1;
nodes = (
(359,322,l),
(292,137,o),
(196,62,o),
(140,62,cs),
(103,62,o),
(83,96,o),
(104,155,cs),
(197,410,ls),
(205,431,o),
(161,474,o),
(138,474,cs),
(132,474,o),
(127,471,o),
(126,466,cs),
(12,155,ls),
(-31,35,o),
(-3,-40,o),
(86,-40,cs),
(171,-40,o),
(304,74,o),
(394,322,c)
);
},
{
closed = 1;
nodes = (
(491,431,o),
(447,474,o),
(424,474,cs),
(418,474,o),
(413,471,o),
(412,466,cs),
(252,28,ls),
(245,7,o),
(289,-36,o),
(312,-36,cs),
(318,-36,o),
(322,-33,o),
(324,-28,cs),
(483,410,ls)
);
}
);
width = 454;
}
);
unicode = 117;
userData = {
KernOnName = u;
};
},
{
color = 5;
glyphname = v;
kernLeft = KO_v;
kernRight = KO_v;
lastChange = "2022-01-27 23:02:05 +0000";
layers = (
{
layerId = "2C7DDEC5-850F-4F82-8636-E075FE6DB186";
shapes = (
{
closed = 1;
nodes = (
(196,442,o),
(123,497,o),
(119,462,cs),
(82,24,ls),
(80,-5,o),
(153,-59,o),
(157,-24,cs),
(194,414,ls)
);
},
{
closed = 1;
nodes = (
(73,14,o),
(139,-51,o),
(160,-33,cs),
(255,45,o),
(419,204,o),
(494,410,cs),
(503,436,o),
(433,495,o),
(422,466,cs),
(348,264,o),
(188,109,o),
(94,31,cs)
);
}
);
width = 454;
}
);
unicode = 118;
userData = {
KernOnName = v;
};
},
{
color = 5;
glyphname = w;
kernLeft = KO_v;
kernRight = KO_O;
lastChange = "2022-01-26 22:32:33 +0000";
layers = (
{
anchors = (
{
name = top;
pos = (419,438);
}
);
layerId = "2C7DDEC5-850F-4F82-8636-E075FE6DB186";
shapes = (
{
closed = 1;
nodes = (
(470,440,o),
(397,496,o),
(392,463,cs),
(332,25,ls),
(329,-3,o),
(402,-59,o),
(406,-25,cs),
(466,413,ls)
);
},
{
closed = 1;
nodes = (
(324,13,o),
(390,-51,o),
(410,-33,cs),
(511,58,o),
(602,183,o),
(685,410,cs),
(694,436,o),
(624,495,o),
(613,466,cs),
(531,241,o),
(441,120,o),
(344,31,cs)
);
},
{
closed = 1;
nodes = (
(194,445,o),
(120,497,o),
(119,461,cs),
(99,23,ls),
(97,-7,o),
(171,-59,o),
(172,-23,cs),
(192,415,ls)
);
},
{
closed = 1;
nodes = (
(93,7,o),
(161,-55,o),
(177,-31,cs),
(460,408,ls),
(474,430,o),
(405,492,o),
(390,468,cs),
(107,29,ls)
);
}
);
width = 645;
}
);
unicode = 119;
userData = {
KernOnName = w;
};
},
{
color = 5;
glyphname = x;
kernLeft = KO_x;
kernRight = KO_x;
lastChange = "2022-01-26 22:31:41 +0000";
layers = (
{
layerId = "2C7DDEC5-850F-4F82-8636-E075FE6DB186";
shapes = (
{
closed = 1;
nodes = (
(512,425,o),
(446,489,o),
(425,470,cs),
(-47,32,ls),
(-67,13,o),
(-1,-51,o),
(20,-32,cs),
(492,406,ls)
);
},
{
closed = 1;
nodes = (
(171,459,o),
(98,496,o),
(111,453,cs),
(172,248,ls),
(183,210,o),
(255,175,o),
(243,218,cs),
(182,423,ls)
);
},
{
closed = 1;
nodes = (
(257,246,o),
(183,283,o),
(197,240,cs),
(263,15,ls),
(274,-23,o),
(346,-58,o),
(334,-15,cs),
(268,210,ls)
);
}
);
width = 445;
}
);
unicode = 120;
userData = {
KernOnName = x;
};
},
{
color = 5;
glyphname = y;
kernLeft = KO_y;
kernRight = KO_y;
lastChange = "2022-01-26 22:27:00 +0000";
layers = (
{
anchors = (
{
name = bottom;
pos = (280,-40);
},
{
name = top;
pos = (317,438);
}
);
layerId = "2C7DDEC5-850F-4F82-8636-E075FE6DB186";
shapes = (
{
closed = 1;
nodes = (
(197,445,o),
(125,497,o),
(124,461,cs),
(100,70,ls),
(99,40,o),
(171,-12,o),
(173,24,cs),
(196,415,ls)
);
},
{
closed = 1;
nodes = (
(508,430,o),
(440,492,o),
(425,468,cs),
(108,-44,ls),
(68,-109,o),
(-11,-177,o),
(-75,-177,cs),
(-114,-177,o),
(-60,-247,o),
(-28,-247,cs),
(68,-247,o),
(135,-171,o),
(177,-104,cs),
(494,408,ls)
);
}
);
width = 460;
}
);
unicode = 121;
userData = {
KernOnName = y;
};
},
{
color = 5;
glyphname = z;
kernLeft = KO_z;
kernRight = KO_z;
lastChange = "2022-01-26 22:31:10 +0000";
layers = (
{
anchors = (
{
name = top;
pos = (311,438);
}
);
layerId = "2C7DDEC5-850F-4F82-8636-E075FE6DB186";
shapes = (
{
closed = 1;
nodes = (
(510,423,o),
(444,487,o),
(424,468,cs),
(-34,34,ls),
(-54,15,o),
(12,-49,o),
(32,-30,cs),
(490,404,ls)
);
},
{
closed = 1;
nodes = (
(94,473,o),
(150,403,o),
(182,403,cs),
(482,403,ls),
(520,403,o),
(469,473,o),
(433,473,cs),
(133,473,ls)
);
},
{
closed = 1;
nodes = (
(-64,35,o),
(-8,-35,o),
(24,-35,cs),
(324,-35,ls),
(362,-35,o),
(311,35,o),
(275,35,cs),
(-25,35,ls)
);
}
);
width = 457;
}
);
unicode = 122;
userData = {
KernOnName = z;
};
},
{
color = 9;
glyphname = a.ss01;
kernLeft = KO_c;
kernRight = KO_a.ss01;
lastChange = "2022-01-26 21:02:12 +0000";
layers = (
{
layerId = "2C7DDEC5-850F-4F82-8636-E075FE6DB186";
shapes = (
{
closed = 1;
nodes = (
(399,415,o),
(341,483,o),
(310,478,cs),
(178,456,o),
(64,311,o),
(20,191,cs),
(-7,116,o),
(-45,-58,o),
(158,-25,cs),
(285,-4,o),
(403,173,o),
(460,332,c),
(389,388,l),
(330,227,o),
(181,33,o),
(89,18,cs),
(87,18,o),
(45,6,o),
(92,136,cs),
(129,236,o),
(250,390,o),
(364,409,cs)
);
},
{
closed = 1;
nodes = (
(513,477,o),
(443,536,o),
(432,507,cs),
(267,54,ls),
(258,28,o),
(328,-31,o),
(339,-1,cs),
(504,451,ls)
);
}
);
width = 460;
}
);
},
{
color = 9;
glyphname = b.ss01;
kernLeft = KO_h;
kernRight = KO_p;
lastChange = "2022-01-26 21:02:12 +0000";
layers = (
{
layerId = "2C7DDEC5-850F-4F82-8636-E075FE6DB186";
shapes = (
{
closed = 1;
nodes = (
(102,134,l),
(168,316,o),
(260,381,o),
(316,381,cs),
(357,381,o),
(379,347,o),
(361,298,cs),
(300,130,o),
(181,33,o),
(3,5,cs),
(-3,4,o),
(-5,2,o),
(-7,-2,cs),
(-14,-21,o),
(33,-68,o),
(58,-64,cs),
(223,-37,o),
(367,59,o),
(433,243,cs),
(488,394,o),
(445,484,o),
(367,484,cs),
(282,484,o),
(156,380,o),
(67,134,c)
);
},
{
closed = 1;
nodes = (
(279,620,o),
(234,663,o),
(211,663,cs),
(205,663,o),
(201,660,o),
(199,655,cs),
(-33,16,ls),
(-41,-5,o),
(4,-47,o),
(27,-47,cs),
(33,-47,o),
(37,-45,o),
(39,-39,cs),
(271,599,ls)
);
}
);
width = 454;
}
);
},
{
color = 9;
glyphname = c.ss01;
kernLeft = KO_J;
kernRight = KO_v;
lastChange = "2022-01-26 21:02:12 +0000";
layers = (
{
layerId = "2C7DDEC5-850F-4F82-8636-E075FE6DB186";
shapes = (
{
closed = 1;
nodes = (
(328,266,o),
(441,324,o),
(451,351,cs),
(478,425,o),
(430,487,o),
(357,475,cs),
(183,445,o),
(59,298,o),
(20,191,cs),
(-26,63,o),
(-11,-75,o),
(205,-75,cs),
(237,-75,o),
(342,-5,o),
(304,-5,cs),
(96,-5,o),
(89,127,o),
(133,247,cs),
(185,390,o),
(258,405,o),
(268,407,cs),
(339,419,o),
(363,363,o),
(338,295,cs)
);
}
);
width = 423;
}
);
},
{
color = 9;
glyphname = d.ss01;
kernLeft = KO_c;
kernRight = KO_d;
lastChange = "2022-01-26 21:02:12 +0000";
layers = (
{
layerId = "2C7DDEC5-850F-4F82-8636-E075FE6DB186";
shapes = (
{
closed = 1;
nodes = (
(618,762,o),
(573,805,o),
(550,805,cs),
(544,805,o),
(540,802,o),
(538,797,cs),
(335,238,ls),
(308,165,o),
(303,102,o),
(332,41,cs),
(344,16,o),
(375,-3,o),
(392,-3,cs),
(397,-3,o),
(401,-1,o),
(402,3,cs),
(404,7,o),
(403,13,o),
(399,22,cs),
(385,51,o),
(382,115,o),
(407,183,cs),
(610,741,ls)
);
},
{
closed = 1;
nodes = (
(431,424,o),
(433,426,o),
(435,430,cs),
(442,449,o),
(397,497,o),
(370,492,cs),
(164,458,o),
(64,311,o),
(22,196,cs),
(-39,30,o),
(-5,-54,o),
(67,-54,cs),
(159,-54,o),
(314,83,o),
(416,365,c),
(381,365,l),
(300,143,o),
(184,46,o),
(123,46,cs),
(87,46,o),
(71,80,o),
(94,141,cs),
(132,245,o),
(233,391,o),
(425,423,cs)
);
}
);
width = 491;
}
);
},
{
color = 9;
glyphname = e.ss01;
kernLeft = KO_J;
kernRight = KO_c;
lastChange = "2022-01-26 21:02:12 +0000";
layers = (
{
layerId = "2C7DDEC5-850F-4F82-8636-E075FE6DB186";
shapes = (
{
closed = 1;
nodes = (
(45,139,o),
(108,73,o),
(135,85,cs),
(328,171,o),
(438,285,o),
(469,372,cs),
(516,500,o),
(367,504,o),
(308,486,cs),
(197,451,o),
(70,326,o),
(21,193,cs),
(-23,72,o),
(8,-83,o),
(199,-24,cs),
(259,-5,o),
(332,30,o),
(394,92,cs),
(413,110,o),
(346,174,o),
(327,154,cs),
(258,86,o),
(175,33,o),
(122,16,cs),
(99,9,o),
(36,-18,o),
(93,138,cs),
(136,257,o),
(268,387,o),
(367,418,cs),
(404,429,o),
(422,428,o),
(418,417,cs),
(395,356,o),
(274,242,o),
(73,152,cs)
);
}
);
width = 461;
}
);
},
{
color = 9;
glyphname = f.ss01;
kernLeft = KO_t;
kernRight = KO_f.ss01;
lastChange = "2022-01-26 21:02:12 +0000";
layers = (
{
layerId = "2C7DDEC5-850F-4F82-8636-E075FE6DB186";
shapes = (
{
closed = 1;
nodes = (
(470,433,o),
(413,502,o),
(381,497,cs),
(128,455,ls),
(93,449,o),
(154,381,o),
(183,386,cs),
(436,428,ls)
);
},
{
closed = 1;
nodes = (
(15,-38,o),
(86,-97,o),
(96,-68,cs),
(305,505,ls),
(330,573,o),
(395,656,o),
(486,671,cs),
(520,677,o),
(463,745,o),
(431,740,cs),
(319,721,o),
(259,633,o),
(233,560,cs),
(25,-12,ls)
);
}
);
width = 377;
}
);
metricLeft = f;
},
{
color = 9;
glyphname = g.ss01;
kernLeft = KO_c;
kernRight = KO_a.ss01;
lastChange = "2022-01-26 21:02:12 +0000";
layers = (
{
layerId = "2C7DDEC5-850F-4F82-8636-E075FE6DB186";
shapes = (
{
closed = 1;
nodes = (
(515,470,o),
(453,537,o),
(425,529,cs),
(190,455,o),
(63,311,o),
(18,186,cs),
(-16,95,o),
(-48,-49,o),
(92,-49,cs),
(219,-49,o),
(340,170,o),
(398,331,c),
(363,331,l),
(278,96,o),
(120,9,o),
(87,9,cs),
(85,9,o),
(44,7,o),
(90,131,cs),
(132,248,o),
(256,390,o),
(484,461,cs)
);
},
{
closed = 1;
nodes = (
(485,416,o),
(415,475,o),
(404,446,cs),
(268,72,ls),
(210,-89,o),
(91,-207,o),
(3,-234,cs),
(-43,-248,o),
(39,-281,o),
(80,-268,cs),
(166,-241,o),
(283,-141,o),
(340,16,cs),
(476,391,ls)
);
}
);
width = 454;
}
);
},
{
color = 9;
glyphname = h.ss01;
kernLeft = KO_i;
kernRight = KO_e;
lastChange = "2022-01-26 21:02:12 +0000";
layers = (
{
layerId = "2C7DDEC5-850F-4F82-8636-E075FE6DB186";
shapes = (
{
closed = 1;
nodes = (
(94,97,l),
(167,299,o),
(278,386,o),
(335,386,cs),
(367,386,o),
(382,358,o),
(364,309,cs),
(271,53,ls),
(263,32,o),
(308,-10,o),
(331,-10,cs),
(337,-10,o),
(341,-8,o),
(343,-2,cs),
(436,254,ls),
(492,408,o),
(459,486,o),
(390,486,cs),
(301,486,o),
(153,357,o),
(59,97,c)
);
},
{
closed = 1;
nodes = (
(329,746,o),
(285,789,o),
(262,789,cs),
(256,789,o),
(252,787,o),
(250,781,cs),
(-34,2,ls),
(-41,-18,o),
(3,-61,o),
(26,-61,cs),
(32,-61,o),
(36,-59,o),
(38,-53,cs),
(322,726,ls)
);
}
);
width = 463;
}
);
},
{
color = 9;
glyphname = i.ss01;
kernLeft = KO_i;
kernRight = KO_i.ss01;
lastChange = "2022-01-26 21:02:12 +0000";
layers = (
{
layerId = "2C7DDEC5-850F-4F82-8636-E075FE6DB186";
shapes = (
{
closed = 1;
nodes = (
(-33,2,o),
(37,-57,o),
(48,-28,cs),
(207,410,ls),
(217,436,o),
(146,495,o),
(136,466,cs),
(-24,28,ls)
);
},
{
closed = 1;
nodes = (
(204,497,o),
(272,491,o),
(249,525,cs),
(237,543,o),
(241,574,o),
(290,617,cs),
(310,635,o),
(243,699,o),
(223,681,cs),
(171,636,o),
(154,572,o),
(184,527,cs)
);
}
);
width = 182;
}
);
},
{
color = 9;
glyphname = j.ss01;
kernLeft = KO_k.ss01;
kernRight = KO_i.ss01;
lastChange = "2022-01-26 21:02:12 +0000";
layers = (
{
layerId = "2C7DDEC5-850F-4F82-8636-E075FE6DB186";
shapes = (
{
closed = 1;
nodes = (
(-111,-210,o),
(-40,-269,o),
(-30,-240,cs),
(207,410,ls),
(216,436,o),
(146,495,o),
(135,466,cs),
(-101,-184,ls)
);
},
{
closed = 1;
nodes = (
(203,497,o),
(271,491,o),
(249,525,cs),
(236,543,o),
(241,574,o),
(289,617,cs),
(310,635,o),
(243,699,o),
(222,681,cs),
(171,636,o),
(154,572,o),
(183,527,cs)
);
}
);
width = 182;
}
);
},
{
color = 9;
glyphname = k.ss01;
kernLeft = KO_k.ss01;
kernRight = KO_k;
lastChange = "2022-01-26 21:02:12 +0000";
layers = (
{
layerId = "2C7DDEC5-850F-4F82-8636-E075FE6DB186";
shapes = (
{
closed = 1;
nodes = (
(296,655,o),
(225,714,o),
(215,685,cs),
(-40,-16,ls),
(-50,-42,o),
(21,-101,o),
(31,-72,cs),
(286,629,ls)
);
},
{
closed = 1;
nodes = (
(451,429,o),
(381,491,o),
(368,464,cs),
(328,382,o),
(241,278,o),
(81,226,cs),
(50,216,o),
(113,149,o),
(140,158,cs),
(307,212,o),
(398,320,o),
(439,406,cs)
);
},
{
closed = 1;
nodes = (
(233,248,o),
(159,288,o),
(169,246,cs),
(224,17,ls),
(232,-21,o),
(305,-58,o),
(295,-17,cs),
(241,212,ls)
);
}
);
width = 405;
}
);
},
{
color = 9;
glyphname = l.ss01;
kernLeft = KO_i;
kernRight = KO_l;
lastChange = "2022-01-26 21:02:12 +0000";
layers = (
{
layerId = "2C7DDEC5-850F-4F82-8636-E075FE6DB186";
shapes = (
{
closed = 1;
nodes = (
(307,686,o),
(237,745,o),
(226,716,cs),
(-24,28,ls),
(-33,2,o),
(37,-57,o),
(48,-28,cs),
(298,660,ls)
);
}
);
width = 183;
}
);
},
{
color = 9;
glyphname = m.ss01;
kernLeft = KO_p;
kernRight = KO_c;
lastChange = "2022-01-26 21:02:12 +0000";
layers = (
{
layerId = "2C7DDEC5-850F-4F82-8636-E075FE6DB186";
shapes = (
{
closed = 1;
nodes = (
(86,78,l),
(159,278,o),
(254,364,o),
(300,364,cs),
(327,364,o),
(337,335,o),
(319,284,cs),
(226,28,ls),
(218,7,o),
(263,-35,o),
(286,-35,cs),
(292,-35,o),
(295,-33,o),
(298,-27,cs),
(391,229,ls),
(447,384,o),
(421,463,o),
(359,463,cs),
(280,463,o),
(145,336,o),
(51,78,c)
);
},
{
closed = 1;
nodes = (
(198,387,o),
(154,430,o),
(131,430,cs),
(125,430,o),
(121,427,o),
(119,422,cs),
(-40,-16,ls),
(-48,-37,o),
(-4,-80,o),
(19,-80,cs),
(25,-80,o),
(29,-77,o),
(31,-72,cs),
(191,366,ls)
);
},
{
closed = 1;
nodes = (
(351,122,l),
(424,322,o),
(519,407,o),
(565,407,cs),
(592,407,o),
(602,379,o),
(584,328,cs),
(491,72,ls),
(483,51,o),
(527,8,o),
(550,8,cs),
(556,8,o),
(560,11,o),
(562,16,cs),
(655,272,ls),
(712,427,o),
(685,506,o),
(623,506,cs),
(545,506,o),
(410,380,o),
(316,122,c)
);
}
);
width = 676;
}
);
},
{
color = 9;
glyphname = n.ss01;
kernLeft = KO_p;
kernRight = KO_e;
lastChange = "2022-01-26 21:02:12 +0000";
layers = (
{
layerId = "2C7DDEC5-850F-4F82-8636-E075FE6DB186";
shapes = (
{
closed = 1;
nodes = (
(94,97,l),
(167,299,o),
(278,386,o),
(335,386,cs),
(367,386,o),
(382,358,o),
(364,309,cs),
(271,53,ls),
(263,32,o),
(308,-10,o),
(331,-10,cs),
(337,-10,o),
(341,-8,o),
(343,-2,cs),
(436,254,ls),
(492,408,o),
(460,486,o),
(391,486,cs),
(302,486,o),
(154,357,o),
(59,97,c)
);
},
{
closed = 1;
nodes = (
(205,406,o),
(161,448,o),
(138,448,cs),
(132,448,o),
(128,446,o),
(126,440,cs),
(-34,2,ls),
(-41,-18,o),
(3,-61,o),
(26,-61,cs),
(32,-61,o),
(36,-59,o),
(38,-53,cs),
(198,385,ls)
);
}
);
width = 463;
}
);
},
{
color = 9;
glyphname = o.ss01;
kernLeft = KO_e;
kernRight = KO_q;
lastChange = "2022-01-26 21:02:12 +0000";
layers = (
{
layerId = "2C7DDEC5-850F-4F82-8636-E075FE6DB186";
shapes = (
{
closed = 1;
nodes = (
(392,413,o),
(341,483,o),
(305,483,cs),
(205,483,o),
(92,390,o),
(35,232,cs),
(-3,128,o),
(19,-45,o),
(187,-45,cs),
(288,-45,o),
(396,39,o),
(446,176,cs),
(467,234,o),
(475,307,o),
(462,361,cs),
(453,397,o),
(379,437,o),
(389,395,cs),
(399,356,o),
(394,285,o),
(375,232,cs),
(333,117,o),
(237,25,o),
(138,25,cs),
(104,25,o),
(54,33,o),
(106,176,cs),
(153,305,o),
(254,413,o),
(354,413,cs)
);
}
);
width = 492;
}
);
},
{
color = 9;
glyphname = p.ss01;
kernRight = KO_p.ss02;
lastChange = "2022-01-26 21:02:12 +0000";
layers = (
{
layerId = "2C7DDEC5-850F-4F82-8636-E075FE6DB186";
shapes = (
{
closed = 1;
nodes = (
(28,8,o),
(24,6,o),
(22,2,cs),
(16,-17,o),
(64,-63,o),
(87,-60,cs),
(298,-25,o),
(394,121,o),
(436,237,cs),
(496,402,o),
(463,487,o),
(391,487,cs),
(300,487,o),
(145,349,o),
(42,68,cs),
(29,32,o),
(32,14,o),
(41,14,cs),
(49,14,o),
(64,32,o),
(77,68,cs),
(158,290,o),
(275,387,o),
(335,387,cs),
(371,387,o),
(386,353,o),
(364,292,cs),
(326,187,o),
(229,42,o),
(33,9,cs)
);
},
{
closed = 1;
nodes = (
(200,405,o),
(155,447,o),
(132,447,cs),
(126,447,o),
(123,445,o),
(120,439,cs),
(-127,-240,ls),
(-134,-261,o),
(-90,-304,o),
(-67,-304,cs),
(-61,-304,o),
(-57,-301,o),
(-55,-296,cs),
(192,384,ls)
);
}
);
width = 449;
}
);
},
{
color = 9;
glyphname = q.ss01;
kernLeft = KO_c;
kernRight = KO_u;
lastChange = "2022-01-26 21:02:12 +0000";
layers = (
{
layerId = "2C7DDEC5-850F-4F82-8636-E075FE6DB186";
shapes = (
{
closed = 1;
nodes = (
(353,300,l),
(239,-12,o),
(49,18,o),
(92,136,cs),
(156,311,o),
(301,405,o),
(451,429,cs),
(485,435,o),
(428,503,o),
(396,498,cs),
(231,471,o),
(87,375,o),
(20,191,cs),
(-94,-124,o),
(216,-173,o),
(388,300,c)
);
},
{
closed = 1;
nodes = (
(477,391,o),
(406,450,o),
(396,421,cs),
(161,-224,ls),
(152,-250,o),
(222,-309,o),
(233,-280,cs),
(468,365,ls)
);
}
);
width = 455;
}
);
},
{
color = 9;
glyphname = r.ss01;
kernLeft = KO_r;
kernRight = KO_r;
lastChange = "2022-01-26 21:02:12 +0000";
layers = (
{
layerId = "2C7DDEC5-850F-4F82-8636-E075FE6DB186";
shapes = (
{
closed = 1;
nodes = (
(216,436,o),
(145,495,o),
(135,466,cs),
(-25,28,ls),
(-34,2,o),
(37,-57,o),
(47,-28,cs),
(207,410,ls)
);
},
{
closed = 1;
nodes = (
(541,419,o),
(484,480,o),
(459,469,cs),
(307,402,o),
(65,169,o),
(3,0,c),
(57,0,l),
(115,158,o),
(362,340,o),
(513,407,cs)
);
}
);
width = 469;
}
);
metricLeft = r;
},
{
color = 9;
glyphname = s.ss01;
kernLeft = KO_s.ss01;
kernRight = KO_s.ss01;
lastChange = "2022-01-26 21:02:12 +0000";
layers = (
{
layerId = "2C7DDEC5-850F-4F82-8636-E075FE6DB186";
shapes = (
{
closed = 1;
nodes = (
(389,424,o),
(332,492,o),
(300,487,cs),
(191,469,o),
(105,423,o),
(73,360,cs),
(41,299,o),
(53,242,o),
(87,201,cs),
(138,141,o),
(166,122,o),
(156,87,cs),
(143,36,o),
(88,6,o),
(-35,-12,cs),
(-75,-18,o),
(-8,-73,o),
(30,-68,cs),
(167,-48,o),
(219,-11,o),
(236,53,cs),
(247,95,o),
(232,146,o),
(185,200,cs),
(162,228,o),
(125,266,o),
(144,302,cs),
(167,349,o),
(254,402,o),
(354,418,cs)
);
}
);
width = 317;
}
);
},
{
color = 9;
glyphname = t.ss01;
kernLeft = KO_t;
kernRight = KO_t.ss01;
lastChange = "2022-01-26 21:02:12 +0000";
layers = (
{
layerId = "2C7DDEC5-850F-4F82-8636-E075FE6DB186";
shapes = (
{
closed = 1;
nodes = (
(321,587,o),
(277,630,o),
(254,630,cs),
(248,630,o),
(244,627,o),
(242,622,cs),
(71,152,ls),
(26,29,o),
(84,-40,o),
(158,-40,cs),
(217,-40,o),
(285,3,o),
(319,96,cs),
(326,117,o),
(282,160,o),
(259,160,cs),
(253,160,o),
(249,157,o),
(247,152,cs),
(213,60,o),
(166,7,o),
(142,7,cs),
(125,7,o),
(120,34,o),
(143,96,cs),
(314,566,ls)
);
},
{
closed = 1;
nodes = (
(125,473,o),
(121,471,o),
(120,467,cs),
(113,449,o),
(154,403,o),
(180,403,cs),
(421,403,ls),
(428,403,o),
(432,406,o),
(434,410,cs),
(440,427,o),
(402,473,o),
(373,473,cs),
(132,473,ls)
);
}
);
width = 399;
}
);
metricLeft = t;
},
{
color = 9;
glyphname = u.ss01;
kernLeft = KO_r;
kernRight = KO_a.ss01;
lastChange = "2022-01-26 21:02:12 +0000";
layers = (
{
layerId = "2C7DDEC5-850F-4F82-8636-E075FE6DB186";
shapes = (
{
closed = 1;
nodes = (
(370,341,l),
(297,139,o),
(185,52,o),
(128,52,cs),
(96,52,o),
(81,80,o),
(99,129,cs),
(192,385,ls),
(200,406,o),
(155,448,o),
(132,448,cs),
(126,448,o),
(122,446,o),
(120,440,cs),
(27,184,ls),
(-29,30,o),
(3,-48,o),
(72,-48,cs),
(161,-48,o),
(310,81,o),
(405,341,c)
);
},
{
closed = 1;
nodes = (
(504,456,o),
(460,499,o),
(437,499,cs),
(431,499,o),
(427,497,o),
(425,491,cs),
(265,53,ls),
(258,32,o),
(302,-10,o),
(325,-10,cs),
(331,-10,o),
(335,-8,o),
(337,-2,cs),
(497,436,ls)
);
}
);
width = 463;
}
);
},
{
color = 9;
glyphname = v.ss01;
kernRight = KO_r.ss02;
lastChange = "2022-01-26 21:02:12 +0000";
layers = (
{
layerId = "2C7DDEC5-850F-4F82-8636-E075FE6DB186";
shapes = (
{
closed = 1;
nodes = (
(176,413,o),
(104,469,o),
(99,435,cs),
(48,-40,ls),
(46,-69,o),
(119,-124,o),
(122,-90,cs),
(173,385,ls)
);
},
{
closed = 1;
nodes = (
(44,-55,o),
(112,-118,o),
(129,-94,cs),
(536,498,ls),
(551,519,o),
(483,582,o),
(466,558,cs),
(58,-34,ls)
);
}
);
width = 455;
}
);
},
{
color = 9;
glyphname = w.ss01;
kernLeft = KO_u;
kernRight = KO_eth;
lastChange = "2022-01-26 21:02:12 +0000";
layers = (
{
layerId = "2C7DDEC5-850F-4F82-8636-E075FE6DB186";
shapes = (
{
closed = 1;
nodes = (
(454,437,o),
(383,496,o),
(373,467,cs),
(270,185,o),
(207,-54,o),
(407,-21,cs),
(544,2,o),
(591,151,o),
(701,453,cs),
(710,479,o),
(640,538,o),
(629,509,cs),
(513,191,o),
(445,63,o),
(377,51,cs),
(372,50,o),
(307,32,o),
(444,411,cs)
);
},
{
closed = 1;
nodes = (
(186,392,o),
(115,451,o),
(104,422,cs),
(13,172,o),
(-92,-103,o),
(123,-68,cs),
(256,-46,o),
(336,113,o),
(435,384,cs),
(444,410,o),
(374,469,o),
(363,440,cs),
(257,149,o),
(183,19,o),
(93,4,cs),
(85,3,o),
(43,0,o),
(176,367,cs)
);
}
);
width = 646;
}
);
},
{
color = 9;
glyphname = x.ss01;
kernRight = KO_k.ss02;
lastChange = "2022-01-26 21:02:12 +0000";
layers = (
{
layerId = "2C7DDEC5-850F-4F82-8636-E075FE6DB186";
shapes = (
{
closed = 1;
nodes = (
(197,488,o),
(83,426,o),
(90,406,cs),
(201,92,ls),
(229,12,o),
(249,-21,o),
(270,-34,cs),
(288,-44,o),
(400,22,o),
(381,34,cs),
(364,43,o),
(341,77,o),
(314,155,cs),
(203,470,ls)
);
},
{
closed = 1;
nodes = (
(549,496,o),
(451,461,o),
(412,423,cs),
(203,218,ls),
(159,176,o),
(255,209,o),
(296,248,cs),
(505,453,ls)
);
},
{
closed = 1;
nodes = (
(308,283,o),
(211,248,o),
(172,210,cs),
(-58,-15,ls),
(-101,-57,o),
(-5,-24,o),
(35,15,cs),
(265,240,ls)
);
}
);
width = 472;
}
);
},
{
color = 9;
glyphname = y.ss01;
kernLeft = KO_y.ss02;
kernRight = KO_v;
lastChange = "2022-01-26 21:02:12 +0000";
layers = (
{
layerId = "2C7DDEC5-850F-4F82-8636-E075FE6DB186";
shapes = (
{
closed = 1;
nodes = (
(184,445,o),
(110,497,o),
(109,461,cs),
(93,70,ls),
(91,40,o),
(166,-12,o),
(167,24,cs),
(182,415,ls)
);
},
{
closed = 1;
nodes = (
(494,430,o),
(426,492,o),
(410,468,cs),
(-69,-259,ls),
(-83,-281,o),
(-15,-343,o),
(1,-319,cs),
(480,408,ls)
);
}
);
width = 431;
}
);
},
{
color = 9;
glyphname = z.ss01;
kernLeft = KO_z;
kernRight = KO_z;
lastChange = "2022-01-26 21:02:12 +0000";
layers = (
{
layerId = "2C7DDEC5-850F-4F82-8636-E075FE6DB186";
shapes = (
{
closed = 1;
nodes = (
(518,450,o),
(451,514,o),
(432,494,cs),
(-45,7,ls),
(-64,-12,o),
(3,-76,o),
(22,-56,cs),
(499,431,ls)
);
},
{
closed = 1;
nodes = (
(84,440,o),
(146,372,o),
(174,377,cs),
(494,430,ls),
(528,436,o),
(471,504,o),
(439,499,cs),
(120,446,ls)
);
},
{
closed = 1;
nodes = (
(-74,2,o),
(-12,-65,o),
(16,-61,cs),
(335,-8,ls),
(370,-2,o),
(312,66,o),
(280,61,cs),
(-39,8,ls)
);
}
);
width = 455;
}
);
},
{
color = 8;
glyphname = a.ss02;
kernLeft = KO_c;
kernRight = KO_n;
lastChange = "2022-01-26 21:02:12 +0000";
layers = (
{
layerId = "2C7DDEC5-850F-4F82-8636-E075FE6DB186";
shapes = (
{
closed = 1;
nodes = (
(345,298,l),
(278,114,o),
(189,46,o),
(134,46,cs),
(94,46,o),
(73,82,o),
(92,135,cs),
(156,311,o),
(289,397,o),
(443,423,cs),
(448,424,o),
(451,426,o),
(452,430,cs),
(459,448,o),
(414,496,o),
(387,491,cs),
(226,465,o),
(87,375,o),
(20,191,cs),
(-36,36,o),
(5,-56,o),
(82,-56,cs),
(165,-56,o),
(290,50,o),
(380,298,c)
);
},
{
closed = 1;
nodes = (
(467,381,o),
(423,424,o),
(400,424,cs),
(394,424,o),
(390,421,o),
(388,416,cs),
(256,53,ls),
(248,32,o),
(293,-11,o),
(316,-11,cs),
(322,-11,o),
(326,-8,o),
(328,-3,cs),
(460,360,ls)
);
}
);
width = 449;
}
);
},
{
color = 8;
glyphname = b.ss02;
kernLeft = KO_l;
kernRight = KO_p;
lastChange = "2022-01-26 21:02:12 +0000";
layers = (
{
layerId = "2C7DDEC5-850F-4F82-8636-E075FE6DB186";
shapes = (
{
closed = 1;
nodes = (
(102,134,l),
(169,316,o),
(260,381,o),
(316,381,cs),
(357,381,o),
(380,348,o),
(362,299,cs),
(299,126,o),
(116,5,o),
(-28,5,cs),
(-35,5,o),
(-38,3,o),
(-40,-1,cs),
(-46,-19,o),
(-5,-65,o),
(21,-65,cs),
(173,-65,o),
(366,56,o),
(434,243,cs),
(489,395,o),
(447,484,o),
(368,484,cs),
(283,484,o),
(157,379,o),
(67,134,c)
);
},
{
closed = 1;
nodes = (
(312,711,o),
(268,754,o),
(245,754,cs),
(239,754,o),
(235,751,o),
(233,746,cs),
(-12,73,ls),
(-19,52,o),
(25,9,o),
(48,9,cs),
(54,9,o),
(58,12,o),
(60,17,cs),
(305,690,ls)
);
}
);
width = 455;
}
);
},
{
color = 8;
glyphname = c.ss02;
kernLeft = KO_J;
kernRight = KO_c.ss02;
lastChange = "2022-01-26 21:02:12 +0000";
layers = (
{
layerId = "2C7DDEC5-850F-4F82-8636-E075FE6DB186";
shapes = (
{
closed = 1;
nodes = (
(338,23,o),
(256,57,o),
(209,30,cs),
(99,-33,o),
(36,-16,o),
(83,112,cs),
(130,242,o),
(233,359,o),
(452,423,cs),
(482,432,o),
(421,499,o),
(393,491,cs),
(169,426,o),
(61,304,o),
(11,167,cs),
(-41,24,o),
(65,-133,o),
(288,-6,cs)
);
}
);
width = 426;
}
);
},
{
color = 8;
glyphname = d.ss02;
kernLeft = KO_c;
kernRight = KO_l;
lastChange = "2022-01-26 21:02:12 +0000";
layers = (
{
layerId = "2C7DDEC5-850F-4F82-8636-E075FE6DB186";
shapes = (
{
closed = 1;
nodes = (
(592,691,o),
(547,734,o),
(524,734,cs),
(518,734,o),
(514,731,o),
(512,726,cs),
(258,28,ls),
(251,7,o),
(295,-36,o),
(318,-36,cs),
(324,-36,o),
(328,-33,o),
(330,-28,cs),
(584,670,ls)
);
},
{
closed = 1;
nodes = (
(431,425,o),
(434,427,o),
(435,431,cs),
(442,449,o),
(397,497,o),
(370,492,cs),
(164,458,o),
(63,311,o),
(22,196,cs),
(-39,30,o),
(-5,-54,o),
(67,-54,cs),
(159,-54,o),
(313,83,o),
(416,365,c),
(381,365,l),
(300,142,o),
(183,46,o),
(123,46,cs),
(87,46,o),
(71,79,o),
(93,140,cs),
(131,245,o),
(232,392,o),
(426,424,cs)
);
}
);
width = 460;
}
);
},
{
color = 8;
glyphname = e.ss02;
kernLeft = KO_c;
kernRight = KO_e.ss02;
lastChange = "2022-01-26 21:02:12 +0000";
layers = (
{
layerId = "2C7DDEC5-850F-4F82-8636-E075FE6DB186";
shapes = (
{
closed = 1;
nodes = (
(73,147,o),
(71,144,o),
(70,141,cs),
(63,122,o),
(112,72,o),
(137,80,cs),
(279,124,o),
(421,242,o),
(460,349,cs),
(501,463,o),
(431,487,o),
(367,487,cs),
(208,487,o),
(74,341,o),
(21,195,cs),
(-35,42,o),
(8,-52,o),
(107,-52,cs),
(201,-52,o),
(357,56,o),
(377,109,cs),
(379,116,o),
(379,120,o),
(374,120,cs),
(368,120,o),
(354,113,o),
(334,96,cs),
(260,35,o),
(179,-9,o),
(127,-9,cs),
(77,-9,o),
(54,33,o),
(93,140,cs),
(135,257,o),
(279,415,o),
(388,415,cs),
(409,415,o),
(422,403,o),
(416,387,cs),
(398,339,o),
(209,189,o),
(78,148,cs)
);
}
);
width = 437;
}
);
},
{
color = 8;
glyphname = f.ss02;
kernLeft = KO_v;
kernRight = KO_V;
lastChange = "2022-01-26 21:02:12 +0000";
layers = (
{
layerId = "2C7DDEC5-850F-4F82-8636-E075FE6DB186";
shapes = (
{
closed = 1;
nodes = (
(463,381,o),
(406,450,o),
(374,444,cs),
(109,400,ls),
(74,395,o),
(135,327,o),
(164,332,cs),
(429,376,ls)
);
},
{
closed = 1;
nodes = (
(16,-39,o),
(87,-98,o),
(98,-68,cs),
(295,474,ls),
(340,597,o),
(379,668,o),
(422,676,c),
(424,676,o),
(458,681,o),
(427,595,cs),
(418,570,o),
(483,518,o),
(494,547,cs),
(527,638,o),
(512,734,o),
(384,714,cs),
(294,698,o),
(263,639,o),
(223,529,cs),
(26,-13,ls)
);
}
);
width = 399;
}
);
metricLeft = f;
},
{
color = 8;
glyphname = g.ss02;
kernLeft = KO_c;
kernRight = KO_u;
lastChange = "2022-01-26 21:02:12 +0000";
layers = (
{
layerId = "2C7DDEC5-850F-4F82-8636-E075FE6DB186";
shapes = (
{
closed = 1;
nodes = (
(404,417,o),
(347,486,o),
(315,480,cs),
(186,459,o),
(67,320,o),
(20,192,cs),
(-17,91,o),
(-37,-29,o),
(120,-29,cs),
(257,-29,o),
(327,122,o),
(412,357,c),
(372,357,l),
(275,91,o),
(139,29,o),
(115,29,cs),
(111,29,o),
(48,16,o),
(92,136,cs),
(133,250,o),
(256,393,o),
(370,412,cs)
);
},
{
closed = 1;
nodes = (
(493,436,o),
(422,495,o),
(412,466,cs),
(252,28,ls),
(206,-98,o),
(111,-160,o),
(35,-121,cs),
(19,-113,o),
(-63,-199,o),
(-45,-209,cs),
(90,-278,o),
(261,-200,o),
(324,-28,cs),
(483,410,ls)
);
}
);
width = 454;
}
);
},
{
color = 8;
glyphname = h.ss02;
kernLeft = KO_i;
kernRight = KO_e;
lastChange = "2022-01-26 21:02:12 +0000";
layers = (
{
layerId = "2C7DDEC5-850F-4F82-8636-E075FE6DB186";
shapes = (
{
closed = 1;
nodes = (
(94,97,l),
(168,299,o),
(279,386,o),
(336,386,cs),
(368,386,o),
(382,358,o),
(365,309,cs),
(248,-12,ls),
(240,-33,o),
(284,-76,o),
(307,-76,cs),
(313,-76,o),
(318,-73,o),
(319,-68,cs),
(436,253,ls),
(493,408,o),
(460,486,o),
(391,486,cs),
(302,486,o),
(154,357,o),
(59,97,c)
);
},
{
closed = 1;
nodes = (
(306,681,o),
(262,724,o),
(239,724,cs),
(233,724,o),
(228,721,o),
(227,716,cs),
(-15,53,ls),
(-22,32,o),
(22,-11,o),
(45,-11,cs),
(51,-11,o),
(55,-8,o),
(57,-3,cs),
(298,660,ls)
);
}
);
width = 464;
}
);
},
{
color = 8;
glyphname = i.ss02;
kernRight = KO_j;
lastChange = "2022-01-26 21:02:12 +0000";
layers = (
{
layerId = "2C7DDEC5-850F-4F82-8636-E075FE6DB186";
shapes = (
{
closed = 1;
nodes = (
(-33,2,o),
(37,-57,o),
(48,-28,cs),
(211,421,ls),
(221,447,o),
(150,506,o),
(140,477,cs),
(-24,28,ls)
);
},
{
closed = 1;
nodes = (
(175,579,o),
(245,520,o),
(256,549,cs),
(278,609,ls),
(287,635,o),
(217,694,o),
(206,665,cs),
(184,605,ls)
);
},
{
closed = 1;
nodes = (
(44,462,o),
(105,394,o),
(134,401,cs),
(204,417,ls),
(236,424,o),
(175,492,o),
(147,485,cs),
(77,469,ls)
);
}
);
width = 173;
}
);
},
{
color = 8;
glyphname = j.ss02;
kernRight = KO_j;
lastChange = "2022-01-26 21:02:12 +0000";
layers = (
{
layerId = "2C7DDEC5-850F-4F82-8636-E075FE6DB186";
shapes = (
{
closed = 1;
nodes = (
(-179,-203,o),
(-111,-265,o),
(-95,-242,cs),
(-23,-140,o),
(67,24,o),
(212,421,cs),
(221,447,o),
(151,506,o),
(140,477,cs),
(-4,80,o),
(-94,-82,o),
(-165,-182,cs)
);
},
{
closed = 1;
nodes = (
(175,579,o),
(246,520,o),
(256,549,cs),
(278,609,ls),
(288,635,o),
(217,694,o),
(207,665,cs),
(185,605,ls)
);
},
{
closed = 1;
nodes = (
(45,462,o),
(106,394,o),
(134,401,cs),
(204,417,ls),
(237,424,o),
(176,492,o),
(147,485,cs),
(77,469,ls)
);
}
);
width = 173;
}
);
},
{
color = 8;
glyphname = k.ss02;
kernLeft = KO_i;
kernRight = KO_k.ss02;
lastChange = "2022-01-26 21:02:12 +0000";
layers = (
{
layerId = "2C7DDEC5-850F-4F82-8636-E075FE6DB186";
shapes = (
{
closed = 1;
nodes = (
(299,664,o),
(229,723,o),
(218,694,cs),
(-32,6,ls),
(-42,-20,o),
(29,-79,o),
(40,-49,cs),
(290,639,ls)
);
},
{
closed = 1;
nodes = (
(465,445,o),
(399,508,o),
(379,489,cs),
(59,175,ls),
(40,156,o),
(106,92,o),
(126,112,cs),
(446,426,ls)
);
},
{
closed = 1;
nodes = (
(241,269,o),
(166,309,o),
(177,268,cs),
(232,39,ls),
(240,1,o),
(313,-37,o),
(304,5,cs),
(249,233,ls)
);
}
);
width = 406;
}
);
},
{
color = 8;
glyphname = l.ss02;
kernLeft = KO_i;
kernRight = KO_l;
lastChange = "2022-01-26 21:02:12 +0000";
layers = (
{
layerId = "2C7DDEC5-850F-4F82-8636-E075FE6DB186";
shapes = (
{
closed = 1;
nodes = (
(314,706,o),
(244,765,o),
(233,736,cs),
(9,120,ls),
(2,102,o),
(-22,38,o),
(-10,-21,cs),
(-4,-58,o),
(71,-98,o),
(62,-59,cs),
(54,-18,o),
(75,50,o),
(81,64,cs),
(305,680,ls)
);
}
);
width = 182;
}
);
},
{
color = 8;
glyphname = m.ss02;
kernLeft = KO_p;
kernRight = KO_c;
lastChange = "2022-01-26 21:02:12 +0000";
layers = (
{
layerId = "2C7DDEC5-850F-4F82-8636-E075FE6DB186";
shapes = (
{
closed = 1;
nodes = (
(86,78,l),
(200,392,o),
(370,425,o),
(319,284,cs),
(248,90,ls),
(239,64,o),
(310,5,o),
(320,34,cs),
(391,228,ls),
(518,579,o),
(219,540,o),
(51,78,c)
);
},
{
closed = 1;
nodes = (
(200,392,o),
(130,451,o),
(119,422,cs),
(-55,-56,ls),
(-64,-82,o),
(6,-141,o),
(17,-112,cs),
(191,366,ls)
);
},
{
closed = 1;
nodes = (
(351,122,l),
(465,436,o),
(635,469,o),
(584,328,cs),
(471,18,ls),
(462,-8,o),
(532,-67,o),
(543,-38,cs),
(656,272,ls),
(783,623,o),
(484,584,o),
(316,122,c)
);
}
);
width = 677;
}
);
},
{
color = 8;
glyphname = n.ss02;
kernRight = KO_e;
lastChange = "2022-01-26 21:02:12 +0000";
layers = (
{
layerId = "2C7DDEC5-850F-4F82-8636-E075FE6DB186";
shapes = (
{
closed = 1;
nodes = (
(92,97,l),
(166,299,o),
(277,386,o),
(334,386,cs),
(366,386,o),
(381,358,o),
(363,309,cs),
(240,-29,ls),
(232,-50,o),
(277,-92,o),
(300,-92,cs),
(306,-92,o),
(310,-90,o),
(312,-84,cs),
(434,253,ls),
(491,408,o),
(458,486,o),
(389,486,cs),
(300,486,o),
(152,357,o),
(58,97,c)
);
},
{
closed = 1;
nodes = (
(149,446,o),
(115,467,o),
(98,467,cs),
(93,467,o),
(90,465,o),
(88,461,cs),
(87,457,o),
(88,452,o),
(91,444,cs),
(99,424,o),
(103,380,o),
(79,314,cs),
(-26,28,ls),
(-33,7,o),
(11,-36,o),
(34,-36,cs),
(40,-36,o),
(44,-33,o),
(46,-28,cs),
(151,259,ls),
(176,330,o),
(178,376,o),
(160,421,cs)
);
}
);
width = 462;
}
);
},
{
color = 8;
glyphname = o.ss02;
kernLeft = KO_o.ss02;
lastChange = "2022-01-26 21:02:12 +0000";
layers = (
{
layerId = "2C7DDEC5-850F-4F82-8636-E075FE6DB186";
shapes = (
{
closed = 1;
nodes = (
(392,413,o),
(341,483,o),
(305,483,cs),
(205,483,o),
(94,394,o),
(40,247,cs),
(1,138,o),
(13,-45,o),
(187,-45,cs),
(278,-45,o),
(384,33,o),
(425,145,cs),
(445,201,o),
(470,281,o),
(389,354,c),
(361,323,l),
(362,322,o),
(376,263,o),
(353,201,cs),
(320,108,o),
(227,25,o),
(138,25,cs),
(112,25,o),
(54,31,o),
(112,191,cs),
(156,312,o),
(255,413,o),
(354,413,cs)
);
},
{
closed = 1;
nodes = (
(247,368,o),
(303,298,o),
(335,298,cs),
(416,298,o),
(500,340,o),
(549,404,cs),
(565,424,o),
(497,487,o),
(479,464,cs),
(437,409,o),
(353,368,o),
(286,368,cs)
);
}
);
width = 482;
}
);
},
{
color = 8;
glyphname = p.ss02;
kernRight = KO_p.ss02;
lastChange = "2022-01-26 21:02:12 +0000";
layers = (
{
layerId = "2C7DDEC5-850F-4F82-8636-E075FE6DB186";
shapes = (
{
closed = 1;
nodes = (
(30,-20,o),
(73,-101,o),
(101,-96,cs),
(434,-41,o),
(692,537,o),
(439,495,cs),
(296,471,o),
(27,80,o),
(-89,-240,cs),
(-98,-265,o),
(-53,-288,o),
(-43,-261,cs),
(80,77,o),
(373,401,o),
(477,418,c),
(481,419,o),
(413,44,o),
(60,-15,cs)
);
},
{
closed = 1;
nodes = (
(190,378,o),
(119,437,o),
(109,408,cs),
(-148,-297,ls),
(-157,-322,o),
(-87,-381,o),
(-76,-352,cs),
(180,353,ls)
);
}
);
width = 509;
}
);
},
{
color = 8;
glyphname = q.ss02;
kernLeft = KO_e;
kernRight = KO_u;
lastChange = "2022-01-26 21:02:12 +0000";
layers = (
{
layerId = "2C7DDEC5-850F-4F82-8636-E075FE6DB186";
shapes = (
{
closed = 1;
nodes = (
(338,259,l),
(242,-4,o),
(52,26,o),
(105,171,cs),
(164,332,o),
(253,403,o),
(398,403,cs),
(436,403,o),
(385,473,o),
(349,473,cs),
(198,473,o),
(93,391,o),
(33,227,cs),
(-82,-90,o),
(213,-180,o),
(373,259,c)
);
},
{
closed = 1;
nodes = (
(494,436,o),
(423,495,o),
(412,466,cs),
(176,-184,ls),
(166,-210,o),
(237,-269,o),
(248,-240,cs),
(484,410,ls)
);
}
);
width = 455;
}
);
},
{
color = 8;
glyphname = r.ss02;
kernLeft = KO_p;
kernRight = KO_r.ss02;
lastChange = "2022-01-26 21:02:12 +0000";
layers = (
{
layerId = "2C7DDEC5-850F-4F82-8636-E075FE6DB186";
shapes = (
{
closed = 1;
nodes = (
(209,417,o),
(139,476,o),
(128,447,cs),
(-45,-28,ls),
(-54,-53,o),
(17,-112,o),
(27,-83,cs),
(200,392,ls)
);
},
{
closed = 1;
nodes = (
(442,442,o),
(382,501,o),
(360,486,cs),
(211,389,o),
(66,149,o),
(-8,-55,c),
(38,-55,l),
(110,145,o),
(272,331,o),
(418,427,cs)
);
}
);
width = 365;
}
);
},
{
color = 8;
glyphname = s.ss02;
kernLeft = KO_s.ss02;
kernRight = KO_M;
lastChange = "2022-01-26 21:02:12 +0000";
layers = (
{
layerId = "2C7DDEC5-850F-4F82-8636-E075FE6DB186";
shapes = (
{
closed = 1;
nodes = (
(427,476,o),
(357,506,o),
(304,494,cs),
(154,461,o),
(69,340,o),
(111,254,cs),
(156,165,o),
(176,111,o),
(180,77,cs),
(190,-9,o),
(135,-12,o),
(133,-12,cs),
(92,-12,o),
(78,23,o),
(64,87,cs),
(60,107,o),
(-54,45,o),
(-49,25,cs),
(-37,-27,o),
(15,-68,o),
(70,-68,cs),
(206,-68,o),
(305,23,o),
(295,139,cs),
(290,176,o),
(269,229,o),
(225,318,cs),
(193,380,o),
(262,439,o),
(371,464,cs)
);
}
);
width = 362;
}
);
},
{
color = 8;
glyphname = t.ss02;
kernLeft = KO_t;
kernRight = KO_t.ss02;
lastChange = "2022-01-26 21:02:12 +0000";
layers = (
{
layerId = "2C7DDEC5-850F-4F82-8636-E075FE6DB186";
shapes = (
{
closed = 1;
nodes = (
(324,592,o),
(254,651,o),
(243,622,cs),
(75,160,ls),
(68,142,o),
(44,78,o),
(56,19,cs),
(62,-18,o),
(137,-58,o),
(128,-19,cs),
(120,22,o),
(142,90,o),
(147,104,cs),
(315,566,ls)
);
},
{
closed = 1;
nodes = (
(94,473,o),
(149,403,o),
(181,403,cs),
(321,403,ls),
(359,403,o),
(309,473,o),
(273,473,cs),
(133,473,ls)
);
}
);
width = 292;
}
);
metricLeft = t;
},
{
color = 8;
glyphname = u.ss02;
kernLeft = KO_r;
kernRight = KO_u.ss02;
lastChange = "2022-01-26 22:38:17 +0000";
layers = (
{
layerId = "2C7DDEC5-850F-4F82-8636-E075FE6DB186";
shapes = (
{
closed = 1;
nodes = (
(368,337,l),
(295,135,o),
(183,48,o),
(126,48,cs),
(94,48,o),
(79,76,o),
(97,125,cs),
(191,383,ls),
(199,404,o),
(154,447,o),
(131,447,cs),
(125,447,o),
(121,444,o),
(120,439,cs),
(26,181,ls),
(-31,26,o),
(2,-52,o),
(72,-52,cs),
(160,-52,o),
(309,77,o),
(403,337,c)
);
},
{
closed = 1;
nodes = (
(510,472,o),
(465,515,o),
(442,515,cs),
(436,515,o),
(432,512,o),
(430,507,cs),
(310,176,ls),
(284,105,o),
(282,59,o),
(301,14,cs),
(312,-12,o),
(345,-33,o),
(362,-33,cs),
(367,-33,o),
(370,-31,o),
(372,-27,cs),
(373,-23,o),
(374,-17,o),
(370,-10,cs),
(362,9,o),
(357,53,o),
(381,120,cs),
(502,451,ls)
);
}
);
width = 472;
}
);
userData = {
KernOnName = u.ss02;
};
},
{
color = 8;
glyphname = v.ss02;
kernLeft = KO_y.ss02;
kernRight = KO_v;
lastChange = "2022-01-26 21:02:12 +0000";
layers = (
{
layerId = "2C7DDEC5-850F-4F82-8636-E075FE6DB186";
shapes = (
{
closed = 1;
nodes = (
(196,472,o),
(123,527,o),
(120,492,cs),
(69,-7,ls),
(67,-36,o),
(139,-91,o),
(144,-55,cs),
(194,444,ls)
);
},
{
closed = 1;
nodes = (
(64,-23,o),
(132,-85,o),
(149,-62,cs),
(478,390,ls),
(492,411,o),
(425,473,o),
(407,450,cs),
(79,-2,ls)
);
}
);
width = 436;
}
);
},
{
color = 8;
glyphname = w.ss02;
kernLeft = KO_y.ss02;
kernRight = KO_P;
lastChange = "2022-01-26 21:02:12 +0000";
layers = (
{
layerId = "2C7DDEC5-850F-4F82-8636-E075FE6DB186";
shapes = (
{
closed = 1;
nodes = (
(454,444,o),
(381,499,o),
(377,464,cs),
(335,36,ls),
(332,7,o),
(405,-48,o),
(409,-12,cs),
(452,416,ls)
);
},
{
closed = 1;
nodes = (
(332,20,o),
(400,-42,o),
(415,-17,cs),
(700,451,ls),
(713,473,o),
(644,535,o),
(629,511,cs),
(345,42,ls)
);
},
{
closed = 1;
nodes = (
(180,399,o),
(107,454,o),
(103,419,cs),
(67,-8,ls),
(64,-37,o),
(137,-92,o),
(141,-57,cs),
(177,371,ls)
);
},
{
closed = 1;
nodes = (
(62,-24,o),
(130,-86,o),
(146,-62,cs),
(446,410,ls),
(460,432,o),
(391,493,o),
(375,469,cs),
(75,-3,ls)
);
}
);
width = 646;
}
);
},
{
color = 8;
glyphname = x.ss02;
kernLeft = KO_z.ss02;
kernRight = KO_t;
lastChange = "2022-01-26 21:02:12 +0000";
layers = (
{
layerId = "2C7DDEC5-850F-4F82-8636-E075FE6DB186";
shapes = (
{
closed = 1;
nodes = (
(628,520,o),
(561,584,o),
(542,564,cs),
(-80,-60,ls),
(-99,-78,o),
(-32,-142,o),
(-13,-122,cs),
(609,502,ls)
);
},
{
closed = 1;
nodes = (
(209,439,o),
(138,470,o),
(155,425,cs),
(224,244,ls),
(239,205,o),
(310,174,o),
(293,219,cs),
(224,400,ls)
);
},
{
closed = 1;
nodes = (
(305,254,o),
(234,286,o),
(251,241,cs),
(327,42,ls),
(342,3,o),
(412,-28,o),
(396,17,cs),
(320,216,ls)
);
}
);
width = 527;
}
);
},
{
color = 8;
glyphname = y.ss02;
kernLeft = KO_y.ss02;
kernRight = KO_W;
lastChange = "2022-01-26 21:02:12 +0000";
layers = (
{
layerId = "2C7DDEC5-850F-4F82-8636-E075FE6DB186";
shapes = (
{
closed = 1;
nodes = (
(175,420,o),
(101,471,o),
(100,435,cs),
(94,66,l),
(93,35,o),
(166,-16,o),
(167,20,cs),
(174,389,ls)
);
},
{
closed = 1;
nodes = (
(527,494,o),
(459,557,o),
(444,532,cs),
(106,-39,ls),
(66,-107,o),
(-10,-185,o),
(-86,-198,cs),
(-121,-203,o),
(-60,-271,o),
(-31,-266,cs),
(62,-251,o),
(136,-169,o),
(177,-99,cs),
(514,472,ls)
);
}
);
width = 442;
}
);
},
{
color = 8;
glyphname = z.ss02;
kernLeft = KO_z.ss02;
kernRight = KO_t;
lastChange = "2022-01-26 21:02:12 +0000";
layers = (
{
layerId = "2C7DDEC5-850F-4F82-8636-E075FE6DB186";
shapes = (
{
closed = 1;
nodes = (
(115,438,o),
(176,370,o),
(204,378,cs),
(566,474,ls),
(598,482,o),
(537,550,o),
(509,542,cs),
(147,446,ls)
);
},
{
closed = 1;
nodes = (
(-96,-65,o),
(-34,-132,o),
(-6,-123,cs),
(366,-8,ls),
(397,2,o),
(335,69,o),
(307,60,cs),
(-64,-55,ls)
);
},
{
closed = 1;
nodes = (
(588,492,o),
(521,556,o),
(502,536,cs),
(-29,-9,ls),
(-48,-27,o),
(19,-91,o),
(38,-71,cs),
(569,474,ls)
);
}
);
width = 509;
}
);
},
{
glyphname = f_f;
kernLeft = KO_f;
kernRight = KO_f_f;
lastChange = "2022-01-26 22:19:49 +0000";
layers = (
{
layerId = "2C7DDEC5-850F-4F82-8636-E075FE6DB186";
shapes = (
{
closed = 1;
nodes = (
(31,2,o),
(101,-57,o),
(112,-28,cs),
(307,509,ls),
(331,574,o),
(385,653,o),
(478,653,cs),
(516,653,o),
(465,723,o),
(429,723,cs),
(330,723,o),
(264,642,o),
(236,565,cs),
(40,28,ls)
);
},
{
closed = 1;
nodes = (
(619,403,o),
(568,473,o),
(532,473,cs),
(138,473,ls),
(99,473,o),
(155,403,o),
(187,403,cs),
(581,403,ls)
);
},
{
closed = 1;
nodes = (
(244,2,o),
(314,-57,o),
(325,-28,cs),
(520,509,ls),
(544,574,o),
(598,653,o),
(691,653,cs),
(729,653,o),
(678,723,o),
(642,723,cs),
(543,723,o),
(477,642,o),
(449,565,cs),
(253,28,ls)
);
}
);
width = 563;
}
);
metricLeft = f;
metricRight = f;
},
{
glyphname = f_f_i;
kernLeft = KO_f;
kernRight = KO_fi;
lastChange = "2022-01-26 22:19:49 +0000";
layers = (
{
layerId = "2C7DDEC5-850F-4F82-8636-E075FE6DB186";
shapes = (
{
closed = 1;
nodes = (
(99,473,o),
(155,403,o),
(187,403,cs),
(686,403,ls),
(724,403,o),
(673,473,o),
(637,473,cs),
(138,473,ls)
);
},
{
closed = 1;
nodes = (
(245,2,o),
(315,-57,o),
(326,-28,cs),
(521,509,ls),
(546,577,o),
(586,665,o),
(653,665,cs),
(664,665,o),
(700,661,o),
(668,575,cs),
(660,553,o),
(738,513,o),
(747,539,cs),
(763,582,o),
(769,711,o),
(628,711,cs),
(565,711,o),
(489,673,o),
(450,565,cs),
(254,28,ls)
);
},
{
closed = 1;
nodes = (
(708,433,o),
(637,492,o),
(626,463,cs),
(468,28,ls),
(459,2,o),
(529,-57,o),
(540,-28,cs),
(698,407,ls)
);
},
{
closed = 1;
nodes = (
(31,2,o),
(101,-57,o),
(112,-28,cs),
(307,509,ls),
(331,574,o),
(385,653,o),
(478,653,cs),
(516,653,o),
(465,723,o),
(429,723,cs),
(330,723,o),
(264,642,o),
(236,565,cs),
(40,28,ls)
);
}
);
width = 676;
}
);
metricLeft = f;
metricRight = fi;
},
{
glyphname = f_f_l;
kernLeft = KO_f;
kernRight = KO_fl;
lastChange = "2022-01-26 22:19:49 +0000";
layers = (
{
layerId = "2C7DDEC5-850F-4F82-8636-E075FE6DB186";
shapes = (
{
closed = 1;
nodes = (
(799,686,o),
(729,745,o),
(718,716,cs),
(516,160,ls),
(509,142,o),
(485,78,o),
(497,19,cs),
(503,-18,o),
(578,-58,o),
(569,-19,cs),
(561,22,o),
(583,90,o),
(588,104,cs),
(790,660,ls)
);
},
{
closed = 1;
nodes = (
(245,2,o),
(315,-57,o),
(326,-28,cs),
(521,509,ls),
(545,574,o),
(598,653,o),
(691,653,cs),
(729,653,o),
(679,723,o),
(643,723,cs),
(544,723,o),
(477,642,o),
(449,565,cs),
(254,28,ls)
);
},
{
closed = 1;
nodes = (
(99,473,o),
(154,403,o),
(186,403,cs),
(610,403,ls),
(648,403,o),
(598,473,o),
(562,473,cs),
(138,473,ls)
);
},
{
closed = 1;
nodes = (
(31,2,o),
(101,-57,o),
(112,-28,cs),
(307,509,ls),
(331,574,o),
(384,653,o),
(477,653,cs),
(515,653,o),
(465,723,o),
(429,723,cs),
(330,723,o),
(263,642,o),
(235,565,cs),
(40,28,ls)
);
}
);
width = 674;
}
);
metricLeft = f;
metricRight = fl;
},
{
glyphname = f_j;
kernLeft = KO_fi;
lastChange = "2022-01-26 22:19:49 +0000";
layers = (
{
layerId = "2C7DDEC5-850F-4F82-8636-E075FE6DB186";
shapes = (
{
closed = 1;
nodes = (
(99,473,o),
(154,403,o),
(186,403,cs),
(487,403,ls),
(525,403,o),
(475,473,o),
(439,473,cs),
(138,473,ls)
);
},
{
closed = 1;
nodes = (
(46,2,o),
(117,-57,o),
(127,-28,cs),
(323,509,ls),
(348,577,o),
(388,665,o),
(455,665,cs),
(466,665,o),
(501,661,o),
(470,575,cs),
(462,553,o),
(539,513,o),
(549,539,cs),
(564,582,o),
(570,711,o),
(429,711,cs),
(366,711,o),
(291,673,o),
(251,565,cs),
(56,28,ls)
);
},
{
closed = 1;
nodes = (
(509,433,o),
(439,492,o),
(428,463,cs),
(227,-90,ls),
(217,-118,o),
(201,-158,o),
(148,-178,cs),
(118,-189,o),
(180,-256,o),
(207,-246,cs),
(270,-222,o),
(288,-176,o),
(298,-146,cs),
(500,407,ls)
);
}
);
width = 468;
}
);
metricLeft = f;
metricRight = j;
},
{
glyphname = f_t;
kernLeft = KO_fi;
kernRight = KO_f_t;
lastChange = "2022-01-26 22:19:49 +0000";
layers = (
{
layerId = "2C7DDEC5-850F-4F82-8636-E075FE6DB186";
shapes = (
{
closed = 1;
nodes = (
(99,473,o),
(155,403,o),
(187,403,cs),
(617,403,ls),
(655,403,o),
(604,473,o),
(568,473,cs),
(138,473,ls)
);
},
{
closed = 1;
nodes = (
(47,2,o),
(117,-57,o),
(128,-28,cs),
(323,509,ls),
(348,577,o),
(388,665,o),
(455,665,cs),
(466,665,o),
(502,661,o),
(470,575,cs),
(462,553,o),
(540,513,o),
(549,539,cs),
(565,582,o),
(571,711,o),
(430,711,cs),
(367,711,o),
(291,673,o),
(252,565,cs),
(56,28,ls)
);
},
{
closed = 1;
nodes = (
(506,426,o),
(436,485,o),
(425,456,cs),
(317,160,ls),
(311,142,o),
(287,78,o),
(298,19,cs),
(305,-18,o),
(379,-58,o),
(370,-19,cs),
(362,22,o),
(384,90,o),
(389,104,cs),
(497,400,ls)
);
}
);
width = 575;
}
);
metricLeft = f;
metricRight = t;
},
{
glyphname = fi;
kernLeft = KO_fi;
kernRight = KO_fi;
lastChange = "2022-01-26 22:19:49 +0000";
layers = (
{
background = {
shapes = (
{
closed = 1;
nodes = (
(192,514,o),
(199,539,o),
(203,563,c),
(206,581,o),
(207,600,o),
(203,618,c),
(198,646,o),
(181,668,o),
(158,684,c),
(118,713,o),
(62,727,o),
(16,703,c),
(-59,663,o),
(-148,481,o),
(-176,409,c),
(-194,365,o),
(-210,321,o),
(-226,276,c),
(-239,236,o),
(-252,196,o),
(-265,156,c),
(-274,125,o),
(-283,95,o),
(-291,64,c),
(-295,49,o),
(-299,34,o),
(-303,19,c),
(-303,18,o),
(-303,18,o),
(-303,17,c),
(-305,10,o),
(-303,5,o),
(-298,-1,c),
(-292,-9,o),
(-282,-16,o),
(-273,-21,c),
(-264,-26,o),
(-254,-32,o),
(-243,-33,c),
(-239,-33,o),
(-227,-34,o),
(-226,-28,c),
(-221,-10,o),
(-216,7,o),
(-211,25,c),
(-199,70,o),
(-186,114,o),
(-172,158,c),
(-154,215,o),
(-134,272,o),
(-113,328,c),
(-80,410,o),
(-22,552,o),
(49,623,c),
(52,626,o),
(56,630,o),
(60,633,c),
(58,632,o),
(57,631,o),
(56,630,c),
(71,643,o),
(89,655,o),
(109,660,c),
(107,659,o),
(105,659,o),
(103,658,c),
(107,659,o),
(111,660,o),
(116,660,c),
(117,660,o),
(118,660,o),
(119,660,c),
(121,660,o),
(128,660,o),
(122,660,c),
(116,661,o),
(124,660,o),
(125,660,c),
(128,660,o),
(130,659,o),
(132,659,c),
(133,659,o),
(134,659,o),
(135,658,c),
(138,658,o),
(124,661,o),
(130,660,c),
(132,659,o),
(134,658,o),
(136,658,c),
(139,657,o),
(123,663,o),
(129,660,c),
(130,660,o),
(131,660,o),
(131,659,c),
(137,657,o),
(123,664,o),
(124,663,c),
(125,663,o),
(126,662,o),
(127,662,c),
(132,659,o),
(114,670,o),
(121,665,c),
(127,661,o),
(111,674,o),
(117,668,c),
(118,668,o),
(118,667,o),
(119,667,c),
(123,663,o),
(114,672,o),
(114,672,c),
(115,670,o),
(117,669,o),
(118,668,c),
(118,667,o),
(119,666,o),
(119,665,c),
(121,663,o),
(115,673,o),
(117,669,c),
(118,668,o),
(119,666,o),
(119,664,c),
(121,661,o),
(122,658,o),
(123,654,c),
(122,660,l),
(128,637,o),
(126,612,o),
(121,589,c),
(122,591,o),
(122,593,o),
(122,594,c),
(118,575,o),
(112,555,o),
(105,537,c),
(102,530,o),
(106,524,o),
(110,519,c),
(116,511,o),
(126,503,o),
(134,499,c),
(144,493,o),
(154,488,o),
(165,487,c),
(170,487,o),
(180,486,o),
(182,492,c)
);
},
{
closed = 1;
nodes = (
(-90,387,l),
(55,387,ls),
(61,387,o),
(66,391,o),
(66,397,cs),
(66,413,o),
(26,442,o),
(-3,442,cs),
(-223,442,ls),
(-229,442,o),
(-234,438,o),
(-234,432,cs),
(-234,416,o),
(-191,387,o),
(-165,387,cs)
);
},
{
closed = 1;
nodes = (
(46,321,o),
(-22,123,o),
(-45,29,cs),
(-49,14,o),
(-28,-2,o),
(-15,-9,cs),
(-4,-15,o),
(30,-28,o),
(33,-16,cs),
(69,111,o),
(116,253,o),
(167,388,cs),
(172,402,o),
(150,419,o),
(137,426,cs),
(126,432,o),
(93,445,o),
(89,433,cs)
);
}
);
};
layerId = "2C7DDEC5-850F-4F82-8636-E075FE6DB186";
shapes = (
{
closed = 1;
nodes = (
(99,473,o),
(155,403,o),
(187,403,cs),
(488,403,ls),
(526,403,o),
(475,473,o),
(439,473,cs),
(138,473,ls)
);
},
{
closed = 1;
nodes = (
(47,2,o),
(117,-57,o),
(128,-28,cs),
(323,509,ls),
(348,577,o),
(388,665,o),
(455,665,cs),
(466,665,o),
(502,661,o),
(470,575,cs),
(462,553,o),
(540,513,o),
(549,539,cs),
(565,582,o),
(571,711,o),
(430,711,cs),
(367,711,o),
(291,673,o),
(252,565,cs),
(56,28,ls)
);
},
{
closed = 1;
nodes = (
(510,433,o),
(439,492,o),
(429,463,cs),
(270,28,ls),
(261,2,o),
(331,-57,o),
(342,-28,cs),
(500,407,ls)
);
}
);
width = 478;
}
);
metricLeft = f;
unicode = 64257;
},
{
glyphname = fl;
kernLeft = KO_f;
kernRight = KO_fl;
lastChange = "2022-01-26 22:19:49 +0000";
layers = (
{
layerId = "2C7DDEC5-850F-4F82-8636-E075FE6DB186";
shapes = (
{
closed = 1;
nodes = (
(585,686,o),
(515,745,o),
(504,716,cs),
(302,160,ls),
(295,142,o),
(271,78,o),
(283,19,cs),
(289,-18,o),
(364,-58,o),
(355,-19,cs),
(347,22,o),
(369,90,o),
(374,104,cs),
(576,660,ls)
);
},
{
closed = 1;
nodes = (
(434,403,o),
(384,473,o),
(348,473,cs),
(138,473,ls),
(99,473,o),
(154,403,o),
(186,403,cs),
(396,403,ls)
);
},
{
closed = 1;
nodes = (
(31,2,o),
(101,-57,o),
(112,-28,cs),
(307,509,ls),
(331,574,o),
(384,653,o),
(477,653,cs),
(515,653,o),
(465,723,o),
(429,723,cs),
(330,723,o),
(263,642,o),
(235,565,cs),
(40,28,ls)
);
}
);
width = 460;
}
);
metricLeft = f;
metricRight = l;
unicode = 64258;
},
{
glyphname = t_h;
kernLeft = KO_t;
kernRight = KO_t_h;
lastChange = "2022-01-26 22:26:12 +0000";
layers = (
{
layerId = "2C7DDEC5-850F-4F82-8636-E075FE6DB186";
shapes = (
{
closed = 1;
nodes = (
(324,592,o),
(254,651,o),
(243,622,cs),
(75,160,ls),
(68,142,o),
(44,78,o),
(56,19,cs),
(62,-18,o),
(137,-58,o),
(128,-19,cs),
(120,22,o),
(141,90,o),
(146,104,cs),
(315,566,ls)
);
},
{
closed = 1;
nodes = (
(94,473,o),
(149,403,o),
(181,403,cs),
(454,403,ls),
(492,403,o),
(442,473,o),
(406,473,cs),
(133,473,ls)
);
},
{
closed = 1;
nodes = (
(364,117,l),
(432,302,o),
(528,377,o),
(584,377,cs),
(621,377,o),
(640,343,o),
(619,284,cs),
(526,29,ls),
(519,8,o),
(563,-35,o),
(586,-35,cs),
(592,-35,o),
(596,-32,o),
(598,-27,cs),
(711,284,ls),
(755,404,o),
(726,479,o),
(637,479,cs),
(552,479,o),
(419,365,o),
(329,117,c)
);
},
{
closed = 1;
nodes = (
(233,8,o),
(277,-35,o),
(300,-35,cs),
(306,-35,o),
(310,-32,o),
(312,-27,cs),
(562,660,ls),
(569,681,o),
(525,724,o),
(502,724,cs),
(496,724,o),
(492,721,o),
(490,716,cs),
(240,29,ls)
);
}
);
width = 723;
}
);
metricLeft = t;
metricRight = h;
},
{
glyphname = t_i;
kernLeft = KO_t;
kernRight = KO_fi;
lastChange = "2022-01-26 22:19:49 +0000";
layers = (
{
layerId = "2C7DDEC5-850F-4F82-8636-E075FE6DB186";
shapes = (
{
closed = 1;
nodes = (
(324,592,o),
(254,651,o),
(243,622,cs),
(75,160,ls),
(68,142,o),
(44,78,o),
(55,19,cs),
(62,-18,o),
(136,-58,o),
(128,-19,cs),
(120,22,o),
(141,90,o),
(146,104,cs),
(315,566,ls)
);
},
{
closed = 1;
nodes = (
(94,473,o),
(149,403,o),
(181,403,cs),
(452,403,ls),
(490,403,o),
(440,473,o),
(404,473,cs),
(133,473,ls)
);
},
{
closed = 1;
nodes = (
(225,3,o),
(295,-56,o),
(306,-27,cs),
(464,408,ls),
(474,434,o),
(403,493,o),
(392,464,cs),
(234,29,ls)
);
},
{
closed = 1;
nodes = (
(430,570,o),
(501,511,o),
(511,540,cs),
(533,600,ls),
(542,626,o),
(472,685,o),
(461,656,cs),
(439,596,ls)
);
}
);
width = 441;
}
);
metricLeft = t;
metricRight = i;
},
{
glyphname = t_t;
kernLeft = KO_t;
kernRight = KO_f_t;
lastChange = "2022-01-26 22:19:49 +0000";
layers = (
{
layerId = "2C7DDEC5-850F-4F82-8636-E075FE6DB186";
shapes = (
{
closed = 1;
nodes = (
(324,592,o),
(254,651,o),
(243,622,cs),
(75,160,ls),
(69,142,o),
(44,78,o),
(56,19,cs),
(62,-18,o),
(137,-58,o),
(128,-19,cs),
(120,22,o),
(142,90,o),
(147,104,cs),
(315,566,ls)
);
},
{
closed = 1;
nodes = (
(94,473,o),
(150,403,o),
(182,403,cs),
(577,403,ls),
(615,403,o),
(564,473,o),
(528,473,cs),
(133,473,ls)
);
},
{
closed = 1;
nodes = (
(524,586,o),
(454,645,o),
(443,616,cs),
(275,154,ls),
(268,136,o),
(244,72,o),
(256,13,cs),
(262,-24,o),
(337,-64,o),
(328,-25,cs),
(320,16,o),
(341,84,o),
(347,98,cs),
(515,560,ls)
);
}
);
width = 535;
}
);
metricLeft = t;
metricRight = t;
},
{
glyphname = ordfeminine;
kernLeft = KO_V;
kernRight = KO_ordmasculine;
lastChange = "2022-01-26 22:29:38 +0000";
layers = (
{
layerId = "2C7DDEC5-850F-4F82-8636-E075FE6DB186";
shapes = (
{
closed = 1;
nodes = (
(450,668,o),
(413,728,o),
(380,728,cs),
(275,728,o),
(183,610,o),
(150,521,cs),
(124,448,o),
(119,313,o),
(232,313,cs),
(340,313,o),
(410,486,o),
(459,619,c),
(424,619,l),
(401,556,o),
(280,381,o),
(223,381,cs),
(219,381,o),
(176,381,o),
(212,478,cs),
(244,566,o),
(332,668,o),
(413,668,cs)
);
},
{
closed = 1;
nodes = (
(530,702,o),
(470,747,o),
(460,719,cs),
(388,521,ls),
(367,462,o),
(363,404,o),
(382,353,cs),
(395,317,o),
(455,302,o),
(441,341,cs),
(429,373,o),
(429,424,o),
(449,478,cs),
(521,677,ls)
);
}
);
width = 414;
}
);
unicode = 170;
userData = {
KernOnSpecialSpacing = {
L = superiors;
R = superiors;
};
};
},
{
glyphname = ordmasculine;
kernLeft = KO_V;
kernRight = KO_ordmasculine;
lastChange = "2022-01-26 22:29:38 +0000";
layers = (
{
layerId = "2C7DDEC5-850F-4F82-8636-E075FE6DB186";
shapes = (
{
closed = 1;
nodes = (
(357,317,o),
(434,392,o),
(473,501,cs),
(507,593,o),
(499,728,o),
(363,728,cs),
(276,728,o),
(199,654,o),
(158,543,cs),
(125,451,o),
(135,317,o),
(268,317,cs)
);
},
{
closed = 1;
nodes = (
(213,377,o),
(174,378,o),
(219,501,cs),
(258,607,o),
(329,668,o),
(396,668,cs),
(417,668,o),
(457,666,o),
(412,543,cs),
(374,438,o),
(302,377,o),
(235,377,cs)
);
}
);
width = 410;
}
);
unicode = 186;
userData = {
KernOnSpecialSpacing = {
L = superiors;
R = superiors;
};
};
},
{
glyphname = zero;
lastChange = "2022-01-26 22:19:49 +0000";
layers = (
{
layerId = "2C7DDEC5-850F-4F82-8636-E075FE6DB186";
shapes = (
{
closed = 1;
nodes = (
(304,-45,o),
(414,59,o),
(497,286,cs),
(556,449,o),
(586,662,o),
(376,662,cs),
(265,662,o),
(155,562,o),
(75,342,cs),
(14,173,o),
(-19,-45,o),
(192,-45,cs)
);
},
{
closed = 1;
nodes = (
(131,25,o),
(56,37,o),
(147,286,cs),
(213,468,o),
(311,592,o),
(424,592,cs),
(441,592,o),
(513,582,o),
(425,342,cs),
(357,154,o),
(257,25,o),
(144,25,cs)
);
}
);
width = 503;
}
);
unicode = 48;
userData = {
KernOnSpecialSpacing = {
L = NoKerning;
R = NoKerning;
};
};
},
{
glyphname = one;
lastChange = "2022-01-26 22:19:49 +0000";
layers = (
{
layerId = "2C7DDEC5-850F-4F82-8636-E075FE6DB186";
shapes = (
{
closed = 1;
nodes = (
(114,491,o),
(181,427,o),
(202,444,cs),
(398,593,ls),
(421,610,o),
(355,674,o),
(334,657,cs),
(137,508,ls)
);
},
{
closed = 1;
nodes = (
(415,615,o),
(345,674,o),
(334,645,cs),
(110,28,ls),
(100,2,o),
(171,-57,o),
(181,-28,cs),
(406,589,ls)
);
}
);
width = 316;
}
);
unicode = 49;
userData = {
KernOnSpecialSpacing = {
L = NoKerning;
R = NoKerning;
};
};
},
{
glyphname = two;
lastChange = "2022-01-26 22:19:49 +0000";
layers = (
{
layerId = "2C7DDEC5-850F-4F82-8636-E075FE6DB186";
shapes = (
{
closed = 1;
nodes = (
(128,440,o),
(199,381,o),
(209,410,cs),
(243,504,o),
(345,591,o),
(427,591,cs),
(468,591,o),
(495,571,o),
(466,495,cs),
(430,393,o),
(244,219,o),
(-20,34,cs),
(-44,18,o),
(22,-46,o),
(45,-30,cs),
(308,153,o),
(486,311,o),
(534,443,cs),
(576,559,o),
(478,661,o),
(378,661,cs),
(290,661,o),
(178,576,o),
(138,466,cs)
);
},
{
closed = 1;
nodes = (
(-47,36,o),
(9,-34,o),
(41,-34,cs),
(360,-34,ls),
(398,-34,o),
(347,36,o),
(311,36,cs),
(-8,36,ls)
);
}
);
width = 502;
}
);
unicode = 50;
userData = {
KernOnSpecialSpacing = {
L = NoKerning;
R = NoKerning;
};
};
},
{
glyphname = three;
lastChange = "2022-01-26 22:19:49 +0000";
layers = (
{
layerId = "2C7DDEC5-850F-4F82-8636-E075FE6DB186";
shapes = (
{
closed = 1;
nodes = (
(157,498,o),
(225,436,o),
(239,462,cs),
(279,539,o),
(365,592,o),
(424,592,cs),
(475,592,o),
(478,566,o),
(460,518,cs),
(438,458,o),
(368,390,o),
(250,373,cs),
(214,367,o),
(277,300,o),
(305,304,cs),
(408,319,o),
(481,362,o),
(518,464,cs),
(556,567,o),
(481,662,o),
(375,662,cs),
(285,662,o),
(211,603,o),
(168,520,cs)
);
},
{
closed = 1;
nodes = (
(212,373,o),
(268,304,o),
(300,304,cs),
(369,304,o),
(382,257,o),
(359,193,cs),
(329,112,o),
(231,24,o),
(156,24,cs),
(111,24,o),
(55,34,o),
(93,139,cs),
(102,164,o),
(32,223,o),
(21,194,cs),
(-17,90,o),
(35,-44,o),
(183,-44,cs),
(290,-44,o),
(375,13,o),
(424,148,cs),
(472,280,o),
(367,373,o),
(251,373,cs)
);
}
);
width = 480;
}
);
unicode = 51;
userData = {
KernOnSpecialSpacing = {
L = NoKerning;
R = NoKerning;
};
};
},
{
glyphname = four;
lastChange = "2022-01-26 22:19:49 +0000";
layers = (
{
layerId = "2C7DDEC5-850F-4F82-8636-E075FE6DB186";
shapes = (
{
closed = 1;
nodes = (
(540,612,o),
(473,676,o),
(453,657,cs),
(49,274,ls),
(29,255,o),
(96,191,o),
(116,210,cs),
(520,593,ls)
);
},
{
closed = 1;
nodes = (
(536,615,o),
(466,674,o),
(455,645,cs),
(231,28,ls),
(221,2,o),
(292,-57,o),
(302,-28,cs),
(527,589,ls)
);
},
{
closed = 1;
nodes = (
(0,243,o),
(55,173,o),
(87,173,cs),
(449,173,ls),
(487,173,o),
(437,243,o),
(401,243,cs),
(39,243,ls)
);
}
);
width = 496;
}
);
unicode = 52;
userData = {
KernOnSpecialSpacing = {
L = NoKerning;
R = NoKerning;
};
};
},
{
glyphname = five;
lastChange = "2022-01-26 22:19:49 +0000";
layers = (
{
layerId = "2C7DDEC5-850F-4F82-8636-E075FE6DB186";
shapes = (
{
closed = 1;
nodes = (
(200,652,o),
(256,582,o),
(288,582,cs),
(577,582,ls),
(615,582,o),
(564,652,o),
(528,652,cs),
(239,652,ls)
);
},
{
closed = 1;
nodes = (
(103,360,o),
(168,295,o),
(192,309,cs),
(276,358,o),
(323,377,o),
(363,377,cs),
(418,377,o),
(438,329,o),
(404,236,cs),
(362,120,o),
(233,22,o),
(160,22,cs),
(114,22,o),
(88,37,o),
(91,123,cs),
(92,153,o),
(19,205,o),
(18,169,cs),
(15,82,o),
(100,-42,o),
(201,-42,cs),
(300,-42,o),
(415,52,o),
(462,182,cs),
(503,293,o),
(482,441,o),
(322,441,cs),
(268,441,o),
(214,424,o),
(128,375,cs)
);
},
{
closed = 1;
nodes = (
(345,601,o),
(275,662,o),
(261,636,cs),
(123,376,ls),
(110,353,o),
(180,292,o),
(194,318,cs),
(332,578,ls)
);
}
);
width = 505;
}
);
unicode = 53;
userData = {
KernOnSpecialSpacing = {
L = NoKerning;
R = NoKerning;
};
};
},
{
glyphname = six;
lastChange = "2022-01-26 22:19:49 +0000";
layers = (
{
layerId = "2C7DDEC5-850F-4F82-8636-E075FE6DB186";
shapes = (
{
closed = 1;
nodes = (
(489,608,o),
(424,673,o),
(400,660,cs),
(216,562,o),
(98,406,o),
(47,266,cs),
(-14,99,o),
(20,-46,o),
(149,-46,cs),
(336,-46,o),
(458,109,o),
(505,238,cs),
(551,365,o),
(507,459,o),
(421,459,cs),
(274,459,o),
(147,334,o),
(81,153,c),
(116,153,l),
(171,304,o),
(247,389,o),
(322,389,cs),
(396,389,o),
(433,305,o),
(393,194,cs),
(336,39,o),
(250,16,o),
(234,16,cs),
(133,16,o),
(99,125,o),
(147,257,cs),
(189,371,o),
(292,503,o),
(462,594,cs)
);
}
);
width = 528;
}
);
unicode = 54;
userData = {
KernOnSpecialSpacing = {
L = NoKerning;
R = NoKerning;
};
};
},
{
glyphname = seven;
lastChange = "2022-01-26 22:19:49 +0000";
layers = (
{
layerId = "2C7DDEC5-850F-4F82-8636-E075FE6DB186";
shapes = (
{
closed = 1;
nodes = (
(548,568,o),
(480,631,o),
(462,610,cs),
(312,437,o),
(167,251,o),
(38,29,cs),
(25,7,o),
(95,-55,o),
(109,-29,cs),
(237,191,o),
(381,376,o),
(531,548,cs)
);
},
{
closed = 1;
nodes = (
(149,652,o),
(206,582,o),
(238,582,cs),
(554,582,ls),
(592,582,o),
(541,652,o),
(505,652,cs),
(188,652,ls)
);
}
);
width = 452;
}
);
unicode = 55;
userData = {
KernOnSpecialSpacing = {
L = NoKerning;
R = NoKerning;
};
};
},
{
glyphname = eight;
lastChange = "2022-01-26 22:19:49 +0000";
layers = (
{
layerId = "2C7DDEC5-850F-4F82-8636-E075FE6DB186";
shapes = (
{
closed = 1;
nodes = (
(265,661,o),
(199,581,o),
(174,511,cs),
(102,314,o),
(400,333,o),
(344,180,cs),
(315,99,o),
(229,24,o),
(139,24,cs),
(103,24,o),
(63,46,o),
(100,147,cs),
(156,301,o),
(440,282,o),
(512,478,cs),
(537,547,o),
(503,661,o),
(370,661,cs)
);
},
{
closed = 1;
nodes = (
(427,593,o),
(455,587,o),
(432,522,cs),
(375,366,o),
(91,385,o),
(20,191,cs),
(-16,92,o),
(26,-44,o),
(181,-44,cs),
(275,-44,o),
(391,39,o),
(434,158,cs),
(505,353,o),
(207,334,o),
(264,489,cs),
(287,554,o),
(358,593,o),
(412,593,cs)
);
}
);
width = 486;
}
);
unicode = 56;
userData = {
KernOnSpecialSpacing = {
L = NoKerning;
R = NoKerning;
};
};
},
{
glyphname = nine;
lastChange = "2022-01-26 22:19:49 +0000";
layers = (
{
layerId = "2C7DDEC5-850F-4F82-8636-E075FE6DB186";
shapes = (
{
closed = 1;
nodes = (
(103,4,o),
(167,-61,o),
(192,-48,cs),
(375,50,o),
(493,206,o),
(544,346,cs),
(605,513,o),
(571,658,o),
(443,658,cs),
(256,658,o),
(133,503,o),
(86,374,cs),
(40,246,o),
(78,133,o),
(163,133,cs),
(311,133,o),
(453,300,o),
(512,460,c),
(477,460,l),
(418,300,o),
(311,203,o),
(262,203,cs),
(188,203,o),
(158,308,o),
(198,418,cs),
(255,573,o),
(341,596,o),
(357,596,cs),
(458,596,o),
(492,487,o),
(444,355,cs),
(402,240,o),
(299,109,o),
(129,18,cs)
);
}
);
width = 528;
}
);
unicode = 57;
userData = {
KernOnSpecialSpacing = {
L = NoKerning;
R = NoKerning;
};
};
},
{
glyphname = onesuperior;
kernLeft = KO_dagger;
lastChange = "2022-01-26 22:29:38 +0000";
layers = (
{
layerId = "2C7DDEC5-850F-4F82-8636-E075FE6DB186";
shapes = (
{
closed = 1;
nodes = (
(164,624,o),
(217,570,o),
(239,587,cs),
(347,667,ls),
(369,684,o),
(317,737,o),
(295,721,cs),
(186,640,ls)
);
},
{
closed = 1;
nodes = (
(364,692,o),
(304,738,o),
(294,710,cs),
(172,375,ls),
(162,349,o),
(223,304,o),
(234,333,cs),
(355,667,ls)
);
}
);
width = 238;
}
);
metricLeft = one;
metricRight = one;
tags = (
superior
);
unicode = 185;
userData = {
KernOnSpecialSpacing = {
L = superiors;
R = superiors;
};
};
},
{
glyphname = twosuperior;
kernLeft = KO_twosuperior;
kernRight = KO_twosuperior;
lastChange = "2022-01-26 22:29:38 +0000";
layers = (
{
layerId = "2C7DDEC5-850F-4F82-8636-E075FE6DB186";
shapes = (
{
closed = 1;
nodes = (
(180,587,o),
(240,542,o),
(250,571,cs),
(266,616,o),
(319,665,o),
(361,665,cs),
(370,665,o),
(384,661,o),
(369,622,cs),
(354,579,o),
(248,481,o),
(106,381,cs),
(83,364,o),
(137,312,o),
(158,327,cs),
(303,429,o),
(398,513,o),
(428,596,cs),
(457,674,o),
(401,724,o),
(329,724,cs),
(280,724,o),
(214,680,o),
(189,613,cs)
);
},
{
closed = 1;
nodes = (
(81,384,o),
(118,324,o),
(151,324,cs),
(325,324,ls),
(362,324,o),
(325,384,o),
(292,384,cs),
(118,384,ls)
);
}
);
width = 339;
}
);
metricLeft = two;
metricRight = two;
tags = (
superior
);
unicode = 178;
userData = {
KernOnSpecialSpacing = {
L = superiors;
R = superiors;
};
};
},
{
glyphname = threesuperior;
kernLeft = KO_twosuperior;
kernRight = KO_threesuperior;
lastChange = "2022-01-26 22:29:38 +0000";
layers = (
{
layerId = "2C7DDEC5-850F-4F82-8636-E075FE6DB186";
shapes = (
{
closed = 1;
nodes = (
(190,622,o),
(248,574,o),
(262,600,cs),
(282,642,o),
(331,668,o),
(356,668,cs),
(359,668,o),
(381,668,o),
(366,629,cs),
(356,601,o),
(295,555,o),
(246,548,cs),
(211,543,o),
(256,486,o),
(285,490,cs),
(349,499,o),
(384,539,o),
(404,595,cs),
(421,642,o),
(408,728,o),
(323,728,cs),
(267,728,o),
(226,693,o),
(201,645,cs)
);
},
{
closed = 1;
nodes = (
(211,549,o),
(248,489,o),
(280,489,cs),
(305,489,o),
(309,471,o),
(304,457,cs),
(285,405,o),
(241,375,o),
(201,375,cs),
(190,375,o),
(160,368,o),
(180,423,cs),
(190,448,o),
(130,494,o),
(120,466,cs),
(98,406,o),
(129,319,o),
(223,319,cs),
(301,319,o),
(336,347,o),
(361,415,cs),
(381,472,o),
(325,549,o),
(248,549,cs)
);
}
);
width = 320;
}
);
metricLeft = three;
metricRight = three;
tags = (
superior
);
unicode = 179;
userData = {
KernOnSpecialSpacing = {
L = superiors;
R = superiors;
};
};
},
{
glyphname = foursuperior;
kernLeft = KO_quoteright;
lastChange = "2022-01-26 22:29:38 +0000";
layers = (
{
layerId = "2C7DDEC5-850F-4F82-8636-E075FE6DB186";
shapes = (
{
closed = 1;
nodes = (
(427,685,o),
(373,737,o),
(353,718,cs),
(117,482,ls),
(98,462,o),
(153,411,o),
(172,430,cs),
(408,667,ls)
);
},
{
closed = 1;
nodes = (
(423,692,o),
(363,738,o),
(353,709,cs),
(231,375,ls),
(222,349,o),
(281,304,o),
(292,333,cs),
(413,667,ls)
);
},
{
closed = 1;
nodes = (
(95,486,o),
(132,426,o),
(164,426,cs),
(370,426,ls),
(407,426,o),
(370,486,o),
(338,486,cs),
(132,486,ls)
);
}
);
width = 327;
}
);
metricLeft = four;
metricRight = four;
tags = (
superior
);
unicode = 8308;
userData = {
KernOnSpecialSpacing = {
L = superiors;
R = superiors;
};
};
},
{
glyphname = fraction;
kernLeft = KO_hyphen;
lastChange = "2022-01-26 22:29:38 +0000";
layers = (
{
layerId = "2C7DDEC5-850F-4F82-8636-E075FE6DB186";
shapes = (
{
closed = 1;
nodes = (
(773,677,o),
(714,736,o),
(693,717,cs),
(-48,29,ls),
(-68,10,o),
(-6,-47,o),
(13,-29,cs),
(754,659,ls)
);
}
);
width = 615;
}
);
unicode = 8260;
userData = {
KernOnSpecialSpacing = {
L = fraction;
R = fraction;
};
};
},
{
glyphname = .notdef;
lastChange = "2022-01-26 22:19:49 +0000";
layers = (
{
layerId = "2C7DDEC5-850F-4F82-8636-E075FE6DB186";
shapes = (
{
closed = 1;
nodes = (
(-25,25,ls),
(-36,-6,o),
(-8,-37,o),
(32,-37,cs),
(366,-37,ls),
(373,-37,o),
(382,-31,o),
(385,-25,cs),
(609,592,ls),
(620,623,o),
(592,654,o),
(552,654,cs),
(218,654,ls),
(211,654,o),
(202,648,o),
(199,642,cs)
);
},
{
closed = 1;
nodes = (
(269,588,o),
(262,584,o),
(257,580,c),
(591,580,l),
(571,601,o),
(553,622,o),
(533,642,c),
(309,25,l),
(315,29,o),
(322,33,o),
(327,37,c),
(-7,37,l),
(13,16,o),
(31,-5,o),
(51,-25,c),
(275,592,l)
);
},
{
closed = 1;
nodes = (
(-11,19,o),
(45,-31,o),
(69,-4,cs),
(573,573,ls),
(595,598,o),
(539,648,o),
(515,621,cs),
(11,44,ls)
);
},
{
closed = 1;
nodes = (
(278,629,o),
(210,645,o),
(216,603,cs),
(300,26,ls),
(306,-12,o),
(374,-28,o),
(368,14,cs),
(284,591,ls)
);
}
);
width = 519;
}
);
},
{
glyphname = "leftanglebracket-math";
kernLeft = KO_period;
lastChange = "2022-01-26 22:19:49 +0000";
layers = (
{
layerId = "2C7DDEC5-850F-4F82-8636-E075FE6DB186";
shapes = (
{
closed = 1;
nodes = (
(396,617,o),
(327,680,o),
(310,657,cs),
(77,349,l),
(77,348,o),
(75,344,o),
(75,342,cs),
(80,23,ls),
(81,-8,o),
(154,-59,o),
(154,-23,cs),
(149,296,l),
(148,294,o),
(147,291,o),
(147,289,c),
(380,597,ls)
);
}
);
width = 273;
}
);
unicode = 10216;
},
{
glyphname = "rightanglebracket-math";
kernRight = KO_guillemetright;
lastChange = "2022-01-26 22:19:49 +0000";
layers = (
{
layerId = "2C7DDEC5-850F-4F82-8636-E075FE6DB186";
shapes = (
{
closed = 1;
nodes = (
(261,635,o),
(188,686,o),
(188,650,cs),
(193,331,l),
(194,333,o),
(195,336,o),
(195,338,c),
(-38,30,ls),
(-54,10,o),
(15,-53,o),
(32,-30,cs),
(265,278,l),
(265,279,o),
(267,283,o),
(267,285,cs),
(262,604,ls)
);
}
);
width = 274;
}
);
unicode = 10217;
},
{
glyphname = period;
kernLeft = KO_period;
kernRight = KO_period;
lastChange = "2022-01-26 22:43:08 +0000";
layers = (
{
layerId = "2C7DDEC5-850F-4F82-8636-E075FE6DB186";
shapes = (
{
closed = 1;
nodes = (
(-42,-22,ls),
(-55,-57,o),
(48,-11,o),
(60,22,cs),
(78,73,ls),
(91,109,o),
(-12,60,o),
(-24,29,cs)
);
}
);
width = 177;
}
);
unicode = 46;
userData = {
KernOnName = period;
KernOnSpecialSpacing = {
L = period;
R = period;
};
};
},
{
glyphname = comma;
kernLeft = KO_period;
kernRight = KO_period;
lastChange = "2022-01-26 22:35:23 +0000";
layers = (
{
layerId = "2C7DDEC5-850F-4F82-8636-E075FE6DB186";
shapes = (
{
closed = 1;
nodes = (
(105,104,o),
(2,54,o),
(-7,27,cs),
(-45,-76,o),
(-76,-124,o),
(-98,-146,cs),
(-139,-186,o),
(-49,-156,o),
(-13,-120,cs),
(31,-76,o),
(56,-30,o),
(94,75,cs)
);
}
);
width = 191;
}
);
unicode = 44;
userData = {
KernOnName = comma;
KernOnSpecialSpacing = {
L = period;
R = period;
};
};
},
{
glyphname = colon;
kernLeft = KO_colon;
kernRight = KO_colon;
lastChange = "2022-01-26 22:29:38 +0000";
layers = (
{
layerId = "2C7DDEC5-850F-4F82-8636-E075FE6DB186";
shapes = (
{
closed = 1;
nodes = (
(82,82,ls),
(95,118,o),
(-9,69,o),
(-20,38,cs),
(-42,-22,ls),
(-55,-57,o),
(48,-11,o),
(60,22,cs)
);
},
{
closed = 1;
nodes = (
(200,407,ls),
(213,443,o),
(109,394,o),
(98,363,cs),
(76,303,ls),
(63,268,o),
(166,314,o),
(178,347,cs)
);
}
);
width = 177;
}
);
unicode = 58;
userData = {
KernOnSpecialSpacing = {
L = "spaced-off";
R = "spaced-off";
};
};
},
{
glyphname = semicolon;
kernLeft = KO_colon;
kernRight = KO_period;
lastChange = "2022-01-26 22:29:38 +0000";
layers = (
{
layerId = "2C7DDEC5-850F-4F82-8636-E075FE6DB186";
shapes = (
{
closed = 1;
nodes = (
(95,104,o),
(-8,54,o),
(-18,27,cs),
(-55,-76,o),
(-86,-124,o),
(-108,-146,cs),
(-149,-186,o),
(-59,-156,o),
(-23,-120,cs),
(21,-76,o),
(46,-30,o),
(84,75,cs)
);
},
{
closed = 1;
nodes = (
(206,407,ls),
(219,443,o),
(115,394,o),
(104,363,cs),
(82,303,ls),
(69,268,o),
(172,314,o),
(184,347,cs)
);
}
);
width = 183;
}
);
unicode = 59;
userData = {
KernOnSpecialSpacing = {
L = "spaced-off";
R = "spaced-off";
};
};
},
{
glyphname = exclam;
kernLeft = KO_exclam;
lastChange = "2022-01-26 22:38:17 +0000";
layers = (
{
layerId = "2C7DDEC5-850F-4F82-8636-E075FE6DB186";
shapes = (
{
closed = 1;
nodes = (
(38,200,o),
(109,141,o),
(119,170,cs),
(270,585,ls),
(280,611,o),
(209,670,o),
(199,641,cs),
(48,226,ls)
);
},
{
closed = 1;
nodes = (
(-33,2,o),
(38,-57,o),
(48,-28,cs),
(70,32,ls),
(80,58,o),
(9,117,o),
(-2,88,cs),
(-23,28,ls)
);
}
);
width = 183;
}
);
unicode = 33;
userData = {
KernOnName = exclam;
KernOnSpecialSpacing = {
L = "spaced-off";
};
};
},
{
glyphname = exclamdown;
lastChange = "2022-01-26 22:29:38 +0000";
layers = (
{
layerId = "2C7DDEC5-850F-4F82-8636-E075FE6DB186";
shapes = (
{
closed = 1;
nodes = (
(-97,-174,o),
(-26,-233,o),
(-16,-204,cs),
(135,211,ls),
(145,237,o),
(74,296,o),
(64,267,cs),
(-87,-148,ls)
);
},
{
closed = 1;
nodes = (
(103,379,o),
(174,320,o),
(185,349,cs),
(206,409,ls),
(216,435,o),
(145,494,o),
(135,465,cs),
(113,405,ls)
);
}
);
width = 183;
}
);
metricLeft = exclam;
metricRight = exclam;
unicode = 161;
userData = {
KernOnSpecialSpacing = {
R = "spaced-off";
};
};
},
{
glyphname = question;
kernLeft = KO_question;
kernRight = KO_quotedblleft;
lastChange = "2022-01-26 22:19:49 +0000";
layers = (
{
layerId = "2C7DDEC5-850F-4F82-8636-E075FE6DB186";
shapes = (
{
closed = 1;
nodes = (
(89,200,o),
(160,141,o),
(170,170,cs),
(219,303,ls),
(228,329,o),
(157,388,o),
(147,359,cs),
(98,226,ls)
);
},
{
closed = 1;
nodes = (
(18,2,o),
(88,-57,o),
(99,-28,cs),
(121,32,ls),
(130,58,o),
(60,117,o),
(49,88,cs),
(27,28,ls)
);
},
{
closed = 1;
nodes = (
(93,539,o),
(164,480,o),
(174,509,cs),
(203,586,o),
(291,660,o),
(352,660,cs),
(357,660,o),
(418,659,o),
(377,545,cs),
(341,448,o),
(260,368,o),
(159,368,cs),
(120,368,o),
(176,298,o),
(208,298,cs),
(315,298,o),
(408,378,o),
(448,489,cs),
(480,575,o),
(471,716,o),
(299,716,cs),
(207,716,o),
(132,644,o),
(103,565,cs)
);
}
);
width = 420;
}
);
unicode = 63;
userData = {
KernOnSpecialSpacing = {
L = "spaced-off";
};
};
},
{
glyphname = questiondown;
kernLeft = KO_slash;
kernRight = KO_questiondown;
lastChange = "2022-01-26 22:29:38 +0000";
layers = (
{
layerId = "2C7DDEC5-850F-4F82-8636-E075FE6DB186";
shapes = (
{
closed = 1;
nodes = (
(154,115,o),
(225,56,o),
(235,85,cs),
(284,218,ls),
(293,244,o),
(222,303,o),
(212,274,cs),
(163,141,ls)
);
},
{
closed = 1;
nodes = (
(252,386,o),
(322,327,o),
(333,356,cs),
(355,416,ls),
(364,442,o),
(294,501,o),
(283,472,cs),
(261,412,ls)
);
},
{
closed = 1;
nodes = (
(261,76,o),
(210,146,o),
(174,146,cs),
(69,146,o),
(-25,68,o),
(-66,-45,cs),
(-98,-131,o),
(-89,-272,o),
(83,-272,cs),
(174,-272,o),
(250,-201,o),
(279,-121,cs),
(289,-95,o),
(218,-36,o),
(208,-65,cs),
(179,-142,o),
(91,-216,o),
(30,-216,cs),
(25,-216,o),
(-36,-215,o),
(5,-101,cs),
(40,-6,o),
(120,76,o),
(223,76,cs)
);
}
);
width = 438;
}
);
unicode = 191;
userData = {
KernOnSpecialSpacing = {
R = "spaced-off";
};
};
},
{
glyphname = bullet;
lastChange = "2022-01-26 22:29:38 +0000";
layers = (
{
layerId = "2C7DDEC5-850F-4F82-8636-E075FE6DB186";
shapes = (
{
closed = 1;
nodes = (
(47,222,ls),
(28,171,o),
(171,235,o),
(189,282,cs),
(207,333,ls),
(226,385,o),
(82,319,o),
(65,273,cs)
);
}
);
width = 211;
}
);
unicode = 8226;
userData = {
KernOnSpecialSpacing = {
L = NoKerning;
R = NoKerning;
};
};
},
{
glyphname = asterisk;
kernLeft = KO_dagger;
kernRight = KO_parenleft;
lastChange = "2022-01-26 22:29:38 +0000";
layers = (
{
layerId = "2C7DDEC5-850F-4F82-8636-E075FE6DB186";
shapes = (
{
closed = 1;
nodes = (
(424,701,o),
(360,742,o),
(347,706,cs),
(306,593,ls),
(295,561,o),
(358,522,o),
(371,557,cs),
(412,670,ls)
);
},
{
closed = 1;
nodes = (
(530,576,o),
(489,637,o),
(455,627,cs),
(326,590,ls),
(288,579,o),
(329,518,o),
(364,528,cs),
(492,565,ls)
);
},
{
closed = 1;
nodes = (
(351,409,o),
(417,405,o),
(401,448,cs),
(367,546,ls),
(353,585,o),
(289,589,o),
(303,546,cs),
(337,448,ls)
);
},
{
closed = 1;
nodes = (
(161,449,o),
(216,398,o),
(242,421,cs),
(350,521,ls),
(375,544,o),
(322,597,o),
(295,573,cs),
(187,473,ls)
);
},
{
closed = 1;
nodes = (
(179,642,o),
(174,584,o),
(217,567,cs),
(313,530,ls),
(357,514,o),
(365,571,o),
(320,588,cs),
(224,625,ls)
);
}
);
width = 421;
}
);
unicode = 42;
userData = {
KernOnSpecialSpacing = {
L = quotes;
R = quotes;
};
};
},
{
glyphname = numbersign;
kernLeft = KO_equal;
kernRight = KO_colon;
lastChange = "2022-01-26 22:19:49 +0000";
layers = (
{
layerId = "2C7DDEC5-850F-4F82-8636-E075FE6DB186";
shapes = (
{
closed = 1;
nodes = (
(369,615,o),
(298,674,o),
(287,645,cs),
(63,28,ls),
(53,2,o),
(124,-57,o),
(135,-28,cs),
(359,589,ls)
);
},
{
closed = 1;
nodes = (
(608,371,o),
(557,441,o),
(521,441,cs),
(131,441,ls),
(92,441,o),
(148,371,o),
(180,371,cs),
(570,371,ls)
);
},
{
closed = 1;
nodes = (
(533,167,o),
(483,237,o),
(447,237,cs),
(57,237,ls),
(18,237,o),
(73,167,o),
(105,167,cs),
(495,167,ls)
);
},
{
closed = 1;
nodes = (
(579,615,o),
(508,674,o),
(497,645,cs),
(273,28,ls),
(263,2,o),
(334,-57,o),
(345,-28,cs),
(569,589,ls)
);
}
);
width = 565;
}
);
unicode = 35;
},
{
glyphname = slash;
kernLeft = KO_slash;
kernRight = KO_slash;
lastChange = "2022-01-26 22:29:38 +0000";
layers = (
{
layerId = "2C7DDEC5-850F-4F82-8636-E075FE6DB186";
shapes = (
{
closed = 1;
nodes = (
(698,772,o),
(631,835,o),
(613,812,cs),
(-86,-74,ls),
(-102,-94,o),
(-35,-157,o),
(-17,-134,cs),
(682,752,ls)
);
}
);
width = 509;
}
);
unicode = 47;
userData = {
KernOnSpecialSpacing = {
L = slash;
R = slash;
};
};
},
{
glyphname = backslash;
kernLeft = KO_dagger;
kernRight = KO_period;
lastChange = "2022-01-26 22:29:38 +0000";
layers = (
{
layerId = "2C7DDEC5-850F-4F82-8636-E075FE6DB186";
shapes = (
{
closed = 1;
nodes = (
(328,834,o),
(214,774,o),
(215,752,cs),
(269,-134,ls),
(271,-156,o),
(384,-95,o),
(383,-74,cs),
(329,812,ls)
);
}
);
width = 510;
}
);
unicode = 92;
userData = {
KernOnSpecialSpacing = {
L = "spaced-off";
R = "spaced-off";
};
};
},
{
glyphname = hyphen;
kernLeft = KO_hyphen;
kernRight = KO_hyphen;
lastChange = "2022-01-26 22:37:08 +0000";
layers = (
{
layerId = "2C7DDEC5-850F-4F82-8636-E075FE6DB186";
shapes = (
{
closed = 1;
nodes = (
(24,281,o),
(79,211,o),
(111,211,cs),
(327,211,ls),
(365,211,o),
(315,281,o),
(279,281,cs),
(63,281,ls)
);
}
);
width = 370;
}
);
unicode = 45;
userData = {
KernOnName = hyphen;
KernOnSpecialSpacing = {
L = hyphen;
R = hyphen;
};
};
},
{
glyphname = endash;
kernLeft = KO_hyphen;
kernRight = KO_hyphen;
lastChange = "2022-01-26 22:29:38 +0000";
layers = (
{
layerId = "2C7DDEC5-850F-4F82-8636-E075FE6DB186";
shapes = (
{
closed = 1;
nodes = (
(24,281,o),
(79,211,o),
(111,211,cs),
(408,211,ls),
(446,211,o),
(396,281,o),
(360,281,cs),
(63,281,ls)
);
}
);
width = 451;
}
);
metricLeft = hyphen;
metricRight = hyphen;
unicode = 8211;
userData = {
KernOnSpecialSpacing = {
L = dashes;
R = dashes;
};
};
},
{
glyphname = emdash;
kernLeft = KO_hyphen;
kernRight = KO_hyphen;
lastChange = "2022-01-26 22:29:38 +0000";
layers = (
{
layerId = "2C7DDEC5-850F-4F82-8636-E075FE6DB186";
shapes = (
{
closed = 1;
nodes = (
(24,281,o),
(79,211,o),
(111,211,cs),
(608,211,ls),
(646,211,o),
(596,281,o),
(560,281,cs),
(63,281,ls)
);
}
);
width = 651;
}
);
metricLeft = hyphen;
metricRight = hyphen;
unicode = 8212;
userData = {
KernOnSpecialSpacing = {
L = dashes;
R = dashes;
};
};
},
{
glyphname = underscore;
kernRight = KO_questiondown;
lastChange = "2022-01-26 22:29:38 +0000";
layers = (
{
layerId = "2C7DDEC5-850F-4F82-8636-E075FE6DB186";
shapes = (
{
closed = 1;
nodes = (
(-82,-9,o),
(-27,-79,o),
(5,-79,cs),
(421,-79,ls),
(459,-79,o),
(409,-9,o),
(373,-9,cs),
(-43,-9,ls)
);
}
);
width = 570;
}
);
metricLeft = hyphen;
metricRight = hyphen;
unicode = 95;
userData = {
KernOnSpecialSpacing = {
L = underscore;
R = underscore;
};
};
},
{
glyphname = parenleft;
kernLeft = KO_parenleft;
kernRight = KO_parenleft;
lastChange = "2022-01-26 22:37:23 +0000";
layers = (
{
layerId = "2C7DDEC5-850F-4F82-8636-E075FE6DB186";
shapes = (
{
closed = 1;
nodes = (
(441,679,o),
(382,749,o),
(357,722,cs),
(261,614,o),
(113,448,o),
(51,277,cs),
(-31,51,o),
(1,-78,o),
(30,-202,cs),
(41,-249,o),
(111,-274,o),
(98,-222,cs),
(70,-98,o),
(38,-2,o),
(120,221,cs),
(178,382,o),
(324,548,o),
(418,654,cs)
);
}
);
width = 306;
}
);
unicode = 40;
userData = {
KernOnName = parenleft;
KernOnSpecialSpacing = {
R = parenthesis;
};
};
},
{
glyphname = parenright;
kernLeft = KO_parenright;
kernRight = KO_parenright;
lastChange = "2022-01-26 22:34:33 +0000";
layers = (
{
layerId = "2C7DDEC5-850F-4F82-8636-E075FE6DB186";
shapes = (
{
closed = 1;
nodes = (
(278,725,o),
(209,750,o),
(221,698,cs),
(248,574,o),
(280,480,o),
(198,255,cs),
(140,94,o),
(-5,-72,o),
(-99,-178,cs),
(-122,-203,o),
(-62,-273,o),
(-38,-246,cs),
(59,-138,o),
(206,28,o),
(268,199,cs),
(350,424,o),
(319,554,o),
(289,678,cs)
);
}
);
width = 305;
}
);
unicode = 41;
userData = {
KernOnName = parenright;
KernOnSpecialSpacing = {
L = parenthesis;
};
};
},
{
glyphname = braceleft;
kernRight = KO_parenleft;
lastChange = "2022-01-26 22:29:38 +0000";
layers = (
{
layerId = "2C7DDEC5-850F-4F82-8636-E075FE6DB186";
shapes = (
{
closed = 1;
nodes = (
(457,649,o),
(416,727,o),
(378,727,cs),
(287,727,ls),
(281,727,o),
(272,722,o),
(270,716,cs),
(162,420,ls),
(143,366,o),
(111,320,o),
(46,281,cs),
(31,272,o),
(37,243,o),
(57,223,cs),
(63,216,o),
(75,180,o),
(56,127,cs),
(-58,-184,ls),
(-70,-218,o),
(-44,-251,o),
(-5,-251,cs),
(86,-251,ls),
(129,-251,o),
(88,-173,o),
(50,-173,cs),
(-41,-173,l),
(12,-240,l),
(125,71,ls),
(147,132,o),
(156,196,o),
(90,265,c),
(101,207,l),
(171,250,o),
(209,302,o),
(232,364,cs),
(340,660,l),
(333,656,o),
(328,653,o),
(323,649,c),
(414,649,ls)
);
}
);
width = 311;
}
);
unicode = 123;
userData = {
KernOnSpecialSpacing = {
R = parenthesis;
};
};
},
{
glyphname = braceright;
kernLeft = KO_parenright;
lastChange = "2022-01-26 22:29:38 +0000";
layers = (
{
layerId = "2C7DDEC5-850F-4F82-8636-E075FE6DB186";
shapes = (
{
closed = 1;
nodes = (
(196,727,o),
(237,649,o),
(275,649,cs),
(366,649,l),
(313,716,l),
(205,420,ls),
(184,361,o),
(169,297,o),
(239,223,c),
(229,281,l),
(163,241,o),
(120,187,o),
(99,127,cs),
(-15,-184,l),
(-8,-180,o),
(-3,-177,o),
(2,-173,c),
(-89,-173,ls),
(-132,-173,o),
(-91,-251,o),
(-53,-251,cs),
(38,-251,ls),
(44,-251,o),
(53,-246,o),
(55,-240,cs),
(168,71,ls),
(188,125,o),
(222,171,o),
(284,207,cs),
(298,216,o),
(292,244,o),
(274,265,cs),
(267,273,o),
(254,307,o),
(275,364,cs),
(383,660,ls),
(395,694,o),
(369,727,o),
(330,727,cs),
(239,727,ls)
);
}
);
width = 312;
}
);
unicode = 125;
userData = {
KernOnSpecialSpacing = {
L = parenthesis;
};
};
},
{
glyphname = bracketleft;
kernRight = KO_bracketleft;
lastChange = "2022-01-26 22:29:38 +0000";
layers = (
{
layerId = "2C7DDEC5-850F-4F82-8636-E075FE6DB186";
shapes = (
{
closed = 1;
nodes = (
(406,649,o),
(365,727,o),
(327,727,cs),
(243,727,ls),
(237,727,o),
(228,722,o),
(226,716,cs),
(-102,-184,ls),
(-114,-218,o),
(-88,-251,o),
(-49,-251,cs),
(35,-251,ls),
(78,-251,o),
(37,-173,o),
(-1,-173,cs),
(-85,-173,l),
(-32,-240,l),
(296,660,l),
(289,656,o),
(284,653,o),
(279,649,c),
(363,649,ls)
);
}
);
width = 240;
}
);
unicode = 91;
userData = {
KernOnSpecialSpacing = {
L = NoKerning;
R = parenthesis;
};
};
},
{
glyphname = bracketright;
kernLeft = KO_period;
lastChange = "2022-01-26 22:29:38 +0000";
layers = (
{
layerId = "2C7DDEC5-850F-4F82-8636-E075FE6DB186";
shapes = (
{
closed = 1;
nodes = (
(176,727,o),
(217,649,o),
(255,649,cs),
(339,649,l),
(286,716,l),
(-42,-184,l),
(-35,-180,o),
(-30,-177,o),
(-25,-173,c),
(-109,-173,ls),
(-152,-173,o),
(-111,-251,o),
(-73,-251,cs),
(11,-251,ls),
(17,-251,o),
(26,-246,o),
(28,-240,cs),
(356,660,ls),
(368,694,o),
(342,727,o),
(303,727,cs),
(219,727,ls)
);
}
);
width = 240;
}
);
unicode = 93;
userData = {
KernOnSpecialSpacing = {
L = parenthesis;
R = NoKerning;
};
};
},
{
glyphname = quoteleft;
kernLeft = KO_quoteright;
kernRight = KO_quoteleft;
lastChange = "2022-01-26 22:19:49 +0000";
layers = (
{
layerId = "2C7DDEC5-850F-4F82-8636-E075FE6DB186";
shapes = (
{
closed = 1;
nodes = (
(355,707,o),
(268,680,o),
(231,642,cs),
(186,598,o),
(162,552,o),
(116,427,cs),
(106,398,o),
(208,449,o),
(218,475,cs),
(262,598,o),
(294,646,o),
(316,668,cs)
);
}
);
width = 187;
}
);
unicode = 8216;
userData = {
KernOnSpecialSpacing = {
L = quotes;
R = quotes;
};
};
},
{
glyphname = quoteright;
kernLeft = KO_quoteright;
kernRight = KO_quoteleft;
lastChange = "2022-01-26 22:34:40 +0000";
layers = (
{
layerId = "2C7DDEC5-850F-4F82-8636-E075FE6DB186";
shapes = (
{
closed = 1;
nodes = (
(325,708,o),
(223,658,o),
(213,631,cs),
(168,507,o),
(137,460,o),
(115,438,cs),
(74,398,o),
(164,428,o),
(200,464,cs),
(244,508,o),
(270,555,o),
(315,679,cs)
);
}
);
width = 188;
}
);
unicode = 8217;
userData = {
KernOnName = quoteright;
KernOnSpecialSpacing = {
L = quotes;
R = quotes;
};
};
},
{
glyphname = guilsinglleft;
kernLeft = KO_guillemetleft;
kernRight = KO_guillemetleft;
lastChange = "2022-01-26 22:29:38 +0000";
layers = (
{
layerId = "2C7DDEC5-850F-4F82-8636-E075FE6DB186";
shapes = (
{
closed = 1;
nodes = (
(444,427,o),
(379,492,o),
(357,475,cs),
(26,231,l),
(18,226,o),
(24,206,o),
(37,192,cs),
(207,-4,ls),
(244,-48,o),
(289,-34,o),
(250,10,cs),
(80,206,l),
(90,167,l),
(421,411,ls)
);
}
);
width = 383;
}
);
unicode = 8249;
userData = {
KernOnSpecialSpacing = {
L = quotes;
R = quotes;
};
};
},
{
glyphname = guilsinglright;
kernLeft = KO_guillemetright;
kernRight = KO_guillemetright;
lastChange = "2022-01-26 22:29:38 +0000";
layers = (
{
layerId = "2C7DDEC5-850F-4F82-8636-E075FE6DB186";
shapes = (
{
closed = 1;
nodes = (
(142,492,o),
(95,481,o),
(136,436,cs),
(306,240,l),
(296,279,l),
(-35,35,ls),
(-58,19,o),
(7,-46,o),
(30,-29,cs),
(360,215,l),
(368,220,o),
(362,240,o),
(350,254,cs),
(179,450,ls)
);
}
);
width = 383;
}
);
unicode = 8250;
userData = {
KernOnSpecialSpacing = {
L = quotes;
R = quotes;
};
};
},
{
glyphname = quotesingle;
kernLeft = KO_quotedbl;
kernRight = KO_quotedbl;
lastChange = "2022-01-26 22:33:58 +0000";
layers = (
{
layerId = "2C7DDEC5-850F-4F82-8636-E075FE6DB186";
shapes = (
{
closed = 1;
nodes = (
(304,689,o),
(209,668,o),
(200,645,cs),
(126,442,ls),
(118,418,o),
(213,438,o),
(222,462,cs),
(296,665,ls)
);
}
);
width = 179;
}
);
unicode = 39;
userData = {
KernOnName = quotesingle;
KernOnSpecialSpacing = {
L = quotes;
R = quotes;
};
};
},
{
glyphname = florin;
lastChange = "2022-01-26 22:29:38 +0000";
layers = (
{
layerId = "2C7DDEC5-850F-4F82-8636-E075FE6DB186";
shapes = (
{
closed = 1;
nodes = (
(530,403,o),
(480,473,o),
(444,473,cs),
(190,473,ls),
(151,473,o),
(206,403,o),
(238,403,cs),
(492,403,ls)
);
},
{
closed = 1;
nodes = (
(665,653,o),
(615,723,o),
(579,723,cs),
(473,723,o),
(401,643,o),
(359,566,cs),
(150,180,ls),
(112,111,o),
(33,35,o),
(-47,35,cs),
(-86,35,o),
(-31,-35,o),
(1,-35,cs),
(113,-35,o),
(182,49,o),
(221,122,cs),
(430,508,ls),
(465,573,o),
(541,653,o),
(627,653,cs)
);
}
);
width = 499;
}
);
metricRight = f;
unicode = 402;
userData = {
KernOnSpecialSpacing = {
L = NoKerning;
R = NoKerning;
};
};
},
{
glyphname = whiteSmilingFace;
kernLeft = KO_whiteSmilingFace;
kernRight = KO_plus;
lastChange = "2022-01-26 22:19:49 +0000";
layers = (
{
layerId = "2C7DDEC5-850F-4F82-8636-E075FE6DB186";
shapes = (
{
closed = 1;
nodes = (
(144,269,o),
(72,325,o),
(67,291,cs),
(54,184,o),
(124,57,o),
(270,57,cs),
(388,57,o),
(493,127,o),
(561,237,cs),
(575,259,o),
(505,321,o),
(490,297,cs),
(428,197,o),
(305,119,o),
(231,119,cs),
(179,119,o),
(128,138,o),
(141,241,cs)
);
},
{
closed = 1;
nodes = (
(316,513,o),
(246,572,o),
(235,543,cs),
(215,487,ls),
(205,461,o),
(276,402,o),
(286,431,cs),
(307,487,ls)
);
},
{
closed = 1;
nodes = (
(563,513,o),
(493,572,o),
(482,543,cs),
(462,487,ls),
(452,461,o),
(523,402,o),
(533,431,cs),
(554,487,ls)
);
}
);
width = 595;
}
);
unicode = 9786;
},
{
glyphname = heartWhiteSuit;
lastChange = "2022-01-26 22:29:38 +0000";
layers = (
{
layerId = "2C7DDEC5-850F-4F82-8636-E075FE6DB186";
shapes = (
{
closed = 1;
nodes = (
(418,461,o),
(429,353,o),
(454,374,cs),
(522,435,o),
(599,494,o),
(655,494,cs),
(686,494,o),
(697,473,o),
(677,416,cs),
(632,295,o),
(427,189,o),
(252,98,cs),
(225,84,o),
(291,19,o),
(314,32,cs),
(480,117,o),
(674,195,o),
(736,362,cs),
(762,437,o),
(732,564,o),
(606,564,cs),
(555,564,o),
(494,529,o),
(438,480,cs)
);
},
{
closed = 1;
nodes = (
(210,140,o),
(252,155,o),
(212,200,cs),
(181,234,o),
(161,301,o),
(191,383,cs),
(216,450,o),
(289,500,o),
(339,500,cs),
(401,500,o),
(408,468,o),
(425,397,cs),
(440,340,o),
(472,383,o),
(457,443,cs),
(435,538,o),
(370,570,o),
(290,570,cs),
(234,570,o),
(150,524,o),
(120,439,cs),
(86,347,o),
(90,270,o),
(171,182,cs)
);
}
);
width = 724;
}
);
unicode = 9825;
userData = {
KernOnSpecialSpacing = {
L = NoKerning;
R = NoKerning;
};
};
},
{
glyphname = at;
lastChange = "2022-01-26 22:29:38 +0000";
layers = (
{
layerId = "2C7DDEC5-850F-4F82-8636-E075FE6DB186";
shapes = (
{
closed = 1;
nodes = (
(687,474,o),
(573,450,o),
(563,425,cs),
(501,254,o),
(440,-5,o),
(568,-5,cs),
(750,-5,o),
(809,141,o),
(844,237,cs),
(919,444,o),
(843,598,o),
(624,598,cs),
(295,598,o),
(98,408,o),
(27,211,cs),
(-65,-40,o),
(48,-303,o),
(527,-116,cs),
(595,-89,o),
(542,-73,o),
(474,-100,cs),
(246,-189,o),
(35,-56,o),
(142,237,cs),
(227,471,o),
(419,554,o),
(546,554,cs),
(712,554,o),
(804,419,o),
(729,211,cs),
(674,61,o),
(638,47,o),
(625,47,cs),
(587,47,o),
(604,246,o),
(679,451,cs)
);
},
{
closed = 1;
nodes = (
(620,416,o),
(704,460,o),
(645,460,cs),
(436,460,o),
(266,365,o),
(202,189,cs),
(160,76,o),
(205,-41,o),
(294,-41,cs),
(517,-41,o),
(543,195,o),
(580,298,c),
(522,298,l),
(470,154,o),
(447,41,o),
(368,41,cs),
(323,41,o),
(278,108,o),
(317,215,cs),
(393,423,o),
(498,416,o),
(567,416,cs)
);
}
);
width = 867;
}
);
unicode = 64;
userData = {
KernOnSpecialSpacing = {
L = symbols;
R = symbols;
};
};
},
{
glyphname = ampersand;
kernLeft = KO_ampersand;
kernRight = KO_ampersand;
lastChange = "2022-01-26 22:29:38 +0000";
layers = (
{
layerId = "2C7DDEC5-850F-4F82-8636-E075FE6DB186";
shapes = (
{
closed = 1;
nodes = (
(463,-35,o),
(412,35,o),
(376,35,cs),
(287,35,o),
(272,332,o),
(321,466,cs),
(345,532,o),
(393,582,o),
(449,582,cs),
(451,582,o),
(492,574,o),
(443,504,cs),
(366,396,o),
(88,378,o),
(13,171,cs),
(-25,69,o),
(24,-38,o),
(164,-38,cs),
(302,-38,o),
(450,110,o),
(502,251,cs),
(511,277,o),
(441,336,o),
(430,307,cs),
(390,196,o),
(251,18,o),
(111,18,cs),
(77,18,o),
(48,55,o),
(71,117,cs),
(123,260,o),
(386,296,o),
(474,420,cs),
(543,517,o),
(512,652,o),
(401,652,cs),
(341,652,o),
(281,608,o),
(249,522,cs),
(239,493,o),
(95,-35,o),
(425,-35,cs)
);
}
);
width = 553;
}
);
unicode = 38;
userData = {
KernOnSpecialSpacing = {
L = symbols;
R = symbols;
};
};
},
{
glyphname = paragraph;
lastChange = "2022-01-26 22:29:38 +0000";
layers = (
{
layerId = "2C7DDEC5-850F-4F82-8636-E075FE6DB186";
shapes = (
{
closed = 1;
nodes = (
(533,705,o),
(463,764,o),
(452,735,cs),
(121,-174,ls),
(112,-200,o),
(182,-259,o),
(193,-230,cs),
(524,679,ls)
);
},
{
closed = 1;
nodes = (
(716,708,o),
(646,767,o),
(635,738,cs),
(303,-174,ls),
(294,-200,o),
(364,-259,o),
(375,-230,cs),
(707,682,ls)
);
},
{
closed = 1;
nodes = (
(549,675,o),
(499,745,o),
(463,745,cs),
(317,745,o),
(190,657,o),
(139,518,cs),
(99,409,o),
(92,320,o),
(197,234,cs),
(241,197,o),
(263,233,o),
(217,272,cs),
(190,294,o),
(158,345,o),
(197,452,cs),
(243,577,o),
(379,675,o),
(511,675,cs)
);
}
);
width = 583;
}
);
unicode = 182;
userData = {
KernOnSpecialSpacing = {
L = NoKerning;
R = NoKerning;
};
};
},
{
glyphname = section;
kernLeft = KO_period;
lastChange = "2022-01-26 22:29:38 +0000";
layers = (
{
layerId = "2C7DDEC5-850F-4F82-8636-E075FE6DB186";
shapes = (
{
closed = 1;
nodes = (
(426,388,o),
(429,386,o),
(434,386,cs),
(457,386,o),
(533,428,o),
(540,449,cs),
(585,589,o),
(511,655,o),
(419,655,cs),
(337,655,o),
(242,603,o),
(206,504,cs),
(136,310,o),
(416,264,o),
(354,95,cs),
(345,70,o),
(328,41,o),
(301,9,cs),
(297,5,o),
(296,2,o),
(295,0,cs),
(294,-4,o),
(296,-6,o),
(301,-6,cs),
(321,-6,o),
(382,23,o),
(403,49,cs),
(438,90,o),
(459,124,o),
(470,155,cs),
(535,335,o),
(258,369,o),
(321,546,cs),
(330,571,o),
(369,598,o),
(402,598,cs),
(445,598,o),
(479,552,o),
(428,393,cs)
);
},
{
closed = 1;
nodes = (
(273,424,o),
(274,427,o),
(275,429,cs),
(276,433,o),
(275,435,o),
(270,435,cs),
(203,435,o),
(119,334,o),
(92,260,cs),
(23,69,o),
(294,31,o),
(251,-115,cs),
(230,-183,o),
(202,-184,o),
(173,-184,cs),
(107,-184,o),
(47,-79,o),
(42,-2,cs),
(42,1,o),
(39,3,o),
(35,3,cs),
(9,3,o),
(-73,-43,o),
(-72,-62,cs),
(-65,-145,o),
(-20,-240,o),
(78,-240,cs),
(281,-240,o),
(355,-86,o),
(363,-59,cs),
(409,95,o),
(141,140,o),
(207,320,cs),
(218,349,o),
(238,383,o),
(270,421,c)
);
}
);
width = 523;
}
);
unicode = 167;
userData = {
KernOnSpecialSpacing = {
R = symbols;
};
};
},
{
glyphname = copyright;
kernLeft = KO_guillemetright;
lastChange = "2022-01-26 22:29:38 +0000";
layers = (
{
layerId = "2C7DDEC5-850F-4F82-8636-E075FE6DB186";
shapes = (
{
closed = 1;
nodes = (
(407,-27,o),
(585,107,o),
(652,291,cs),
(711,455,o),
(644,644,o),
(460,644,cs),
(313,644,o),
(135,509,o),
(69,327,cs),
(9,162,o),
(76,-27,o),
(260,-27,cs)
);
},
{
closed = 1;
nodes = (
(124,27,o),
(59,114,o),
(124,291,cs),
(180,447,o),
(339,590,o),
(484,590,cs),
(596,590,o),
(661,503,o),
(597,327,cs),
(540,171,o),
(381,27,o),
(236,27,cs)
);
},
{
closed = 1;
nodes = (
(491,239,o),
(411,220,o),
(389,193,cs),
(350,143,o),
(326,141,o),
(310,141,cs),
(256,141,o),
(232,207,o),
(274,323,cs),
(322,455,o),
(388,476,o),
(402,476,cs),
(472,476,o),
(476,399,o),
(452,333,cs),
(442,306,o),
(523,342,o),
(533,369,cs),
(558,437,o),
(562,530,o),
(466,530,cs),
(334,530,o),
(230,388,o),
(193,287,cs),
(154,179,o),
(152,89,o),
(259,89,cs),
(333,89,o),
(425,157,o),
(467,209,cs)
);
}
);
width = 656;
}
);
unicode = 169;
userData = {
KernOnSpecialSpacing = {
R = symbols;
};
};
},
{
glyphname = registered;
lastChange = "2022-01-26 22:29:38 +0000";
layers = (
{
layerId = "2C7DDEC5-850F-4F82-8636-E075FE6DB186";
shapes = (
{
closed = 1;
nodes = (
(173,252,o),
(221,218,o),
(230,242,cs),
(334,530,l),
(321,522,l),
(381,522,ls),
(412,522,o),
(420,510,o),
(413,491,cs),
(391,430,o),
(316,398,o),
(252,393,cs),
(222,391,o),
(253,345,o),
(279,347,cs),
(342,352,o),
(426,378,o),
(453,453,cs),
(481,528,o),
(400,570,o),
(359,570,cs),
(299,570,ls),
(294,570,o),
(288,566,o),
(286,562,cs),
(181,274,ls)
);
},
{
closed = 1;
nodes = (
(328,238,o),
(379,220,o),
(374,250,cs),
(356,374,ls),
(352,402,o),
(301,420,o),
(305,390,cs),
(324,266,ls)
);
},
{
closed = 1;
nodes = (
(359,153,o),
(487,249,o),
(535,381,cs),
(577,497,o),
(535,641,o),
(392,641,cs),
(287,641,o),
(159,545,o),
(111,413,cs),
(69,297,o),
(111,153,o),
(254,153,cs)
);
},
{
closed = 1;
nodes = (
(168,201,o),
(114,256,o),
(159,381,cs),
(199,491,o),
(311,593,o),
(414,593,cs),
(478,593,o),
(532,538,o),
(487,413,cs),
(447,303,o),
(335,201,o),
(232,201,cs)
);
}
);
width = 516;
}
);
unicode = 174;
userData = {
KernOnSpecialSpacing = {
L = superiors;
};
};
},
{
glyphname = degree;
kernLeft = KO_quoteright;
kernRight = KO_degree;
lastChange = "2022-01-26 22:29:38 +0000";
layers = (
{
layerId = "2C7DDEC5-850F-4F82-8636-E075FE6DB186";
shapes = (
{
closed = 1;
nodes = (
(308,416,o),
(356,461,o),
(378,521,cs),
(397,575,o),
(387,658,o),
(299,658,cs),
(230,658,o),
(183,613,o),
(163,557,cs),
(142,500,o),
(153,416,o),
(242,416,cs)
);
},
{
closed = 1;
nodes = (
(224,460,o),
(196,460,o),
(219,521,cs),
(238,575,o),
(288,614,o),
(315,614,cs),
(317,614,o),
(343,614,o),
(322,557,cs),
(301,498,o),
(251,460,o),
(226,460,cs)
);
}
);
width = 308;
}
);
unicode = 176;
userData = {
KernOnSpecialSpacing = {
L = superiors;
};
};
},
{
glyphname = bar;
lastChange = "2022-01-26 22:29:38 +0000";
layers = (
{
layerId = "2C7DDEC5-850F-4F82-8636-E075FE6DB186";
shapes = (
{
closed = 1;
nodes = (
(307,686,o),
(237,745,o),
(226,716,cs),
(-102,-184,ls),
(-111,-210,o),
(-41,-269,o),
(-30,-240,cs),
(298,660,ls)
);
}
);
width = 182;
}
);
unicode = 124;
userData = {
KernOnSpecialSpacing = {
L = NoKerning;
R = NoKerning;
};
};
},
{
glyphname = brokenbar;
lastChange = "2022-01-26 22:19:49 +0000";
layers = (
{
layerId = "2C7DDEC5-850F-4F82-8636-E075FE6DB186";
shapes = (
{
closed = 1;
nodes = (
(307,686,o),
(237,745,o),
(226,716,cs),
(88,336,ls),
(78,310,o),
(149,251,o),
(159,280,cs),
(298,660,ls)
);
},
{
closed = 1;
nodes = (
(122,176,o),
(52,235,o),
(41,206,cs),
(-101,-184,ls),
(-110,-210,o),
(-40,-269,o),
(-29,-240,cs),
(113,150,ls)
);
}
);
width = 183;
}
);
unicode = 166;
},
{
glyphname = dagger;
kernLeft = KO_dagger;
kernRight = KO_degree;
lastChange = "2022-01-26 22:19:49 +0000";
layers = (
{
layerId = "2C7DDEC5-850F-4F82-8636-E075FE6DB186";
shapes = (
{
closed = 1;
nodes = (
(383,689,o),
(318,741,o),
(308,712,cs),
(186,378,ls),
(177,353,o),
(242,301,o),
(252,330,cs),
(374,664,ls)
);
},
{
closed = 1;
nodes = (
(157,616,o),
(204,552,o),
(236,552,cs),
(410,552,ls),
(448,552,o),
(405,616,o),
(370,616,cs),
(196,616,ls)
);
}
);
width = 340;
}
);
unicode = 8224;
},
{
glyphname = daggerdbl;
kernLeft = KO_quotedbl;
lastChange = "2022-01-26 22:19:49 +0000";
layers = (
{
layerId = "2C7DDEC5-850F-4F82-8636-E075FE6DB186";
shapes = (
{
closed = 1;
nodes = (
(391,686,o),
(321,745,o),
(310,716,cs),
(188,382,ls),
(179,356,o),
(249,297,o),
(260,326,cs),
(382,660,ls)
);
},
{
closed = 1;
nodes = (
(158,619,o),
(213,549,o),
(245,549,cs),
(419,549,ls),
(457,549,o),
(407,619,o),
(371,619,cs),
(197,619,ls)
);
},
{
closed = 1;
nodes = (
(110,489,o),
(166,419,o),
(198,419,cs),
(372,419,ls),
(410,419,o),
(359,489,o),
(323,489,cs),
(149,489,ls)
);
}
);
width = 350;
}
);
unicode = 8225;
},
{
glyphname = bitcoin;
lastChange = "2022-01-26 22:19:49 +0000";
layers = (
{
layerId = "2C7DDEC5-850F-4F82-8636-E075FE6DB186";
shapes = (
{
closed = 1;
nodes = (
(270,616,o),
(335,564,o),
(346,593,cs),
(376,675,ls),
(385,700,o),
(320,752,o),
(309,723,cs),
(279,641,ls)
);
},
{
closed = 1;
nodes = (
(400,616,o),
(465,564,o),
(476,593,cs),
(506,675,ls),
(515,700,o),
(450,752,o),
(439,723,cs),
(409,641,ls)
);
},
{
closed = 1;
nodes = (
(9,-101,o),
(74,-153,o),
(85,-124,cs),
(118,-34,ls),
(127,-9,o),
(62,43,o),
(51,14,cs),
(18,-76,ls)
);
},
{
closed = 1;
nodes = (
(139,-101,o),
(204,-153,o),
(215,-124,cs),
(248,-34,ls),
(257,-9,o),
(192,43,o),
(181,14,cs),
(148,-76,ls)
);
},
{
closed = 1;
nodes = (
(175,652,o),
(231,582,o),
(263,582,cs),
(384,582,ls),
(476,582,o),
(486,563,o),
(468,513,cs),
(442,442,o),
(325,378,o),
(204,378,cs),
(165,378,o),
(220,308,o),
(252,308,cs),
(397,308,o),
(498,370,o),
(526,447,cs),
(580,597,o),
(398,652,o),
(335,652,cs),
(214,652,ls)
);
},
{
closed = 1;
nodes = (
(149,378,o),
(204,308,o),
(236,308,cs),
(383,308,o),
(405,268,o),
(386,216,cs),
(320,37,o),
(121,35,o),
(-10,35,cs),
(-49,35,o),
(6,-35,o),
(38,-35,cs),
(181,-35,o),
(376,-37,o),
(444,150,cs),
(505,320,o),
(296,378,o),
(188,378,cs)
);
},
{
closed = 1;
nodes = (
(-32,7,o),
(38,-52,o),
(49,-23,cs),
(271,587,ls),
(280,613,o),
(210,672,o),
(199,643,cs),
(-23,33,ls)
);
}
);
width = 499;
}
);
metricLeft = B;
metricRight = B;
unicode = 8383;
},
{
glyphname = cedi;
kernLeft = KO_guillemetright;
lastChange = "2022-01-26 22:29:38 +0000";
layers = (
{
layerId = "2C7DDEC5-850F-4F82-8636-E075FE6DB186";
shapes = (
{
closed = 1;
nodes = (
(510,169,o),
(396,148,o),
(377,122,cs),
(307,29,o),
(259,24,o),
(236,24,cs),
(163,24,o),
(85,125,o),
(157,323,cs),
(239,548,o),
(366,592,o),
(402,592,cs),
(480,592,o),
(530,480,o),
(483,352,cs),
(473,323,o),
(575,374,o),
(585,400,cs),
(644,564,o),
(577,662,o),
(501,662,cs),
(269,662,o),
(113,444,o),
(61,303,cs),
(-3,125,o),
(3,-44,o),
(183,-44,cs),
(329,-44,o),
(430,64,o),
(490,142,cs)
);
},
{
closed = 1;
nodes = (
(117,-104,o),
(180,-156,o),
(194,-118,cs),
(488,690,ls),
(501,724,o),
(438,776,o),
(424,738,cs),
(130,-70,ls)
);
}
);
width = 539;
}
);
metricLeft = C;
metricRight = C;
unicode = 8373;
userData = {
KernOnSpecialSpacing = {
L = symbols;
R = symbols;
};
};
},
{
glyphname = cent;
lastChange = "2022-02-17 04:51:28 +0000";
layers = (
{
layerId = "2C7DDEC5-850F-4F82-8636-E075FE6DB186";
shapes = (
{
closed = 1;
nodes = (
(358,348,o),
(473,406,o),
(483,433,cs),
(513,511,o),
(477,580,o),
(405,580,cs),
(233,580,o),
(96,395,o),
(57,293,cs),
(11,172,o),
(31,66,o),
(140,66,cs),
(237,66,o),
(334,130,o),
(406,226,cs),
(440,270,o),
(340,217,o),
(309,176,cs),
(272,127,o),
(248,128,o),
(226,128,cs),
(161,128,o),
(121,219,o),
(171,349,cs),
(231,507,o),
(295,510,o),
(304,510,cs),
(368,510,o),
(394,441,o),
(369,377,cs)
);
},
{
closed = 1;
nodes = (
(292,532,o),
(361,473,o),
(372,502,cs),
(413,609,ls),
(423,635,o),
(354,694,o),
(343,665,cs),
(302,558,ls)
);
},
{
closed = 1;
nodes = (
(87,-3,o),
(156,-62,o),
(167,-33,cs),
(207,72,ls),
(217,98,o),
(148,157,o),
(137,128,cs),
(97,23,ls)
);
}
);
width = 426;
}
);
metricLeft = c;
metricRight = c;
unicode = 162;
userData = {
KernOnSpecialSpacing = {
L = symbols;
R = symbols;
};
};
},
{
glyphname = colonsign;
kernLeft = KO_guillemetright;
lastChange = "2022-01-26 22:29:38 +0000";
layers = (
{
layerId = "2C7DDEC5-850F-4F82-8636-E075FE6DB186";
shapes = (
{
closed = 1;
nodes = (
(510,169,o),
(396,148,o),
(377,122,cs),
(307,29,o),
(259,24,o),
(236,24,cs),
(163,24,o),
(85,125,o),
(157,323,cs),
(239,548,o),
(366,592,o),
(402,592,cs),
(480,592,o),
(530,480,o),
(483,352,cs),
(473,323,o),
(575,374,o),
(585,400,cs),
(644,564,o),
(577,662,o),
(501,662,cs),
(269,662,o),
(113,444,o),
(61,303,cs),
(-3,125,o),
(3,-44,o),
(183,-44,cs),
(329,-44,o),
(430,64,o),
(490,142,cs)
);
},
{
closed = 1;
nodes = (
(-50,-104,o),
(2,-145,o),
(21,-114,cs),
(509,694,ls),
(528,724,o),
(476,765,o),
(457,734,cs),
(-31,-74,ls)
);
},
{
closed = 1;
nodes = (
(80,-104,o),
(132,-145,o),
(151,-114,cs),
(639,694,ls),
(658,724,o),
(606,765,o),
(587,734,cs),
(99,-74,ls)
);
}
);
width = 539;
}
);
metricLeft = C;
metricRight = C;
unicode = 8353;
userData = {
KernOnSpecialSpacing = {
L = symbols;
R = symbols;
};
};
},
{
glyphname = currency;
lastChange = "2022-01-26 22:19:49 +0000";
layers = (
{
layerId = "2C7DDEC5-850F-4F82-8636-E075FE6DB186";
shapes = (
{
closed = 1;
nodes = (
(340,48,o),
(457,131,o),
(501,251,cs),
(534,344,o),
(490,501,o),
(343,501,cs),
(247,501,o),
(130,418,o),
(87,299,cs),
(52,202,o),
(98,48,o),
(243,48,cs)
);
},
{
closed = 1;
nodes = (
(159,112,o),
(110,131,o),
(154,251,cs),
(188,346,o),
(289,437,o),
(383,437,cs),
(432,437,o),
(477,418,o),
(434,299,cs),
(399,203,o),
(297,112,o),
(202,112,cs)
);
},
{
closed = 1;
nodes = (
(200,393,o),
(256,390,o),
(227,434,cs),
(195,483,ls),
(170,523,o),
(113,525,o),
(142,481,cs),
(175,432,ls)
);
},
{
closed = 1;
nodes = (
(632,469,o),
(572,528,o),
(551,512,cs),
(515,486,o),
(481,461,o),
(447,435,cs),
(424,419,o),
(483,360,o),
(505,376,cs),
(609,452,ls)
);
},
{
closed = 1;
nodes = (
(426,27,o),
(484,22,o),
(457,65,cs),
(421,123,ls),
(397,163,o),
(339,168,o),
(366,125,cs),
(402,67,ls)
);
},
{
closed = 1;
nodes = (
(168,122,o),
(108,180,o),
(86,164,cs),
(-11,96,ls),
(-34,79,o),
(26,20,o),
(47,36,cs),
(144,105,ls)
);
}
);
width = 558;
}
);
unicode = 164;
},
{
glyphname = dollar;
kernLeft = KO_ampersand;
lastChange = "2022-01-26 22:29:38 +0000";
layers = (
{
layerId = "2C7DDEC5-850F-4F82-8636-E075FE6DB186";
shapes = (
{
closed = 1;
nodes = (
(358,637,o),
(421,585,o),
(435,623,cs),
(459,690,ls),
(472,724,o),
(409,776,o),
(395,738,cs),
(370,671,ls)
);
},
{
closed = 1;
nodes = (
(88,-104,o),
(151,-156,o),
(165,-118,cs),
(196,-34,ls),
(208,0,o),
(145,52,o),
(131,14,cs),
(101,-70,ls)
);
},
{
closed = 1;
nodes = (
(403,379,o),
(501,427,o),
(510,453,cs),
(562,597,o),
(521,657,o),
(431,657,cs),
(297,657,o),
(213,566,o),
(188,496,cs),
(109,280,o),
(371,228,o),
(318,83,cs),
(292,10,o),
(249,2,o),
(206,2,cs),
(167,2,o),
(99,115,o),
(94,187,cs),
(92,208,o),
(-6,157,o),
(-5,135,cs),
(2,47,o),
(38,-40,o),
(145,-40,cs),
(287,-40,o),
(383,42,o),
(415,129,cs),
(474,292,o),
(211,340,o),
(284,542,cs),
(309,610,o),
(359,615,o),
(370,615,cs),
(399,615,o),
(466,553,o),
(413,407,cs)
);
}
);
width = 473;
}
);
metricLeft = S;
metricRight = S;
unicode = 36;
userData = {
KernOnSpecialSpacing = {
L = symbols;
R = symbols;
};
};
},
{
glyphname = dong;
lastChange = "2022-01-26 22:19:49 +0000";
layers = (
{
layerId = "2C7DDEC5-850F-4F82-8636-E075FE6DB186";
shapes = (
{
closed = 1;
nodes = (
(347,-142,o),
(314,-70,o),
(277,-70,cs),
(-28,-70,ls),
(-71,-70,o),
(-38,-142,o),
(-1,-142,cs),
(304,-142,ls)
);
},
{
closed = 1;
nodes = (
(622,530,o),
(588,602,o),
(551,602,cs),
(286,602,ls),
(243,602,o),
(277,530,o),
(314,530,cs),
(579,530,ls)
);
},
{
closed = 1;
nodes = (
(590,686,o),
(519,745,o),
(509,716,cs),
(258,28,ls),
(249,2,o),
(319,-57,o),
(330,-28,cs),
(580,660,ls)
);
},
{
closed = 1;
nodes = (
(400,413,o),
(350,483,o),
(314,483,cs),
(199,483,o),
(77,348,o),
(33,228,cs),
(-101,-141,o),
(225,-159,o),
(410,349,c),
(375,349,l),
(248,1,o),
(42,-1,o),
(105,172,cs),
(141,272,o),
(245,413,o),
(362,413,cs)
);
}
);
width = 491;
}
);
metricLeft = d;
metricRight = dcroat;
unicode = 8363;
},
{
glyphname = euro;
kernLeft = KO_parenleft;
lastChange = "2022-01-26 22:29:38 +0000";
layers = (
{
layerId = "2C7DDEC5-850F-4F82-8636-E075FE6DB186";
shapes = (
{
closed = 1;
nodes = (
(512,167,o),
(400,146,o),
(379,120,cs),
(309,26,o),
(252,20,o),
(249,20,cs),
(189,20,o),
(136,107,o),
(212,316,cs),
(293,538,o),
(415,597,o),
(425,597,cs),
(478,597,o),
(519,507,o),
(492,436,cs),
(484,412,o),
(600,438,o),
(609,462,cs),
(623,501,o),
(633,657,o),
(484,657,cs),
(276,657,o),
(156,453,o),
(96,290,cs),
(33,116,o),
(35,-40,o),
(190,-40,cs),
(329,-40,o),
(436,64,o),
(493,140,cs)
);
},
{
closed = 1;
nodes = (
(56,418,o),
(104,354,o),
(136,354,cs),
(406,354,ls),
(444,354,o),
(400,418,o),
(365,418,cs),
(95,418,ls)
);
},
{
closed = 1;
nodes = (
(7,286,o),
(55,222,o),
(87,222,cs),
(358,222,ls),
(396,222,o),
(352,286,o),
(317,286,cs),
(46,286,ls)
);
}
);
width = 547;
}
);
unicode = 8364;
userData = {
KernOnSpecialSpacing = {
L = symbols;
R = symbols;
};
};
},
{
glyphname = franc;
lastChange = "2022-01-26 22:19:49 +0000";
layers = (
{
layerId = "2C7DDEC5-850F-4F82-8636-E075FE6DB186";
shapes = (
{
closed = 1;
nodes = (
(374,94,o),
(330,158,o),
(295,158,cs),
(-16,158,ls),
(-55,158,o),
(-7,94,o),
(25,94,cs),
(336,94,ls)
);
},
{
closed = 1;
nodes = (
(371,612,o),
(300,671,o),
(290,642,cs),
(66,28,ls),
(57,2,o),
(127,-57,o),
(138,-28,cs),
(361,586,ls)
);
},
{
closed = 1;
nodes = (
(493,278,o),
(443,348,o),
(407,348,cs),
(221,348,ls),
(182,348,o),
(237,278,o),
(269,278,cs),
(455,278,ls)
);
},
{
closed = 1;
nodes = (
(661,582,o),
(610,652,o),
(574,652,cs),
(304,652,ls),
(265,652,o),
(321,582,o),
(353,582,cs),
(623,582,ls)
);
}
);
width = 521;
}
);
metricRight = F;
unicode = 8355;
},
{
glyphname = guarani;
kernLeft = KO_guillemetright;
lastChange = "2022-01-26 22:29:38 +0000";
layers = (
{
layerId = "2C7DDEC5-850F-4F82-8636-E075FE6DB186";
shapes = (
{
closed = 1;
nodes = (
(504,413,o),
(607,467,o),
(611,490,cs),
(625,589,o),
(596,660,o),
(500,660,cs),
(271,660,o),
(111,440,o),
(61,303,cs),
(-3,125,o),
(1,-42,o),
(181,-42,cs),
(390,-42,o),
(533,155,o),
(590,312,cs),
(600,340,o),
(488,284,o),
(477,256,cs),
(410,70,o),
(295,26,o),
(234,26,cs),
(164,26,o),
(79,110,o),
(157,323,cs),
(239,548,o),
(365,590,o),
(401,590,cs),
(459,590,o),
(521,529,o),
(508,438,cs)
);
},
{
closed = 1;
nodes = (
(372,320,o),
(265,250,o),
(304,250,cs),
(482,250,ls),
(514,250,o),
(620,320,o),
(582,320,cs),
(404,320,ls)
);
},
{
closed = 1;
nodes = (
(131,-104,o),
(194,-156,o),
(208,-118,cs),
(502,690,ls),
(515,724,o),
(452,776,o),
(438,738,cs),
(144,-70,ls)
);
}
);
width = 586;
}
);
unicode = 8370;
userData = {
KernOnSpecialSpacing = {
L = symbols;
R = symbols;
};
};
},
{
glyphname = kip;
lastChange = "2022-01-26 22:19:49 +0000";
layers = (
{
layerId = "2C7DDEC5-850F-4F82-8636-E075FE6DB186";
shapes = (
{
closed = 1;
nodes = (
(327,615,o),
(256,674,o),
(245,645,cs),
(21,28,ls),
(11,2,o),
(82,-57,o),
(93,-28,cs),
(317,589,ls)
);
},
{
closed = 1;
nodes = (
(647,602,o),
(581,666,o),
(560,649,cs),
(417,540,o),
(274,430,o),
(132,320,cs),
(110,303,o),
(176,239,o),
(197,256,cs),
(340,365,o),
(483,475,o),
(625,585,cs)
);
},
{
closed = 1;
nodes = (
(263,299,o),
(164,315,o),
(179,286,cs),
(317,-4,ls),
(329,-29,o),
(427,-45,o),
(413,-16,cs),
(274,274,ls)
);
},
{
closed = 1;
nodes = (
(513,276,o),
(469,340,o),
(434,340,cs),
(50,340,ls),
(11,340,o),
(59,276,o),
(91,276,cs),
(475,276,ls)
);
}
);
width = 522;
}
);
metricRight = K;
unicode = 8365;
},
{
glyphname = lira;
kernLeft = KO_guillemetright;
kernRight = KO_ampersand;
lastChange = "2022-01-26 22:29:38 +0000";
layers = (
{
layerId = "2C7DDEC5-850F-4F82-8636-E075FE6DB186";
shapes = (
{
closed = 1;
nodes = (
(569,593,o),
(542,661,o),
(485,661,cs),
(278,661,o),
(194,552,o),
(152,438,cs),
(115,335,o),
(167,300,o),
(123,177,cs),
(104,126,o),
(39,76,o),
(-22,40,cs),
(-48,25,o),
(18,-40,o),
(42,-26,cs),
(105,12,o),
(172,60,o),
(194,121,cs),
(243,254,o),
(195,301,o),
(224,382,cs),
(269,506,o),
(359,593,o),
(510,593,cs)
);
},
{
closed = 1;
nodes = (
(-47,35,o),
(8,-35,o),
(40,-35,cs),
(399,-35,ls),
(437,-35,o),
(387,35,o),
(351,35,cs),
(-8,35,ls)
);
},
{
closed = 1;
nodes = (
(76,418,o),
(124,354,o),
(156,354,cs),
(435,354,ls),
(473,354,o),
(429,418,o),
(394,418,cs),
(115,418,ls)
);
},
{
closed = 1;
nodes = (
(27,286,o),
(75,222,o),
(107,222,cs),
(387,222,ls),
(425,222,o),
(381,286,o),
(346,286,cs),
(66,286,ls)
);
}
);
width = 522;
}
);
unicode = 8356;
userData = {
KernOnSpecialSpacing = {
L = symbols;
R = symbols;
};
};
},
{
glyphname = liraTurkish;
kernRight = KO_ampersand;
lastChange = "2022-01-26 22:29:38 +0000";
layers = (
{
layerId = "2C7DDEC5-850F-4F82-8636-E075FE6DB186";
shapes = (
{
closed = 1;
nodes = (
(32,3,o),
(102,-56,o),
(113,-27,cs),
(337,589,ls),
(346,615,o),
(276,674,o),
(265,645,cs),
(41,29,ls)
);
},
{
closed = 1;
nodes = (
(589,326,o),
(533,398,o),
(521,365,cs),
(429,111,o),
(188,35,o),
(54,35,cs),
(15,35,o),
(71,-35,o),
(103,-35,cs),
(243,-35,o),
(477,17,o),
(579,299,cs)
);
},
{
closed = 1;
nodes = (
(55,434,o),
(103,378,o),
(130,388,cs),
(508,530,ls),
(536,541,o),
(488,597,o),
(461,587,cs),
(82,444,ls)
);
},
{
closed = 1;
nodes = (
(0,284,o),
(49,228,o),
(75,238,cs),
(453,381,ls),
(482,392,o),
(434,448,o),
(407,438,cs),
(28,294,ls)
);
}
);
width = 580;
}
);
unicode = 8378;
userData = {
KernOnSpecialSpacing = {
L = symbols;
R = symbols;
};
};
},
{
glyphname = manat;
lastChange = "2022-01-26 22:19:49 +0000";
layers = (
{
layerId = "2C7DDEC5-850F-4F82-8636-E075FE6DB186";
shapes = (
{
closed = 1;
nodes = (
(-42,-8,o),
(28,-67,o),
(39,-38,cs),
(171,325,ls),
(226,475,o),
(336,582,o),
(442,582,cs),
(475,582,o),
(539,565,o),
(472,381,cs),
(339,18,ls),
(330,-8,o),
(400,-67,o),
(411,-38,cs),
(543,325,ls),
(593,461,o),
(576,652,o),
(393,652,cs),
(283,652,o),
(163,555,o),
(100,381,cs),
(-33,18,ls)
);
},
{
closed = 1;
nodes = (
(145,-20,o),
(208,-72,o),
(222,-34,cs),
(485,690,ls),
(497,724,o),
(434,776,o),
(420,738,cs),
(157,14,ls)
);
}
);
width = 545;
}
);
unicode = 8380;
},
{
glyphname = naira;
kernLeft = KO_quotedbl;
lastChange = "2022-01-26 22:29:38 +0000";
layers = (
{
layerId = "2C7DDEC5-850F-4F82-8636-E075FE6DB186";
shapes = (
{
closed = 1;
nodes = (
(282,616,o),
(212,675,o),
(201,646,cs),
(-23,29,ls),
(-32,4,o),
(38,-55,o),
(49,-26,cs),
(273,591,ls)
);
},
{
closed = 1;
nodes = (
(625,616,o),
(555,675,o),
(544,646,cs),
(320,29,ls),
(311,4,o),
(381,-55,o),
(392,-26,cs),
(616,591,ls)
);
},
{
closed = 1;
nodes = (
(268,634,o),
(194,676,o),
(202,636,cs),
(316,21,ls),
(322,-16,o),
(396,-56,o),
(388,-16,cs),
(274,599,ls)
);
},
{
closed = 1;
nodes = (
(579,278,o),
(536,343,o),
(501,343,cs),
(52,343,ls),
(13,343,o),
(60,278,o),
(92,278,cs),
(541,278,ls)
);
}
);
width = 526;
}
);
unicode = 8358;
userData = {
KernOnSpecialSpacing = {
L = symbols;
R = symbols;
};
};
},
{
glyphname = peseta;
lastChange = "2022-01-26 22:19:49 +0000";
layers = (
{
layerId = "2C7DDEC5-850F-4F82-8636-E075FE6DB186";
shapes = (
{
closed = 1;
nodes = (
(-38,2,o),
(32,-57,o),
(43,-28,cs),
(267,589,l),
(264,587,o),
(260,585,o),
(256,582,c),
(383,582,ls),
(471,582,o),
(485,532,o),
(471,492,cs),
(421,355,o),
(231,265,o),
(106,265,cs),
(67,265,o),
(123,195,o),
(155,195,cs),
(296,195,o),
(457,261,o),
(514,418,cs),
(574,583,o),
(408,652,o),
(334,652,cs),
(207,652,ls),
(202,652,o),
(197,648,o),
(196,645,cs),
(-29,28,ls)
);
},
{
closed = 1;
nodes = (
(606,406,o),
(562,470,o),
(527,470,cs),
(98,470,ls),
(59,470,o),
(107,406,o),
(139,406,cs),
(568,406,ls)
);
}
);
width = 506;
}
);
unicode = 8359;
},
{
glyphname = peso;
lastChange = "2022-01-26 22:29:38 +0000";
layers = (
{
layerId = "2C7DDEC5-850F-4F82-8636-E075FE6DB186";
shapes = (
{
closed = 1;
nodes = (
(-38,2,o),
(32,-57,o),
(43,-28,cs),
(267,589,l),
(264,587,o),
(260,585,o),
(256,582,c),
(383,582,ls),
(471,582,o),
(485,532,o),
(471,492,cs),
(421,355,o),
(231,265,o),
(106,265,cs),
(67,265,o),
(123,195,o),
(155,195,cs),
(296,195,o),
(457,261,o),
(514,418,cs),
(574,583,o),
(408,652,o),
(334,652,cs),
(207,652,ls),
(202,652,o),
(197,648,o),
(196,645,cs),
(-29,28,ls)
);
},
{
closed = 1;
nodes = (
(625,459,o),
(581,523,o),
(546,523,cs),
(117,523,ls),
(78,523,o),
(126,459,o),
(158,459,cs),
(587,459,ls)
);
},
{
closed = 1;
nodes = (
(585,349,o),
(541,413,o),
(506,413,cs),
(77,413,ls),
(38,413,o),
(86,349,o),
(118,349,cs),
(547,349,ls)
);
}
);
width = 506;
}
);
unicode = 8369;
userData = {
KernOnSpecialSpacing = {
L = symbols;
R = symbols;
};
};
},
